<svg width="64" height="64" viewBox="0 0 64 64" fill="none" xmlns="http://www.w3.org/2000/svg">
<path d="M22.3865 16.6382C22.783 16.621 23.2586 16.6538 23.6616 16.6689L25.8964 16.7588C27.7392 16.8321 29.5527 16.8609 31.3965 17.0437C32.7977 17.1801 34.2243 17.4373 35.6258 17.5352C38.9227 17.7712 42.1765 17.3427 45.4705 17.3028C46.7715 17.2871 49.1787 17.1418 50.214 18.0254C50.9165 18.6248 50.7343 19.7175 50.7443 20.533C50.2496 20.514 49.7205 20.5218 49.223 20.5209L39.039 20.5119C37.5796 20.5106 36.1099 20.5249 34.6515 20.5048C32.2796 20.4723 29.9083 20.242 27.5359 20.2424C25.879 20.2427 24.2104 20.3301 22.5586 20.1986C22.0662 20.1433 21.5572 20.0336 21.1537 19.7293C20.422 19.1778 20.4224 17.854 20.9604 17.1734C21.3002 16.7437 21.8689 16.6764 22.3865 16.6382Z" fill="currentColor"/>
<path d="M28.164 23.4754C30.809 23.45 33.4547 23.4794 36.0976 23.5635C38.2068 23.6436 40.3152 23.7353 42.4225 23.8385L45.3655 23.9756C47.252 24.0657 48.8473 23.9211 48.2117 25.7997C48.0829 26.1798 47.9728 26.6329 47.8602 27.0221C47.4566 26.9687 46.7256 26.9573 46.2927 26.9408C45.5043 26.9049 44.7158 26.8725 43.9268 26.8439C39.566 26.669 35.2068 26.4711 30.8495 26.2501L28.2546 26.1271C27.8562 26.107 27.0935 26.0878 26.7416 26.0032C25.6647 25.7444 24.4896 24.892 23.504 24.5617L23.4648 24.5488C23.8942 24.326 24.3675 24.1746 24.7691 23.9976C26.1836 23.3744 26.5979 23.476 28.164 23.4754Z" fill="currentColor"/>
<path d="M29.5836 29.8741C29.7072 29.8675 29.8829 29.8646 30.0048 29.8683C31.4872 29.9126 32.9776 29.9631 34.459 30.0174C36.6105 30.0852 38.7611 30.1664 40.9104 30.2609L43.6103 30.3705C44.1959 30.3919 44.8248 30.4027 45.4023 30.4663C45.5592 30.4836 45.7939 30.6092 45.9078 30.6992C46.2938 31.0036 46.9321 31.4467 46.9345 31.8687C46.9352 31.987 46.7029 32.1845 46.5741 32.2571C45.8519 32.6636 45.393 32.7334 44.5012 32.7059C41.1103 32.6279 37.7218 32.5056 34.3381 32.3389L32.2857 32.2431C31.6138 32.2135 30.5901 32.1848 29.9646 32.0629C29.0234 31.8797 27.9379 31.5032 27.0234 31.2217C27.064 30.9361 27.123 30.6517 27.2002 30.3694C27.9159 30.1803 28.8314 29.9151 29.5836 29.8741Z" fill="currentColor"/>
<path d="M5.70703 7.70288C6.34236 7.68548 6.98845 7.67534 7.62109 7.73804C8.52655 7.82779 9.41507 8.0386 10.3047 8.22241C11.1443 8.39332 11.9877 8.54538 12.834 8.67944C15.4745 9.07104 18.1301 9.35324 20.7939 9.52515C21.4876 9.57561 22.2345 9.59234 22.9355 9.62671C27.5296 9.85202 32.1288 9.79194 36.7266 9.86694C42.1978 9.94422 47.6646 10.2295 53.1143 10.7214C54.7414 10.8573 56.3669 11.0063 57.9912 11.1687C60.0277 11.3656 63.2951 11.4199 63.8965 13.8914C63.9337 14.0439 63.9516 14.2097 64 14.3572V15.2097C63.961 15.3402 63.9276 15.5847 63.8945 15.7332C63.8083 16.1196 63.7053 16.5024 63.585 16.8796C63.2212 18.0054 62.6999 19.3139 62.2871 20.4382C60.8968 24.1397 59.467 27.8265 57.9971 31.4968L56.6543 34.9001C56.3347 35.7103 56.0306 36.6215 55.5723 37.3542C54.4695 39.1177 52.5669 39.5413 50.6416 39.6873C48.7786 39.8285 47.0096 39.7717 45.1504 39.7273L32.668 39.4119L27.4717 39.2771C26.651 39.2552 25.5727 39.1805 24.7832 39.2439C24.2844 39.2842 23.2056 39.564 22.6904 39.6833L22.7178 39.7224C24.8563 42.7118 27.747 42.524 31.0469 42.7078C35.3523 42.9474 39.9579 43.1892 44.2275 42.4939C48.5538 41.7305 51.8011 43.8129 53.0664 47.9675C54.0016 51.038 53.0922 51.9857 50.5879 53.7478C49.6483 54.4087 48.4818 54.9476 47.2812 54.7234C46.7926 54.6312 46.336 54.4136 45.957 54.0916C44.7289 53.0603 43.212 49.9808 42.4102 48.5271C42.1705 48.0924 41.8914 47.4985 41.6133 47.0964C40.7461 47.0592 39.7105 47.0847 38.833 47.0847H33.5977C32.7421 47.0847 31.8292 47.1047 30.9795 47.0847C31.6555 48.8003 32.4885 50.1071 32.4004 52.0886C32.2738 54.9351 30.1414 56.3855 27.4072 56.3025C23.7855 56.1925 21.0328 53.1552 21.4209 49.5212C21.8018 46.842 21.9595 46.4794 20.1055 44.489C19.1135 43.424 18.5353 40.7417 18.085 39.3064C17.7761 38.3218 17.4249 37.194 17.0977 36.1619C15.4741 30.9833 13.8189 25.8146 12.1328 20.656L10.6934 16.239C10.4273 15.4203 10.0971 14.2868 9.75586 13.5154C9.5317 13.0045 9.22675 12.5328 8.85156 12.1199C7.32438 10.461 5.42714 10.8127 3.39941 10.7029C2.36078 10.6467 1.31352 10.5343 0.279297 10.4871C0.215791 10.2873 0.0859425 9.79419 0 9.6521V9.52124C0.419681 9.07702 1.06703 8.42633 1.61719 8.1687C2.13225 7.92799 5.01296 7.72191 5.70703 7.70288ZM26.665 47.6443C24.8977 47.6443 23.4648 48.6201 23.4648 50.3875C23.4649 52.1547 24.8978 54.0447 26.665 54.0447C28.4323 54.0446 29.8652 52.6117 29.8652 50.8445C29.8652 49.0772 28.4323 47.6444 26.665 47.6443ZM50.1348 46.5779C48.7516 45.4777 46.6128 44.4838 45.5127 45.8669C44.4126 47.2501 44.4439 48.3556 46.0088 51.2156C47.3919 52.3156 49.4048 52.0859 50.5049 50.7029C51.605 49.3198 51.5178 47.678 50.1348 46.5779ZM18.958 28.2156L20.5186 32.9724C20.7401 33.6475 21.1371 34.7457 21.3096 35.4099C27.9887 35.4402 34.7279 35.353 41.3984 35.4314C43.0866 35.4436 44.7743 35.4936 46.46 35.5808C47.5241 35.6342 48.5939 35.7182 49.6621 35.7126C52.691 35.6967 53.4027 32.6503 54.3545 30.2859C55.6792 27.023 57.1943 23.8331 58.4502 20.5408C59.0833 18.8811 59.3326 17.1233 59.8281 15.4412C59.0009 15.1679 57.3981 14.6002 56.6094 14.4724C55.4729 14.2884 53.7318 14.3098 52.5254 14.2712L44.6162 14.0398L24.3525 13.4666L17.5273 13.2878L15.1758 13.2214C14.8601 13.2121 14.3153 13.2183 14.0293 13.1882L18.958 28.2156Z" fill="currentColor"/>
</svg>
