<svg width="24" height="23" viewBox="0 0 24 23" fill="none" xmlns="http://www.w3.org/2000/svg">
<g clip-path="url(#clip0_180_6073)">
<path d="M5.82143 1.79562C5.82143 1.41953 5.81356 1.07478 5.82342 0.730452C5.83557 0.305826 5.9468 0.120159 6.17445 0.104979C6.40211 0.0898 6.52808 0.252314 6.59271 0.681934C6.6425 1.00859 6.66779 1.33873 6.7122 1.74398L17.0242 1.65513C17.0453 1.43862 17.0602 1.24396 17.0839 1.05043C17.1084 0.853297 17.1329 0.655474 17.1735 0.461236C17.2228 0.225654 17.3635 0.0722628 17.6177 0.0700658C17.8938 0.0675691 18.0523 0.232638 18.0964 0.486495C18.1476 0.780498 18.1647 1.08048 18.196 1.37787C18.2045 1.45836 18.2118 1.53905 18.2244 1.66747C18.711 1.69274 19.1847 1.731 19.6584 1.73949C21.7503 1.77683 22.9293 3.06678 23.3481 4.88153C23.559 5.7952 23.6048 6.7545 23.6537 7.69683C23.7674 9.88777 23.8501 12.0809 23.9204 14.2732C23.9603 15.5016 23.9509 16.7321 23.9613 17.9617C23.9824 20.4476 22.1013 21.7777 20.4479 22.2284C19.8733 22.3901 19.2816 22.4822 18.6852 22.503C15.2044 22.5884 11.7229 22.6837 8.24144 22.6861C6.38468 22.6875 4.54016 22.3917 2.72383 21.9976C1.32964 21.6952 0.255213 20.3982 0.0887065 18.8978C0.0375506 18.4019 0.0164321 17.9033 0.025469 17.4048C0.0437927 15.6928 0.0956818 13.9811 0.103051 12.2691C0.111715 10.2748 0.0921914 8.28034 0.0731707 6.28603C0.0679922 5.73907 0.0327423 5.20749 0.230717 4.66742C0.783016 3.16105 1.86551 2.32879 3.40649 2.06614C4.02581 1.96049 4.65758 1.92826 5.28357 1.86135C5.44609 1.84397 5.60652 1.82198 5.82143 1.79562ZM22.3764 7.53908C18.8363 7.65522 15.3755 7.77872 11.9141 7.87968C8.43851 7.98144 4.9617 8.06154 1.45959 8.15182C1.45601 8.19406 1.44366 8.27367 1.44356 8.35326C1.44024 11.0132 1.43812 13.6732 1.43719 16.3332C1.43719 17.0476 1.43351 17.7627 1.46607 18.4759C1.48703 18.9783 1.67792 19.4585 2.00735 19.8377C2.33678 20.2168 2.78509 20.4722 3.27851 20.5617C5.29013 20.9036 7.30035 21.2208 9.3539 21.1653C11.2268 21.1145 13.1015 21.1323 14.9749 21.0942C16.466 21.0643 17.9568 21.0059 19.4463 20.9381C20.096 20.9043 20.7235 20.69 21.2587 20.319C21.9812 19.8309 22.4667 19.1919 22.4825 18.2717C22.4948 17.5577 22.5408 16.8437 22.5297 16.1299C22.4876 13.4208 22.4281 10.7119 22.376 8.00305C22.3736 7.83947 22.3767 7.67589 22.3767 7.53908H22.3764ZM1.32646 6.91229C8.33674 6.53679 15.2359 6.29225 22.178 6.12648C22.1382 5.77246 22.1328 5.43739 22.0585 5.11852C21.8285 4.13615 21.3984 3.29521 20.3304 3.00341C19.6527 2.81826 18.9578 2.87176 18.2391 2.88823C18.2231 3.04662 18.2128 3.17603 18.196 3.30456C18.1821 3.43652 18.1609 3.56763 18.1326 3.69725C18.0314 4.10929 17.8239 4.29642 17.5044 4.27415C17.1824 4.25198 16.9985 4.0356 16.9694 3.61148C16.9528 3.3694 16.9664 3.12522 16.9664 2.89404H6.79048C6.79048 3.13022 6.79496 3.30939 6.78938 3.48815C6.78921 3.73685 6.77591 3.98532 6.74955 4.23261C6.74037 4.35091 6.68683 4.46134 6.59973 4.54166C6.51264 4.62198 6.39843 4.66623 6.2801 4.66552C6.00127 4.6823 5.84293 4.50575 5.78118 4.26547C5.745 4.07009 5.72935 3.87142 5.73448 3.67276C5.72551 3.44897 5.72552 3.22477 5.72065 2.93846C4.96689 3.00227 4.27735 2.99188 3.61939 3.13189C2.52505 3.36488 1.62521 3.90936 1.42295 5.13261C1.32984 5.69795 1.35673 6.28334 1.32646 6.91229Z" fill="#E1CDAD"/>
<path d="M6.12432 18.9265C5.97813 18.9328 5.6973 18.9564 5.41647 18.9554C4.8077 18.954 4.43645 18.6778 4.32322 18.0866C4.1853 17.4011 4.2157 16.6924 4.41184 16.0213C4.4484 15.8761 4.52332 15.7434 4.62869 15.6373C4.73407 15.5311 4.86601 15.4554 5.01066 15.4181C5.80597 15.186 6.63629 15.0986 7.46234 15.1598C7.9049 15.1906 8.24726 15.4378 8.34864 15.9029C8.5022 16.606 8.54344 17.3164 8.35253 18.0201C8.1923 18.6103 7.81329 18.902 7.20134 18.9247C6.88785 18.936 6.57344 18.9265 6.12432 18.9265ZM6.85527 16.5479H5.56206L5.61683 17.4111H6.85527V16.5479Z" fill="#E1CDAD"/>
<path d="M14.1205 16.6883C14.1205 16.8576 14.1228 16.9574 14.1205 17.057C14.093 18.0906 13.7614 18.4927 12.7413 18.6708C12.2201 18.7618 11.6919 18.822 11.1644 18.8666C10.5924 18.915 10.2084 18.6597 10.0963 18.1217C9.95434 17.4383 9.87119 16.7449 10.0204 16.0455C10.1253 15.554 10.4151 15.2267 10.9043 15.1536C11.5585 15.0513 12.218 14.987 12.8797 14.9612C13.6184 14.9377 13.9396 15.2377 14.0548 15.9639C14.0953 16.2255 14.103 16.4926 14.1205 16.6883ZM12.6379 16.3749H11.2115C11.2593 16.7476 11.3021 17.0805 11.3464 17.4252C11.6672 17.3939 11.9295 17.3705 12.1913 17.3421C12.6654 17.2909 12.7165 17.2323 12.694 16.7484C12.6885 16.6359 12.6607 16.5244 12.6375 16.3749H12.6379Z" fill="#E1CDAD"/>
<path d="M17.5977 18.7565C17.2837 18.7708 16.9692 18.7689 16.6554 18.7507C16.0866 18.6908 15.7551 18.3896 15.721 17.8319C15.6805 17.2192 15.6879 16.6043 15.7433 15.9927C15.803 15.3674 16.0859 15.1122 16.7121 15.0629C17.3217 15.0147 17.9364 15.0011 18.548 15.0137C19.1936 15.0272 19.8018 15.4432 19.754 16.2945C19.7307 16.7089 19.7233 17.1257 19.6701 17.5364C19.5684 18.3215 19.1845 18.666 18.3912 18.7258C18.127 18.7458 17.8623 18.7596 17.5978 18.7763L17.5977 18.7565ZM16.9847 16.2213C17.0046 16.6463 17.0197 16.9685 17.0345 17.2792H18.1937C18.2236 16.958 18.2481 16.6833 18.2772 16.3636L16.9847 16.2213Z" fill="#E1CDAD"/>
<path d="M17.5469 13.3655C17.2662 13.3813 16.9852 13.4125 16.7047 13.4098C16.0126 13.4032 15.6522 13.0755 15.6177 12.3893C15.591 11.8591 15.591 11.328 15.6177 10.7979C15.6518 10.1343 15.89 9.8502 16.5447 9.78159C17.2679 9.70491 17.995 9.67327 18.722 9.6869C19.3969 9.70058 19.7565 10.0809 19.7529 10.7713C19.7455 11.334 19.6879 11.895 19.5805 12.4473C19.4729 13.0224 19.1276 13.2898 18.5382 13.3313C18.2095 13.3546 17.8772 13.3355 17.5465 13.3355L17.5469 13.3655ZM16.8498 12.0199H18.2684C18.3067 11.677 18.3408 11.3726 18.3841 10.9846L16.8498 10.9168V12.0199Z" fill="#E1CDAD"/>
<path d="M9.625 11.6018C9.65816 11.2722 9.67907 10.9235 9.73166 10.5791C9.79141 10.1897 9.98512 9.88887 10.3989 9.80458C11.1308 9.65548 11.8668 9.52892 12.6184 9.6185C13.2748 9.6966 13.6309 9.97673 13.7219 10.6332C13.7827 11.1245 13.7746 11.622 13.6981 12.1112C13.6215 12.6405 13.2475 12.9584 12.7167 13.028C12.0762 13.1119 11.4321 13.1786 10.7876 13.2184C10.1646 13.2569 9.78742 12.9381 9.67977 12.3167C9.64053 12.0891 9.64312 11.854 9.625 11.6018ZM12.3149 10.9451L10.8291 10.8466C10.8523 11.2172 10.8701 11.5029 10.8906 11.8299L12.3147 11.6864L12.3149 10.9451Z" fill="#E1CDAD"/>
</g>
<defs>
<clipPath id="clip0_180_6073">
<rect width="24" height="22.7692" fill="white"/>
</clipPath>
</defs>
</svg>
