<svg viewBox="0 0 13 13" fill="none" xmlns="http://www.w3.org/2000/svg">
<path d="M10.0512 1.11171C10.2653 0.312269 11.0878 -0.162605 11.8881 0.0512619C12.6883 0.26517 13.1637 1.08687 12.9496 1.88631C12.42 3.86355 11.5223 6.76617 10.5482 9.01188C10.0736 10.1061 9.52321 11.1843 8.9164 11.9054C8.62766 12.2485 8.17623 12.6954 7.55116 12.8907C7.20691 12.9983 6.80936 13.0279 6.39979 12.9171C5.99751 12.8082 5.67854 12.59 5.43886 12.3503C4.5694 11.4808 3.50587 9.99085 2.57655 8.58555C1.62502 7.14665 0.734107 5.67248 0.200575 4.74766C-0.213066 4.03065 0.0336461 3.11416 0.751356 2.70091C1.46912 2.28768 2.38653 2.5341 2.80018 3.25113C3.30831 4.13192 4.16762 5.55354 5.08046 6.93391C5.73984 7.931 6.39003 8.84779 6.9369 9.52307C7.18861 9.11629 7.4823 8.54455 7.79628 7.8207C8.68679 5.76763 9.53908 3.02353 10.0512 1.11171Z" fill="#F9F4EC"/>
</svg>
