<svg viewBox="0 0 13 13" fill="none" xmlns="http://www.w3.org/2000/svg">
<path d="M1.11952 2.94982C0.320081 2.73569 -0.154793 1.91315 0.0590739 1.1129C0.272982 0.312651 1.09468 -0.162706 1.89412 0.0513782C3.87136 0.580972 6.77398 1.47868 9.01969 2.45275C10.1139 2.92736 11.1922 3.47777 11.9132 4.08458C12.2563 4.37331 12.7032 4.82475 12.8986 5.44982C13.0061 5.79407 13.0357 6.19162 12.9249 6.60118C12.816 7.00346 12.5978 7.32243 12.3581 7.56212C11.4886 8.43158 9.99866 9.4951 8.59336 10.4244C7.15446 11.376 5.68029 12.2669 4.75547 12.8004C4.03846 13.214 3.12197 12.9673 2.70872 12.2496C2.29549 11.5319 2.54191 10.6144 3.25894 10.2008C4.13973 9.69266 5.56135 8.83336 6.94172 7.92052C7.93881 7.26113 8.8556 6.61094 9.53089 6.06407C9.1241 5.81236 8.55236 5.51867 7.82852 5.2047C5.77544 4.31419 3.03135 3.46189 1.11952 2.94982Z" fill="#F9F4EC"/>
</svg>
