<svg width="14" height="17" viewBox="0 0 14 17" fill="none" xmlns="http://www.w3.org/2000/svg">
<path d="M3.02795 16.9994C2.62658 17.0079 2.27275 16.9228 1.96644 16.7439C1.48057 16.4543 1.22708 16.0625 1.20595 15.5685C1.19539 15.2874 1.23764 15.0362 1.3327 14.8147C1.42776 14.5933 1.62316 14.2696 1.91891 13.8437C2.88008 12.4724 3.52438 11.429 3.85181 10.7136C4.06305 10.2536 4.29014 9.80648 4.53308 9.37209L4.88163 8.72051L4.48555 8.09449C4.29542 7.77934 4.05249 7.37051 3.75675 6.86798C3.5455 6.52729 3.00682 5.73091 2.14072 4.47885C1.27461 3.2268 0.746494 2.4943 0.556372 2.28136C0.00713297 1.67663 -0.135458 1.14003 0.128599 0.671578C0.318721 0.313847 0.709526 0.0966539 1.30101 0.0199974C1.56507 -0.031107 1.84497 0.0157387 2.14072 0.160534C2.41534 0.279778 2.61602 0.347917 2.74277 0.364952C2.82727 0.373469 3.04379 0.5353 3.39235 0.850443C3.7409 1.15707 3.9099 1.34019 3.89934 1.39981C3.89934 1.46795 4.13699 1.86827 4.61229 2.60077C5.0876 3.32475 5.5629 4.01465 6.0382 4.67049C6.51351 5.31782 6.78285 5.64573 6.84622 5.65425C7.6912 4.16371 8.32494 3.17569 8.74743 2.6902C9.07486 2.30692 9.37061 1.89382 9.63466 1.45092C9.8776 1.04208 10.0941 0.752493 10.2842 0.582145C10.6539 0.301071 11.1504 0.134982 11.7735 0.0838778C12.3967 0.0242561 12.8984 0.100913 13.2787 0.313847C13.4899 0.458643 13.6695 0.671578 13.8173 0.952652C13.9652 1.23373 14.0233 1.48073 13.9916 1.69366C13.9705 1.87253 13.886 2.11102 13.7381 2.40913C13.6008 2.69872 13.4952 2.85629 13.4212 2.88184C13.3579 2.90739 13.1149 3.15866 12.6924 3.63563C12.2805 4.1126 12.0693 4.37664 12.0587 4.42775C12.0481 4.47034 11.7999 4.83658 11.3141 5.52649C10.8176 6.20788 10.4585 6.77429 10.2367 7.22571C10.0149 7.68565 9.76141 8.1243 9.47623 8.54165L9.0643 9.19323L9.72973 10.1387C10.0572 10.5986 10.6117 11.3524 11.3933 12.4C11.9214 13.1325 12.2647 13.6606 12.4231 13.9843C12.5815 14.3079 12.6608 14.6571 12.6608 15.0319C12.6608 15.6196 12.4231 16.0284 11.9478 16.2584C11.7999 16.3351 11.6573 16.3819 11.52 16.3989C11.3933 16.4075 11.1715 16.3989 10.8546 16.3734C10.3899 16.3393 10.0466 16.2584 9.82479 16.1306C9.61354 16.0029 9.40758 15.7516 9.20689 15.3769C9.00621 15.0021 8.75799 14.6529 8.46225 14.3292C8.16651 14.0226 7.87076 13.6265 7.57502 13.141C7.27927 12.6641 7.12084 12.4256 7.09971 12.4256C7.06803 12.4256 6.90959 12.6555 6.62441 13.1155C6.34979 13.5669 6.1227 13.9757 5.94314 14.342C5.67909 14.8786 5.37806 15.3683 5.04007 15.8112C4.71264 16.2541 4.42745 16.5437 4.18452 16.68C3.8254 16.8759 3.43988 16.9824 3.02795 16.9994Z" fill="#F9F4EC"/>
</svg>
