<svg viewBox="0 0 24 24" fill="none" xmlns="http://www.w3.org/2000/svg">
<path d="M8.02795 20.9931C7.62658 21.0016 7.27275 20.9164 6.96644 20.7375C6.48057 20.448 6.22708 20.0562 6.20595 19.5622C6.19539 19.2811 6.23764 19.0298 6.3327 18.8084C6.42776 18.5869 6.62316 18.2632 6.91891 17.8374C7.88008 16.4661 8.52438 15.4227 8.85181 14.7072C9.06305 14.2473 9.29014 13.8001 9.53308 13.3657L9.88163 12.7142L9.48555 12.0881C9.29542 11.773 9.05249 11.3642 8.75675 10.8616C8.5455 10.5209 8.00682 9.72456 7.14072 8.4725C6.27461 7.22045 5.74649 6.48795 5.55637 6.27502C5.00713 5.67028 4.86454 5.13369 5.1286 4.66523C5.31872 4.3075 5.70953 4.09031 6.30101 4.01365C6.56507 3.96255 6.84497 4.00939 7.14072 4.15419C7.41534 4.27343 7.61602 4.34157 7.74277 4.3586C7.82727 4.36712 8.04379 4.52895 8.39235 4.8441C8.7409 5.15072 8.9099 5.33385 8.89934 5.39347C8.89934 5.46161 9.13699 5.86192 9.61229 6.59442C10.0876 7.3184 10.5629 8.00831 11.0382 8.66415C11.5135 9.31147 11.7828 9.63939 11.8462 9.6479C12.6912 8.15736 13.3249 7.16934 13.7474 6.68385C14.0749 6.30057 14.3706 5.88748 14.6347 5.44457C14.8776 5.03574 15.0941 4.74615 15.2842 4.5758C15.6539 4.29472 16.1504 4.12863 16.7735 4.07753C17.3967 4.01791 17.8984 4.09456 18.2787 4.3075C18.4899 4.4523 18.6695 4.66523 18.8173 4.9463C18.9652 5.22738 19.0233 5.47438 18.9916 5.68732C18.9705 5.86618 18.886 6.10467 18.7381 6.40278C18.6008 6.69237 18.4952 6.84994 18.4212 6.87549C18.3579 6.90105 18.1149 7.15231 17.6924 7.62928C17.2805 8.10626 17.0693 8.3703 17.0587 8.4214C17.0481 8.46399 16.7999 8.83024 16.3141 9.52014C15.8176 10.2015 15.4585 10.7679 15.2367 11.2194C15.0149 11.6793 14.7614 12.1179 14.4762 12.5353L14.0643 13.1869L14.7297 14.1323C15.0572 14.5923 15.6117 15.346 16.3933 16.3937C16.9214 17.1262 17.2647 17.6543 17.4231 17.9779C17.5815 18.3016 17.6608 18.6508 17.6608 19.0256C17.6608 19.6133 17.4231 20.0221 16.9478 20.2521C16.7999 20.3287 16.6573 20.3756 16.52 20.3926C16.3933 20.4011 16.1715 20.3926 15.8546 20.367C15.3899 20.333 15.0466 20.2521 14.8248 20.1243C14.6135 19.9965 14.4076 19.7453 14.2069 19.3705C14.0062 18.9957 13.758 18.6465 13.4622 18.3229C13.1665 18.0162 12.8708 17.6202 12.575 17.1347C12.2793 16.6577 12.1208 16.4192 12.0997 16.4192C12.068 16.4192 11.9096 16.6492 11.6244 17.1091C11.3498 17.5606 11.1227 17.9694 10.9431 18.3356C10.6791 18.8722 10.3781 19.362 10.0401 19.8049C9.71264 20.2478 9.42745 20.5374 9.18452 20.6737C8.8254 20.8696 8.43988 20.976 8.02795 20.9931Z" fill="#F9F4EC"/>
</svg>
