<svg width="81" height="64" viewBox="0 0 81 64" fill="none" xmlns="http://www.w3.org/2000/svg">
<path fill-rule="evenodd" clip-rule="evenodd" d="M77.0752 0.0115614C78.3984 0.137614 79.3863 1.25945 79.3701 2.56527C79.3804 2.60951 79.3933 2.66286 79.417 2.75668C79.441 2.85185 79.4775 2.99576 79.5098 3.15023C79.633 3.74092 79.8488 5.16519 78.7539 6.43246C78.5008 6.72533 77.7874 7.44285 76.9902 8.2518C76.1356 9.11916 75.0469 10.2273 73.9053 11.4266C72.5418 12.8589 71.1662 14.3589 70.0322 15.6991C70.5534 16.1533 71.0545 16.6252 71.5176 17.0868C73.1462 18.71 74.7393 20.6332 75.6104 22.1737C76.2084 23.2314 76.8001 24.9197 77.3291 26.6541C77.8807 28.4628 78.4349 30.5653 78.9219 32.6053C79.409 34.6461 79.8359 36.6556 80.1309 38.2811C80.2779 39.0914 80.397 39.8299 80.4727 40.4403C80.5367 40.9569 80.6079 41.6458 80.5449 42.2049C80.4477 43.0665 79.9803 43.8308 79.7402 44.2098C79.4216 44.7128 79.0133 45.2607 78.582 45.8055C77.7161 46.8994 76.5959 48.1809 75.5303 49.3963C74.4399 50.64 73.4056 51.8155 72.627 52.7801C72.2431 53.2556 71.9602 53.633 71.7773 53.909C71.7931 53.9554 71.8148 54.0117 71.8457 54.0789C71.9044 54.2065 71.9825 54.3466 72.085 54.5145C72.1366 54.5991 72.1884 54.6814 72.249 54.7772C72.3043 54.8646 72.3754 54.9768 72.4414 55.0868C73.1618 56.288 72.7725 57.8468 71.5713 58.5672C70.3701 59.2875 68.8123 58.8971 68.0918 57.6961C68.0452 57.6184 67.8069 57.2583 67.5615 56.8231C66.9894 56.8866 66.3924 56.7572 65.876 56.4129C65.7036 56.298 65.593 56.2318 65.5039 56.1805C65.45 56.1495 65.243 56.0345 65.0879 55.9393C64.6823 55.6901 64.2801 55.3823 63.6162 54.8162C62.7844 54.107 62.6394 53.1756 62.6348 52.6668C62.6303 52.1632 62.7483 51.7281 62.8389 51.452C63.0266 50.8797 63.3362 50.2885 63.6348 49.7743C64.2542 48.7073 65.1542 47.4207 66.0605 46.1883C66.9792 44.9393 67.9595 43.6722 68.7666 42.6336C69.5042 41.6845 70.0452 40.9914 70.3203 40.6151L70.415 40.4823C70.4193 40.4743 70.4539 40.415 70.5137 40.2791C70.5878 40.1108 70.6744 39.8875 70.7754 39.6014C70.9849 39.008 71.1912 38.3378 71.4551 37.5262C71.7055 36.756 71.9955 35.8977 72.3291 35.0995C72.6515 34.3281 73.0784 33.4529 73.6553 32.7303C73.6742 32.7066 73.6942 32.6829 73.7139 32.66C73.3172 31.0647 72.8929 29.4954 72.4775 28.1336C71.9424 26.3789 71.487 25.1868 71.1953 24.6707C70.6428 23.6935 69.4031 22.1412 67.9365 20.6795C67.601 20.3451 67.2722 20.037 66.958 19.7547C66.6062 20.1836 66.2681 20.5564 65.9512 20.8914C65.2607 21.6215 64.876 21.9809 64.4805 22.4725C63.9087 23.1832 63.3307 24.1579 63.1006 26.9149C62.8774 29.5886 63.1573 31.9942 63.3799 34.1766C63.4861 35.2185 63.5902 36.3164 63.5654 37.2879C63.5417 38.2169 63.3997 39.4625 62.6562 40.533C61.8574 41.6832 60.2774 41.9682 59.127 41.1698C58.0027 40.3891 57.7051 38.8624 58.4375 37.7196C58.4488 37.6734 58.4861 37.5106 58.4951 37.159C58.5103 36.5624 58.4443 35.7826 58.333 34.6912C58.1205 32.607 57.7766 29.7196 58.0459 26.493C58.339 22.981 59.1786 20.9694 60.5273 19.2928C61.0921 18.5908 61.7931 17.9057 62.2656 17.4061C62.5046 17.1534 62.7394 16.892 62.9756 16.6082C62.7594 16.1557 62.6749 15.6415 62.7549 15.1278C61.5117 16.3801 59.7898 17.157 57.8857 17.1571C55.0001 17.1571 52.532 15.375 51.5176 12.8524C50.6158 13.6481 49.5747 14.5703 48.501 15.5506C46.8767 17.0335 45.2765 18.5582 43.9883 19.9129C44.5133 20.2792 45.0344 20.6622 45.5352 21.0516C47.4425 22.535 49.5289 24.4551 50.543 26.242C51.6464 28.1864 53.1513 32.5881 54.3076 36.4715C54.9031 38.4713 55.4376 40.4435 55.8135 42.0506C56.0008 42.8514 56.155 43.59 56.2568 44.2098C56.342 44.7282 56.4456 45.4606 56.375 46.0848C56.3142 46.6222 56.1212 47.0679 55.9873 47.3397C55.8378 47.6432 55.6584 47.9347 55.4814 48.1961C55.1275 48.719 54.6729 49.2883 54.1914 49.8553C53.2244 50.9939 51.9715 52.3279 50.7773 53.5955C49.5566 54.8914 48.3959 56.1192 47.5225 57.1278C47.0842 57.6338 46.7623 58.0348 46.5566 58.327C46.5484 58.3387 46.5397 58.3503 46.5322 58.3612C46.5527 58.5354 46.6027 58.7781 46.7031 59.0829C46.8611 59.5621 47.0708 59.9752 47.1797 60.1561C47.9019 61.3561 47.5144 62.9143 46.3145 63.6366C45.1144 64.3588 43.5563 63.9714 42.834 62.7713C42.5712 62.3347 42.2446 61.6823 41.9766 60.9354C41.5343 61.2769 40.9772 61.4763 40.375 61.4637C39.4977 61.4453 38.3967 61.1269 37.626 60.0975C36.9648 59.2142 36.8477 58.1862 36.8477 57.4364C36.8477 56.7521 37.1004 56.21 37.2109 55.9862C37.3554 55.6937 37.5306 55.42 37.6924 55.1883C38.0191 54.7204 38.4452 54.2033 38.8975 53.6873C39.8113 52.6449 41.0173 51.3983 42.2148 50.1854C43.4678 48.9164 44.6097 47.7856 45.6436 46.7342C46.1405 46.2288 46.5652 45.7888 46.8955 45.4315C47.0605 45.253 47.1932 45.1052 47.2939 44.9871C47.3438 44.9288 47.3822 44.8827 47.4102 44.8475C47.436 44.8149 47.447 44.7985 47.4482 44.7967C47.7118 44.4187 48.2377 43.3312 48.7227 41.952C49.2129 40.5576 49.4806 39.374 49.4883 38.8231C49.4909 38.6382 49.5136 38.4581 49.5537 38.285C49.5179 38.1634 49.4827 38.041 49.4463 37.9188C48.2599 33.9344 46.9007 30.1026 46.1309 28.7459C45.6463 27.8921 44.2615 26.4871 42.4209 25.0555C41.8935 24.6453 41.367 24.2645 40.8633 23.9198C40.057 25.1593 39.7028 25.7578 39.4434 26.5125C39.1009 27.5089 38.9137 28.8426 38.6338 32.1971C38.3777 35.2667 38.1388 38.0102 37.791 40.2274C37.46 42.3377 36.9721 44.4379 35.9551 45.9032C35.1565 47.0536 33.5764 47.3391 32.4258 46.5409C31.2752 45.7422 30.9896 44.1622 31.7881 43.0116C32.0781 42.5937 32.4496 41.5495 32.7803 39.4412C33.0942 37.4401 33.3193 34.8899 33.5791 31.7762C33.8474 28.5608 34.0612 26.5669 34.6465 24.8641C35.1001 23.5444 35.7686 22.4389 36.6133 21.1444C36.2434 20.5261 36.1397 19.7587 36.3867 19.0301C35.122 20.2696 33.3912 21.036 31.4805 21.036C27.6082 21.0358 24.4689 17.8964 24.4688 14.0243C24.4688 10.152 27.6081 7.01273 31.4805 7.01254C35.353 7.01254 38.4932 10.1519 38.4932 14.0243C38.4931 15.3647 38.1154 16.6166 37.4629 17.6815C38.0346 17.3317 38.7373 17.2106 39.4199 17.3875C41.0766 15.5355 43.2045 13.5187 45.0811 11.8055C46.5156 10.4959 47.8885 9.28841 48.9355 8.36605C49.4635 7.90101 49.8998 7.51595 50.2275 7.22055C50.4527 7.01761 50.5784 6.89861 50.6377 6.84262C50.6442 6.82898 50.6524 6.81227 50.6611 6.79183C50.7127 6.67152 50.7724 6.49932 50.8301 6.28207C50.9472 5.84105 51.0152 5.3814 51.0391 5.1307C51.1719 3.73659 52.4104 2.71399 53.8047 2.84652C54.5353 2.91607 55.1614 3.29096 55.5752 3.8309C56.2972 3.57283 57.0751 3.43148 57.8857 3.43148C61.6756 3.43164 64.7478 6.50406 64.748 10.2938C64.748 11.3646 64.5019 12.378 64.0645 13.2811C64.5461 13.0234 65.1077 12.9204 65.667 13.0116C67.0451 11.334 68.7268 9.51008 70.2314 7.92953C71.4047 6.6971 72.518 5.5629 73.377 4.69125C73.7907 4.27134 74.139 3.91848 74.4121 3.63949L74.4111 3.63754C74.3525 3.3724 74.2547 2.87452 74.3096 2.29672L74.3252 2.16683C74.5197 0.839312 75.7244 -0.116889 77.0752 0.0115614ZM22.1895 3.44808C23.214 3.31563 23.9573 3.81522 24.3193 4.18148C24.6393 4.50521 24.7908 4.83408 24.8447 4.95883C24.9126 5.1159 24.9503 5.2483 24.9697 5.32211C25.0335 5.56431 25.0468 5.77098 25.0479 5.78402C25.0613 5.94997 25.0605 6.15801 25.0605 6.26644C25.0605 6.56984 25.0079 6.86104 24.9102 7.1307C24.8634 7.4426 24.796 7.83801 24.6982 8.22543C24.6205 8.53347 24.4104 9.34944 23.8604 9.99691C23.8576 10.0003 23.8282 10.037 23.7598 10.1258C23.6927 10.2129 23.6056 10.3288 23.499 10.4715C23.2861 10.7568 23.0083 11.1344 22.6816 11.5838C22.0291 12.4816 21.1923 13.649 20.3037 14.9041C19.3601 16.2369 18.3686 17.6549 17.4814 18.9461C17.9933 19.3395 18.4915 19.7512 18.9551 20.162C20.4779 21.5111 22.0375 23.1785 22.8906 24.6512C23.8779 26.3556 25.2004 30.1555 26.2051 33.4608C26.7251 35.1717 27.1937 36.8619 27.5234 38.243C27.6877 38.9309 27.8242 39.5715 27.915 40.1131C27.9885 40.5512 28.0896 41.2305 28.0205 41.8289C27.9292 42.6189 27.5312 43.31 27.3232 43.6561C27.0526 44.1065 26.7105 44.5881 26.3555 45.0575C25.6433 45.999 24.727 47.0912 23.8652 48.1151C22.9788 49.1683 22.1488 50.1511 21.5244 50.9598C21.2327 51.3376 21.0197 51.6355 20.8799 51.8534C20.8823 51.8733 20.8844 51.895 20.8877 51.9178C20.9167 52.1189 20.9704 52.3597 21.0449 52.6161C21.1187 52.8697 21.2035 53.109 21.2822 53.3016C21.3698 53.516 21.4186 53.5969 21.4033 53.5721C22.1366 54.7655 21.7637 56.3281 20.5703 57.0614C19.3771 57.7943 17.8154 57.4213 17.082 56.2284C16.7418 55.6746 16.4046 54.8257 16.1738 54.0321C16.1526 53.9592 16.1319 53.8823 16.1104 53.8026C15.6998 54.6878 14.795 55.2936 13.7568 55.2723C12.8579 55.2538 11.9512 54.8987 11.248 54.3094C10.4865 53.671 9.84386 52.6454 9.84375 51.3202C9.84375 50.6545 10.0875 50.1306 10.1846 49.9305C10.3159 49.6599 10.4728 49.4095 10.6143 49.202C10.9006 48.782 11.2708 48.3208 11.6582 47.8661C12.442 46.946 13.4737 45.8468 14.4951 44.7811C15.4204 43.8157 16.6834 42.5222 17.4229 41.7518C17.8479 41.3089 18.2118 40.9242 18.4951 40.6131C18.6364 40.458 18.7495 40.3301 18.8359 40.2284C18.8787 40.178 18.9117 40.1382 18.9355 40.1082C18.9555 40.0832 18.9649 40.0698 18.9668 40.0672C19.3382 39.5455 19.9892 38.5765 20.5381 37.5692C20.8126 37.0654 21.038 36.5942 21.1904 36.1932C21.3569 35.755 21.3712 35.5686 21.3711 35.5809C21.3732 35.4323 21.3885 35.2866 21.415 35.1454C21.394 35.0755 21.3729 35.0054 21.3516 34.9354C20.3161 31.529 19.1458 28.3047 18.502 27.1932C18.0501 26.4133 16.9599 25.17 15.5918 23.9579C15.2866 23.6875 14.9851 23.4373 14.6953 23.2059C14.2392 24.0027 14.0948 24.4204 14 24.8944C13.9178 25.3056 13.8652 25.816 13.8047 26.6717C13.7469 27.4891 13.683 28.6119 13.5654 30.0448C13.3258 32.9654 12.7207 35.1458 11.9736 36.8641C11.2336 38.5663 10.3761 39.7454 9.84961 40.5164C9.05983 41.6731 7.48195 41.9711 6.3252 41.1815C5.16849 40.3917 4.87139 38.8138 5.66113 37.6571C6.24381 36.8037 6.80807 36.0243 7.32227 34.8416C7.82948 33.6749 8.31175 32.0428 8.50977 29.6297C8.62468 28.2294 8.68136 27.2157 8.74512 26.3133C8.80614 25.4497 8.87505 24.6559 9.02637 23.8993C9.3081 22.4907 9.84272 21.3902 10.7041 19.992C10.5454 19.4785 10.5462 18.9115 10.7461 18.369C9.59764 19.2941 8.13107 19.8426 6.56445 19.8426C3.03027 19.8426 0.00017312 17.0596 0 13.4276C0 9.79538 3.03016 7.01254 6.56445 7.01254C10.0987 7.01262 13.1289 9.79544 13.1289 13.4276C13.1288 14.7441 12.7287 15.9478 12.0527 16.9491C12.3055 16.831 12.5772 16.7555 12.8574 16.7254C13.8784 15.2284 15.0637 13.5277 16.1641 11.9735C17.6888 9.81989 19.1558 7.78751 19.7793 6.98226C19.8265 6.79459 19.8712 6.54469 19.9092 6.27816C19.9264 6.15714 19.9857 5.68761 20.0039 5.57992C20.0092 5.54866 20.0228 5.4694 20.0459 5.37484C20.0567 5.33057 20.0807 5.23349 20.123 5.11508C20.1316 5.09126 20.2639 4.68077 20.6123 4.28598C20.7898 4.08479 21.3067 3.56232 22.1895 3.44808ZM15.6553 50.9989C15.7103 51.0574 15.7631 51.118 15.8125 51.1815C15.8178 51.1209 15.8234 51.0602 15.8311 50.9998C15.842 50.9139 15.8581 50.8291 15.876 50.7459C15.8001 50.8319 15.7264 50.9167 15.6553 50.9989ZM31.4805 12.0848C30.4095 12.085 29.541 12.9533 29.541 14.0243C29.5412 15.0951 30.4096 15.9635 31.4805 15.9637C32.5515 15.9637 33.4198 15.0952 33.4199 14.0243C33.4199 12.9532 32.5516 12.0848 31.4805 12.0848ZM6.56445 12.0848C5.64944 12.0848 5.07227 12.7754 5.07227 13.4276C5.07245 14.0796 5.64959 14.7704 6.56445 14.7704C7.47922 14.7703 8.05646 14.0796 8.05664 13.4276C8.05664 12.7755 7.47937 12.0849 6.56445 12.0848ZM57.8857 8.50375C56.8971 8.50375 56.0949 9.30527 56.0947 10.2938C56.0947 11.2825 56.897 12.0848 57.8857 12.0848C58.8743 12.0846 59.6758 11.2824 59.6758 10.2938C59.6756 9.30537 58.8742 8.50391 57.8857 8.50375Z" fill="currentColor"/>
</svg>
