<svg width="30" height="48" viewBox="0 0 30 48" fill="none" xmlns="http://www.w3.org/2000/svg">
<path d="M3.14359 3.36719C4.15592 2.63095 5.57326 2.85397 6.30961 3.86621C9.01011 7.57905 10.6417 11.9024 11.545 16.3525C15.1262 14.9061 19.2132 13.7214 23.2227 13.5254C23.8906 13.4928 24.5391 13.7572 24.9942 14.2471C25.4491 14.7369 25.6646 15.4029 25.583 16.0664C24.8036 22.4034 20.3976 37.3798 8.75785 47.4473C7.9881 48.113 6.86931 48.1841 6.02152 47.6211C5.17385 47.058 4.80516 45.9989 5.12016 45.0312C6.43152 41.0028 7.89578 34.1385 7.95512 26.8379C7.96521 25.5952 7.93388 24.3488 7.85649 23.1094C6.04761 24.0949 4.56671 25.037 3.58598 25.7393C2.56819 26.4679 1.15265 26.2335 0.423868 25.2158C-0.304949 24.198 -0.0704955 22.7825 0.947305 22.0537C2.37508 21.0313 4.60616 19.6422 7.29691 18.2832C6.54137 13.9576 5.08257 9.88658 2.64359 6.5332C1.90725 5.52082 2.13121 4.10354 3.14359 3.36719ZM20.5713 18.3828C17.7577 18.8745 14.8854 19.8362 12.2334 20.9775C12.4291 22.9647 12.504 24.9443 12.4883 26.874C12.4565 30.7904 12.0494 34.584 11.4707 37.9502C16.697 31.1148 19.4481 23.4065 20.5713 18.3828ZM23.333 0C26.9412 7.3759e-05 29.8662 2.925 29.8663 6.5332C29.8663 10.1414 26.9412 13.0663 23.333 13.0664C19.7248 13.0664 16.7998 10.1415 16.7998 6.5332C16.7999 2.92496 19.7248 0 23.333 0ZM23.333 4.5332C22.2285 4.5332 21.3331 5.42865 21.333 6.5332C21.333 7.63778 22.2285 8.5332 23.333 8.5332C24.4376 8.53313 25.333 7.63773 25.333 6.5332C25.333 5.4287 24.4375 4.53328 23.333 4.5332Z" fill="currentColor"/>
</svg>
