<svg width="61" height="72" viewBox="0 0 61 72" fill="none" xmlns="http://www.w3.org/2000/svg">
<path fill-rule="evenodd" clip-rule="evenodd" d="M33.4779 0C36.7254 0 39.3587 2.6325 39.3588 5.87988C39.3588 7.57703 38.6378 9.10446 37.4877 10.1777C38.3123 10.3794 38.8697 10.9374 39.1537 11.2598C39.5251 11.6813 39.8471 12.1892 40.1195 12.6807C40.6555 13.6476 41.1594 14.8478 41.5873 15.9863C41.5987 15.9677 41.6102 15.9492 41.6215 15.9307C41.9954 15.319 42.3634 14.7572 42.7104 14.29C43.029 13.861 43.4318 13.3699 43.8891 13.0234L43.9848 12.9561C44.2117 12.8038 44.4675 12.6982 44.7367 12.6465C45.3762 12.5238 46.1688 12.376 47.016 12.2236C47.0145 12.1932 47.0162 12.1629 47.016 12.1328C44.2992 11.6139 42.2456 9.22823 42.2455 6.36035C42.2455 3.11294 44.8779 0.48048 48.1254 0.480469C51.3729 0.480469 54.0053 3.11293 54.0053 6.36035C54.0052 8.56615 52.7896 10.4862 50.9926 11.4922C50.9997 11.5142 51.0067 11.5362 51.0131 11.5586C51.5672 11.4764 52.0808 11.4046 52.516 11.3564C52.8481 11.3197 53.1734 11.2907 53.4506 11.2822C53.5856 11.2781 53.7549 11.2772 53.9291 11.292C53.9965 11.2977 54.4641 11.3244 54.9262 11.5967C55.4356 11.8969 55.6698 12.3269 55.7348 12.4482C55.8312 12.6283 55.8901 12.795 55.9242 12.9014C55.9867 13.0964 56.0307 13.2999 56.0639 13.4766C56.5603 12.9165 57.0825 12.5328 57.4291 12.335C58.4075 11.7766 59.6537 12.1173 60.2123 13.0957C60.7706 14.0741 60.4299 15.3204 59.4516 15.8789C59.4346 15.891 59.3303 15.9624 59.1977 16.0967C59.0482 16.248 58.9238 16.4181 58.848 16.584C58.8437 16.5957 58.8116 16.6796 58.7494 16.875C58.6849 17.0778 58.6065 17.3425 58.517 17.6611C58.3383 18.2969 58.1263 19.103 57.9057 19.9736C57.4649 21.7127 56.9989 23.665 56.7045 24.9307C56.4696 25.9403 55.5147 26.6133 54.4848 26.4951C53.455 26.3768 52.6773 25.5052 52.6771 24.4688C52.677 24.461 52.6764 24.4228 52.6742 24.3389C52.6718 24.2461 52.6684 24.1177 52.6635 23.959C52.6536 23.6414 52.6388 23.2048 52.6195 22.6904C52.581 21.6611 52.5241 20.323 52.4525 18.9902C52.3841 17.7161 52.303 16.4692 52.2123 15.5068C51.7679 15.5676 51.2591 15.6432 50.7123 15.7305C50.7107 15.7307 50.709 15.7302 50.7074 15.7305C50.3142 17.3425 49.6666 18.9296 48.9232 20.4805C48.0186 22.368 46.8199 24.4888 45.6508 26.6191C45.684 26.6907 45.7143 26.765 45.7396 26.8418C46.5168 29.2005 47.4981 32.7868 48.4271 35.9238C49.9253 36.2838 51.0605 36.5526 51.5736 36.6455C51.9873 36.7204 52.5021 36.6656 53.0473 36.499C53.5897 36.3333 54.0158 36.1007 54.185 35.9873C55.1207 35.3599 56.3885 35.6102 57.016 36.5459C57.6434 37.4817 57.3932 38.7495 56.4574 39.377C55.9554 39.7135 55.1652 40.1186 54.2396 40.4014C53.3167 40.6834 52.1112 40.889 50.8471 40.6602C50.6162 40.6184 50.2846 40.5468 49.8725 40.4541C49.957 40.6899 50.0382 40.9168 50.1205 41.1318C50.3506 41.7328 50.5581 42.2135 50.7396 42.5693C50.9169 42.9167 51.0127 43.0303 51.0062 43.0264L50.9965 43.0176C52.5561 44.5402 54.6216 46.914 56.0424 50.5156C57.4661 54.1249 58.193 58.8417 57.2699 64.9834C57.1022 66.0973 56.0636 66.8647 54.9496 66.6973C53.8357 66.5297 53.0686 65.4909 53.2357 64.377C54.0621 58.8787 53.3841 54.8941 52.2475 52.0127C51.108 49.1244 49.4577 47.2173 48.1469 45.9375C47.6965 45.4978 47.3573 44.9165 47.1059 44.4238C46.8332 43.8895 46.5668 43.2618 46.31 42.5908C45.945 41.6374 45.5725 40.5258 45.2016 39.3467C44.394 39.1525 43.5525 38.9493 42.7084 38.75C41.9794 38.5779 41.2469 38.409 40.5268 38.2441C39.4666 41.9988 38.9904 46.1238 39.6234 50.7656C42.1041 54.2743 45.9341 60.919 47.4965 69.5986C47.696 70.7073 46.9587 71.7681 45.85 71.9678C44.7411 72.1674 43.6805 71.4301 43.4809 70.3213C42.0167 62.1872 38.3638 56.0334 36.2201 53.0205C36.0838 52.8805 35.9676 52.7205 35.8754 52.5439C35.6517 52.2412 35.4524 51.9785 35.2787 51.7607C34.8768 51.9567 34.3713 52.2413 33.7904 52.6006C32.2726 53.5392 30.5347 54.8003 29.3979 55.6777C28.9037 56.0591 28.2622 56.1934 27.6566 56.042C27.4403 55.9879 27.2367 55.8986 27.0531 55.7812C24.3329 56.026 21.594 56.7686 19.3588 57.6123C18.786 57.8285 18.2541 58.0497 17.7709 58.2656C18.2612 58.4146 18.7872 58.5681 19.3334 58.7236C20.7355 59.1228 22.2745 59.5391 23.4262 59.8984C23.9983 60.0769 24.5569 60.2657 24.9955 60.457C25.2042 60.548 25.4792 60.679 25.7338 60.8564C25.8599 60.9444 26.0557 61.0955 26.2406 61.3184C26.4057 61.5173 26.6782 61.9149 26.7377 62.4854L26.7465 62.6016L26.7494 62.6797C26.7644 63.483 26.3898 64.1158 26.1996 64.4072C25.955 64.7819 25.6531 65.1228 25.3822 65.3994C24.8342 65.959 24.1983 66.4728 23.7719 66.7842C22.8621 67.4484 21.5858 67.2493 20.9213 66.3398C20.2687 65.4462 20.449 64.1991 21.3178 63.5254C20.3948 63.2563 19.3252 62.9632 18.2162 62.6475C16.7822 62.2392 15.27 61.7886 14.1684 61.3467C13.6528 61.1399 13.0379 60.8625 12.5658 60.498C12.3502 60.3316 11.9222 59.9678 11.6869 59.3701C11.5547 59.0342 11.482 58.6173 11.559 58.1611C11.6354 57.7085 11.8372 57.3463 12.0561 57.082C12.2006 56.9076 12.3751 56.7374 12.5697 56.5723C11.9811 56.4195 11.4658 56.0089 11.2064 55.4072C10.7606 54.3726 11.2382 53.1725 12.2729 52.7266L13.0033 52.4111C13.9887 50.1665 15.6533 46.3767 16.3734 44.7471C16.8182 43.7407 17.5728 41.3648 18.3012 39.0479C18.3809 38.7943 18.4598 38.5428 18.5375 38.2959C18.5255 38.2477 18.5139 38.1991 18.5053 38.1494C18.1822 36.2921 17.6873 34.6007 17.099 33.2012C16.9403 33.411 16.7773 33.6396 16.6117 33.8877C15.9098 34.939 15.2414 36.1982 14.6361 37.4941C13.4254 40.0863 12.5471 42.6495 12.1918 43.6611C11.6306 45.2592 7.91126 55.906 6.12051 61.0322C5.74897 62.0958 4.58548 62.6566 3.52187 62.2852C2.45823 61.9136 1.89646 60.7501 2.26797 59.6865C4.05762 54.5634 7.77915 43.9129 8.34219 42.3096C8.68925 41.3213 9.62961 38.5718 10.9389 35.7686C11.5936 34.3668 12.3606 32.9065 13.2182 31.6221C13.2634 31.5543 13.3105 31.4875 13.3568 31.4199C12.9635 31.474 12.5502 31.4155 12.1684 31.2246C11.1609 30.7206 10.7524 29.4949 11.2562 28.4873C11.3099 28.3801 11.3688 28.2448 11.4467 28.0547C11.5149 27.8881 11.6119 27.6432 11.7084 27.4238C11.8364 27.1329 12.0959 26.5472 12.5727 26.0508C11.2861 23.5348 10.6285 21.0538 10.3275 18.8965C9.11525 20.2554 7.50798 22.9949 6.8207 24.2871C6.53567 24.8228 6.02631 25.2033 5.43203 25.3262C4.83751 25.4489 4.21857 25.3011 3.74453 24.9219C3.09265 24.4003 2.60972 23.6631 2.26113 23.0303C1.89012 22.3566 1.56152 21.5949 1.28066 20.8525C0.718593 19.3669 0.284764 17.7924 0.0521467 16.7793C-0.199936 15.6812 0.486295 14.5861 1.58437 14.334C2.68238 14.082 3.77653 14.7683 4.02871 15.8662C4.22164 16.7065 4.58493 18.0235 5.0414 19.2578C5.77233 18.1093 6.60089 16.9242 7.37148 16.0801C8.15927 15.2172 9.21165 14.3002 10.2611 13.5293C10.34 13.2228 10.4852 12.9462 10.682 12.7158C8.25139 11.9941 6.47804 9.74489 6.47793 7.08008C6.47793 3.83277 9.11043 1.20037 12.3578 1.2002C15.6053 1.2002 18.2387 3.83266 18.2387 7.08008C18.2386 9.01577 17.3023 10.7323 15.8588 11.8037C15.9093 11.8297 15.9598 11.858 16.0102 11.8887L16.0727 11.9277L16.1879 12.0068C16.4566 12.2017 16.7198 12.4571 16.8998 12.6357C17.1546 12.8886 17.4515 13.2022 17.767 13.5459C18.4003 14.2358 19.1529 15.098 19.8725 15.9541C20.5902 16.808 21.2942 17.6778 21.8236 18.3818C22.0849 18.7294 22.3268 19.0669 22.5102 19.3555C22.5992 19.4955 22.7007 19.6659 22.7865 19.8438C22.8102 19.8927 22.8378 19.9549 22.8666 20.0264C22.9748 19.7784 23.0817 19.5317 23.1898 19.2881C23.8832 17.7263 24.5783 16.2472 25.2016 15.0234C25.8021 13.8442 26.401 12.7714 26.9018 12.1162C27.1957 11.7317 27.6172 11.464 28.0902 11.3613C28.7097 11.2269 29.5211 11.0606 30.4047 10.8926C28.7213 9.85821 27.598 8.00049 27.598 5.87988C27.5981 2.63265 30.2306 0.000236199 33.4779 0ZM25.4252 36.9775C24.6319 37.0458 23.9239 37.1187 23.3627 37.1836C23.2972 37.1912 23.2341 37.1997 23.1732 37.207C23.1594 37.2483 23.1449 37.2911 23.1303 37.335C22.8757 38.0993 22.5504 39.1371 22.1937 40.2715C21.5064 42.4581 20.6679 45.1247 20.1059 46.3965C19.359 48.0866 17.589 52.1148 16.6234 54.3145C17.0355 54.1392 17.468 53.9656 17.9174 53.7959C20.1151 52.9663 22.8071 52.1998 25.6078 51.8369C25.4827 51.0329 25.3455 50.0334 25.2016 48.8057C24.8577 45.8718 25.12 40.7944 25.4252 36.9775ZM33.4057 36.8408C32.3355 36.72 30.9684 36.7008 29.5395 36.7393C29.2243 40.5058 28.9389 45.6402 29.2543 48.3311C29.3538 49.1801 29.4493 49.9057 29.5375 50.5215C30.2313 50.0393 30.9534 49.5585 31.6449 49.1309C32.4728 48.6189 33.3347 48.1345 34.0863 47.8252C34.4246 47.686 34.8377 47.5414 35.2699 47.4736C35.1782 43.8078 35.6854 40.4548 36.5336 37.375C35.2719 37.121 34.186 36.9289 33.4057 36.8408ZM42.9799 31.792C42.587 32.6311 42.2097 33.4877 41.8578 34.3643C42.4585 34.5028 43.0582 34.6405 43.6459 34.7793C43.715 34.7956 43.7841 34.8128 43.8529 34.8291C43.5522 33.7863 43.261 32.7618 42.9799 31.792ZM46.1303 16.5342C46.0881 16.5872 46.04 16.6497 45.9857 16.7227C45.7393 17.0545 45.4426 17.5031 45.1029 18.0586C44.5309 18.9943 43.8816 20.1633 43.2025 21.4492C43.203 21.5307 43.1995 21.6397 43.182 21.7617C43.0891 22.4107 42.7076 22.8161 42.6801 22.8477C42.5713 22.9727 42.4661 23.0657 42.4066 23.1162C42.3693 23.1479 42.3293 23.1766 42.2914 23.2061C40.8363 26.0677 39.3961 29.1277 38.4584 31.2002C37.994 32.2264 36.7856 32.6827 35.7592 32.2188C34.7327 31.7543 34.2762 30.545 34.7406 29.5186C35.0959 28.7333 35.5247 27.8101 35.9965 26.8076C35.6881 26.9676 35.425 27.1006 35.2855 27.1562C34.9406 27.2938 34.6153 27.3235 34.3383 27.3066C34.4843 27.8194 34.5639 28.3604 34.5639 28.9199C34.5638 30.3703 34.037 31.6964 33.1664 32.7217C33.4055 32.7399 33.6381 32.7608 33.8627 32.7861C34.8754 32.9005 36.2685 33.1538 37.8256 33.4746C38.6741 31.2696 39.6568 29.2173 40.6537 27.3008C42.3938 23.9556 43.9713 21.3713 45.2436 18.7168C45.6145 17.9428 45.9311 17.2134 46.1908 16.5225C46.1706 16.5263 46.1503 16.5304 46.1303 16.5342ZM23.0199 30.5C22.4977 31.0984 21.6504 31.3612 20.848 31.0986C20.7542 31.0679 20.6646 31.0288 20.5785 30.9863C20.9183 31.7233 21.2261 32.5063 21.4965 33.3213C21.6017 33.302 21.7241 33.2835 21.8529 33.2646C22.1216 33.2252 22.4768 33.1791 22.8939 33.1309C23.3336 33.08 23.8521 33.0254 24.4252 32.9717C23.7711 32.2845 23.2817 31.4401 23.0199 30.5ZM28.684 27.1201C27.6898 27.1201 26.8842 27.9258 26.8842 28.9199C26.8842 29.914 27.6899 30.7197 28.684 30.7197C29.678 30.7197 30.4837 29.9139 30.4838 28.9199C30.4838 27.9258 29.6781 27.1202 28.684 27.1201ZM21.3803 23.5703C20.7488 24.1973 19.9333 24.9613 19.1215 25.7031C18.7039 26.0847 18.2745 26.4706 17.8627 26.8389C18.0812 27.1291 18.3112 27.4187 18.5551 27.7051C18.8719 28.0772 19.1702 28.4879 19.4555 28.9277C19.471 28.7933 19.4996 28.658 19.5434 28.5244C20.0152 27.084 20.6625 25.3561 21.3803 23.5703ZM28.4496 17.6514C27.969 18.6309 27.4473 19.7542 26.9193 20.9434C26.4949 21.8995 26.0711 22.8905 25.6635 23.874C25.8569 23.758 26.058 23.6541 26.265 23.5605C26.4036 23.019 26.6686 22.2707 26.9379 21.541C27.3045 20.5477 27.7857 19.3116 28.3061 18.0088C28.3534 17.8902 28.4016 17.7711 28.4496 17.6514ZM36.2504 14.165C36.062 14.1725 35.833 14.1881 35.5668 14.2139C35.1601 14.2533 34.6959 14.3145 34.1967 14.3867C33.5332 15.9756 32.7758 17.8183 32.0951 19.5225C31.5805 20.811 31.1135 22.0088 30.765 22.9531C30.7117 23.0976 30.6624 23.2354 30.6156 23.3652C30.6485 23.3767 30.6816 23.3874 30.7143 23.3994C30.7534 23.2414 30.8106 23.085 30.89 22.9346C31.3999 21.9695 32.5745 21.5819 33.5531 22.0371L33.6469 22.084L33.7895 22.1631C34.113 22.3529 34.3845 22.5752 34.5766 22.7432C34.6239 22.7846 34.6714 22.8274 34.7182 22.8701C34.7372 22.86 34.7572 22.8503 34.7768 22.8398C35.4045 22.5052 36.2059 22.0698 36.9955 21.6309C37.6614 21.2607 38.3073 20.8938 38.8295 20.5859C38.8223 20.5617 38.8154 20.5365 38.808 20.5117C38.5591 19.6786 38.2048 18.5895 37.8012 17.5078C37.3919 16.4112 36.9569 15.3903 36.5512 14.6582C36.4347 14.4481 36.3333 14.2859 36.2504 14.165ZM14.1889 15.8477C14.1942 17.7699 14.5247 20.4453 15.7562 23.2451C15.959 23.0619 16.1656 22.8777 16.3695 22.6914C17.1508 21.9775 17.9022 21.2731 18.4691 20.7119C18.0095 20.1077 17.3975 19.3501 16.7494 18.5791C16.0586 17.7573 15.3455 16.9413 14.7611 16.3047C14.5859 16.1137 14.4258 15.9429 14.2846 15.7959C14.2532 15.8117 14.222 15.8302 14.1889 15.8477ZM12.3578 5.28027C11.3638 5.28045 10.558 6.08608 10.558 7.08008C10.5581 8.07396 11.3639 8.87971 12.3578 8.87988C13.3519 8.87988 14.1585 8.07407 14.1586 7.08008C14.1586 6.08597 13.352 5.28027 12.3578 5.28027ZM48.1254 4.56055C47.1313 4.56056 46.3256 5.36625 46.3256 6.36035C46.3257 7.35433 47.1313 8.16014 48.1254 8.16016C49.1194 8.16016 49.925 7.35433 49.9252 6.36035C49.9252 5.36624 49.1195 4.56055 48.1254 4.56055ZM33.4779 4.08008C32.484 4.08031 31.6782 4.88596 31.6781 5.87988C31.6781 6.87385 32.484 7.67945 33.4779 7.67969C34.4721 7.67969 35.2787 6.87399 35.2787 5.87988C35.2787 4.88582 34.472 4.08008 33.4779 4.08008Z" fill="#F9F4EC"/>
</svg>
