<svg width="274" height="19" viewBox="0 0 274 19" fill="none" xmlns="http://www.w3.org/2000/svg">
<path d="M2.3847 18.3084V15.2057H6.97462C8.13706 15.2057 9.15419 14.9664 10.026 14.4877C10.8978 13.992 11.5731 13.2996 12.0517 12.4107C12.5475 11.5218 12.7954 10.4705 12.7954 9.25676C12.7954 8.07723 12.5475 7.05155 12.0517 6.17972C11.556 5.2908 10.8722 4.60701 10.0004 4.12836C9.12855 3.63262 8.11996 3.38474 6.97462 3.38474H2.30778V0.282063H7.0259C8.35929 0.282063 9.5901 0.504293 10.7184 0.948754C11.8637 1.39322 12.8552 2.02572 13.6928 2.84626C14.5476 3.64971 15.2057 4.59846 15.6673 5.69252C16.1459 6.78658 16.3852 7.98321 16.3852 9.2824C16.3852 10.5816 16.1459 11.7868 15.6673 12.8979C15.2057 13.992 14.5561 14.9493 13.7185 15.7698C12.8808 16.5733 11.8893 17.1972 10.744 17.6417C9.61575 18.0861 8.39348 18.3084 7.07719 18.3084H2.3847ZM0 18.3084V0.282063H3.48731V18.3084H0Z" fill="#F9F4EC"/>
<path d="M25.772 18.3084L33.0287 0.282063H35.8749L43.106 18.3084H39.3879L33.7979 3.51295H35.08L29.4132 18.3084H25.772ZM29.6183 14.9493V12.0261H39.311V14.9493H29.6183Z" fill="#F9F4EC"/>
<path d="M53.1841 18.3084V0.282063H55.6201L56.6714 3.76937V18.3084H53.1841ZM65.6461 18.3084L54.9534 4.46171L55.6201 0.282063L66.3128 14.1287L65.6461 18.3084ZM65.6461 18.3084L64.6461 14.9236V0.282063H68.159V18.3084H65.6461Z" fill="#F9F4EC"/>
<path d="M88.1229 18.5648C86.8066 18.5648 85.5843 18.334 84.4561 17.8725C83.3278 17.3938 82.3364 16.7357 81.4816 15.898C80.644 15.0433 79.9944 14.0518 79.5328 12.9236C79.0884 11.7953 78.8661 10.5816 78.8661 9.2824C78.8661 7.98321 79.0884 6.76948 79.5328 5.64124C79.9944 4.51299 80.644 3.53005 81.4816 2.69241C82.3364 1.85477 83.3193 1.19663 84.4305 0.717976C85.5587 0.239325 86.7895 0 88.1229 0C89.5589 0 90.8239 0.239325 91.9179 0.717976C93.012 1.17953 93.9778 1.82058 94.8155 2.64113L92.4564 5.00019C91.9607 4.45316 91.3538 4.02579 90.6358 3.71809C89.9178 3.41039 89.0802 3.25653 88.1229 3.25653C87.2853 3.25653 86.516 3.40184 85.8151 3.69245C85.1313 3.96596 84.533 4.37623 84.0202 4.92326C83.5073 5.4532 83.1142 6.09425 82.8407 6.84641C82.5671 7.58148 82.4304 8.39348 82.4304 9.2824C82.4304 10.1884 82.5671 11.009 82.8407 11.744C83.1142 12.4791 83.5073 13.1202 84.0202 13.6672C84.533 14.1971 85.1313 14.6074 85.8151 14.898C86.516 15.1886 87.2853 15.3339 88.1229 15.3339C89.1315 15.3339 89.9948 15.1801 90.7127 14.8724C91.4478 14.5646 92.0632 14.1287 92.559 13.5646L94.918 15.9237C94.0804 16.7613 93.106 17.4109 91.9948 17.8725C90.8837 18.334 89.593 18.5648 88.1229 18.5648Z" fill="#F9F4EC"/>
<path d="M105.291 18.3084V0.282063H108.779V18.3084H105.291ZM107.856 18.3084V15.2313H117.83V18.3084H107.856ZM107.856 10.5901V7.61567H116.933V10.5901H107.856ZM107.856 3.3591V0.282063H117.702V3.3591H107.856Z" fill="#F9F4EC"/>
<path d="M146.854 18.5648C145.401 18.5648 144.153 18.3169 143.11 17.8212C142.084 17.3254 141.153 16.5818 140.315 15.5903L142.623 13.2825C143.153 13.9834 143.768 14.5305 144.469 14.9236C145.17 15.2997 146.025 15.4878 147.033 15.4878C147.939 15.4878 148.657 15.3083 149.187 14.9493C149.734 14.5903 150.008 14.0945 150.008 13.462C150.008 12.915 149.854 12.4706 149.546 12.1287C149.239 11.7868 148.828 11.4962 148.315 11.2568C147.82 11.0175 147.264 10.8038 146.649 10.6158C146.05 10.4106 145.444 10.1799 144.828 9.92345C144.23 9.66703 143.674 9.35078 143.161 8.9747C142.666 8.58152 142.264 8.08577 141.956 7.48746C141.649 6.87205 141.495 6.10279 141.495 5.17968C141.495 4.08562 141.76 3.15396 142.29 2.3847C142.82 1.61545 143.546 1.02568 144.469 0.615407C145.392 0.205136 146.435 0 147.597 0C148.828 0 149.939 0.230778 150.931 0.692334C151.922 1.15389 152.734 1.7522 153.367 2.48727L151.059 4.79505C150.529 4.21383 149.982 3.78647 149.418 3.51295C148.871 3.23944 148.247 3.10268 147.546 3.10268C146.743 3.10268 146.11 3.25653 145.649 3.56424C145.187 3.87194 144.956 4.3164 144.956 4.89762C144.956 5.39337 145.11 5.79509 145.418 6.10279C145.726 6.4105 146.127 6.67546 146.623 6.8977C147.136 7.11993 147.691 7.33361 148.29 7.53874C148.905 7.74388 149.512 7.97466 150.11 8.23108C150.726 8.4875 151.281 8.82084 151.777 9.23112C152.29 9.64139 152.7 10.1713 153.008 10.8209C153.316 11.4534 153.469 12.2398 153.469 13.18C153.469 14.8553 152.88 16.1715 151.7 17.1288C150.521 18.0861 148.905 18.5648 146.854 18.5648Z" fill="#E9DFCD"/>
<path d="M167.906 18.3084V0.666692H171.419V18.3084H167.906ZM162.163 3.38474V0.282063H177.163V3.38474H162.163Z" fill="#E9DFCD"/>
<path d="M194.448 18.5648C193.029 18.5648 191.764 18.2571 190.653 17.6417C189.559 17.0092 188.695 16.1459 188.063 15.0518C187.43 13.9578 187.114 12.7184 187.114 11.3338V0.282063H190.601V11.4363C190.601 12.2398 190.764 12.9321 191.088 13.5133C191.43 14.0945 191.892 14.5476 192.473 14.8724C193.071 15.1801 193.73 15.3339 194.448 15.3339C195.183 15.3339 195.832 15.1801 196.396 14.8724C196.96 14.5476 197.405 14.0945 197.73 13.5133C198.072 12.9321 198.243 12.2483 198.243 11.462V0.282063H201.756V11.3594C201.756 12.7441 201.439 13.9834 200.807 15.0775C200.174 16.1545 199.311 17.0092 198.217 17.6417C197.14 18.2571 195.884 18.5648 194.448 18.5648Z" fill="#E9DFCD"/>
<path d="M215.533 18.3084V15.2057H220.123C221.285 15.2057 222.302 14.9664 223.174 14.4877C224.046 13.992 224.721 13.2996 225.2 12.4107C225.695 11.5218 225.943 10.4705 225.943 9.25676C225.943 8.07723 225.695 7.05155 225.2 6.17972C224.704 5.2908 224.02 4.60701 223.148 4.12836C222.277 3.63262 221.268 3.38474 220.123 3.38474H215.456V0.282063H220.174C221.507 0.282063 222.738 0.504293 223.866 0.948754C225.012 1.39322 226.003 2.02572 226.841 2.84626C227.696 3.64971 228.354 4.59846 228.815 5.69252C229.294 6.78658 229.533 7.98321 229.533 9.2824C229.533 10.5816 229.294 11.7868 228.815 12.8979C228.354 13.992 227.704 14.9493 226.866 15.7698C226.029 16.5733 225.037 17.1972 223.892 17.6417C222.764 18.0861 221.541 18.3084 220.225 18.3084H215.533ZM213.148 18.3084V0.282063H216.635V18.3084H213.148Z" fill="#E9DFCD"/>
<path d="M240.253 18.3084V0.282063H243.741V18.3084H240.253Z" fill="#E9DFCD"/>
<path d="M263.825 18.5904C262.509 18.5904 261.278 18.3511 260.133 17.8725C259.005 17.3938 258.013 16.7357 257.158 15.898C256.321 15.0433 255.663 14.0518 255.184 12.9236C254.705 11.7782 254.466 10.556 254.466 9.25676C254.466 7.95756 254.697 6.75239 255.158 5.64124C255.637 4.51299 256.295 3.53005 257.133 2.69241C257.988 1.83768 258.979 1.17953 260.107 0.717976C261.236 0.239325 262.458 0 263.774 0C265.107 0 266.338 0.239325 267.467 0.717976C268.595 1.17953 269.578 1.83768 270.415 2.69241C271.27 3.53005 271.937 4.51299 272.415 5.64124C272.894 6.76948 273.133 7.98321 273.133 9.2824C273.133 10.5816 272.894 11.7953 272.415 12.9236C271.937 14.0518 271.27 15.0433 270.415 15.898C269.578 16.7357 268.595 17.3938 267.467 17.8725C266.355 18.3511 265.142 18.5904 263.825 18.5904ZM263.774 15.3339C264.937 15.3339 265.945 15.0775 266.8 14.5646C267.655 14.0518 268.321 13.3424 268.8 12.4364C269.296 11.5303 269.544 10.4705 269.544 9.25676C269.544 8.36784 269.407 7.55584 269.133 6.82077C268.86 6.0857 268.467 5.4532 267.954 4.92326C267.441 4.37623 266.834 3.95741 266.133 3.6668C265.432 3.3762 264.646 3.23089 263.774 3.23089C262.646 3.23089 261.646 3.48731 260.774 4.00015C259.919 4.49589 259.244 5.19678 258.748 6.10279C258.27 7.00881 258.03 8.06013 258.03 9.25676C258.03 10.1628 258.167 10.9919 258.441 11.744C258.731 12.4962 259.124 13.1372 259.62 13.6672C260.133 14.1971 260.74 14.6074 261.441 14.898C262.159 15.1886 262.936 15.3339 263.774 15.3339Z" fill="#E9DFCD"/>
</svg>
