<svg width="35" height="72" viewBox="0 0 35 72" fill="none" xmlns="http://www.w3.org/2000/svg">
<path fill-rule="evenodd" clip-rule="evenodd" d="M2.69826 1.58491C2.98453 0.459293 4.12926 -0.220822 5.25491 0.0653744C6.3805 0.351656 7.06064 1.49638 6.77444 2.62201C6.62639 3.20417 6.40371 3.8947 6.17483 4.59662C5.9381 5.32258 5.67955 6.10496 5.42483 6.95307C4.91489 8.65097 4.44846 10.5223 4.27541 12.4033C3.9338 16.1166 4.72734 19.5854 8.42776 21.9599C9.02165 22.341 9.62326 22.7182 10.2285 23.0947C10.9443 22.4128 12.0651 22.3115 12.8994 22.9072C13.6524 23.445 13.9422 24.3873 13.6885 25.2265C16.4741 26.9369 19.2309 28.6628 21.6729 30.5331C25.7576 33.6618 29.284 37.4008 31.2852 42.6767C31.6971 43.7627 31.1504 44.9776 30.0645 45.3896C28.9785 45.8015 27.7635 45.2548 27.3516 44.1689C25.7243 39.8784 22.8367 36.7224 19.1153 33.872C16.9451 32.2098 14.5937 30.723 12.0928 29.1845C12.0607 29.3301 12.0288 29.4792 11.999 29.6318C11.6706 31.3151 11.5192 33.2587 11.5176 35.2441C11.5166 36.4818 11.5729 37.7029 11.6729 38.8554C14.3471 39.2722 16.501 40.2585 18.167 41.6572C20.0174 43.2107 21.1566 45.1779 21.7793 47.164C22.3984 49.1386 22.5204 51.1654 22.3242 52.9326C22.164 54.3762 21.7719 55.796 21.1387 56.9169C24.156 60.0085 28.303 63.7248 34.0781 68.2402C34.9928 68.9556 35.1547 70.2774 34.4395 71.1923C33.7241 72.1074 32.4014 72.2691 31.4864 71.5537C25.7956 67.1042 21.5902 63.3644 18.4414 60.1738C18.2753 60.3427 18.1112 60.5115 17.9453 60.6757C16.8965 61.7143 16.0001 62.5393 15.0508 63.5048C13.1513 65.437 12.1178 66.9151 11.9883 68.2451C11.8757 69.4009 10.8472 70.2469 9.69143 70.1347C8.5355 70.0222 7.68945 68.9937 7.80178 67.8378C8.09026 64.8743 10.1968 62.4434 12.0518 60.5566C12.9796 59.6129 14.1138 58.5505 14.9854 57.6874C15.1877 57.4871 15.3828 57.2882 15.5723 57.0937C11.5767 52.5184 9.95469 49.2253 8.91994 46.5263C7.93643 43.9609 7.30817 39.5269 7.31155 35.2402C7.31328 33.0661 7.47674 30.8423 7.87014 28.8261C7.99854 28.1681 8.15508 27.5134 8.34573 26.8779C7.62614 26.4313 6.8956 25.9744 6.15627 25.4999C0.657741 21.9717 -0.338021 16.6367 0.0869368 12.0175C0.297208 9.7323 0.852427 7.55467 1.39651 5.74311C1.66873 4.83674 1.94545 3.99934 2.1758 3.29291C2.41397 2.56253 2.59079 2.00761 2.69826 1.58491ZM12.3399 43.29C12.497 43.9686 12.6691 44.5545 12.8477 45.0205C13.6182 47.0301 14.8275 49.6567 17.9795 53.4374C18.0455 53.1458 18.1043 52.8226 18.1436 52.4687C18.2827 51.2153 18.1915 49.7812 17.7656 48.4228C17.3433 47.0758 16.6042 45.8371 15.4629 44.8788C14.686 44.2266 13.6707 43.6594 12.3399 43.29ZM15.2149 9.40229C18.9726 9.40229 22.0194 12.4483 22.0196 16.206C22.0196 19.9638 18.9727 23.0107 15.2149 23.0107C11.4571 23.0106 8.41116 19.9638 8.41116 16.206C8.4113 12.4484 11.4572 9.40237 15.2149 9.40229ZM15.2149 13.6083C13.7802 13.6084 12.6174 14.7714 12.6172 16.206C12.6172 17.6407 13.7801 18.8046 15.2149 18.8046C16.6497 18.8046 17.8125 17.6408 17.8125 16.206C17.8124 14.7713 16.6496 13.6083 15.2149 13.6083Z" fill="currentColor"/>
</svg>
