<svg width="37" height="80" viewBox="0 0 37 80" fill="none" xmlns="http://www.w3.org/2000/svg">
<path fill-rule="evenodd" clip-rule="evenodd" d="M11.529 0.520822C12.5944 -0.313004 14.1346 -0.125667 14.9684 0.939767C15.2407 1.28769 15.7553 1.66406 16.6501 2.01203C17.5344 2.35589 18.6042 2.60226 19.7868 2.80891C20.3709 2.91096 20.9549 2.99911 21.5427 3.08723C22.1184 3.17355 22.7118 3.2609 23.2604 3.35774C23.8056 3.45396 24.3701 3.57004 24.8903 3.72199C25.3841 3.86625 26 4.08807 26.5514 4.46906C27.4327 5.07806 27.8159 6.18931 27.4977 7.21223C27.1485 8.3351 26.7075 10.2551 26.2243 12.2445C25.9912 13.2041 25.7505 14.165 25.5202 14.9808C25.31 15.7252 25.0484 16.575 24.738 17.1712C24.3883 17.8426 23.7474 18.3153 23.0026 18.4505C21.337 18.7527 18.4654 19.2625 15.7223 19.8577C15.7438 20.3407 15.7865 20.8479 15.8571 21.3685C16.1339 23.409 16.8099 25.461 18.0964 27.0657C18.8968 28.0642 19.8088 28.7684 20.8649 29.4202C21.4058 29.7541 21.9639 30.062 22.5846 30.4046C23.1885 30.7379 23.8538 31.1057 24.5163 31.5169C25.8666 32.355 27.2733 33.4159 28.5407 35.0091C29.8065 36.6003 30.8509 38.6173 31.6296 41.2825C34.5054 51.1267 36.4366 59.603 36.6716 77.5179C36.6892 78.8707 35.6064 79.9826 34.2536 80.0003C32.901 80.0179 31.7899 78.935 31.7721 77.5823C31.5436 60.1496 29.6894 52.1141 26.9264 42.6566C26.2954 40.4966 25.5144 39.0742 24.7067 38.0589C24.3355 37.5922 23.9406 37.1893 23.5202 36.8265C22.8184 39.3571 21.5646 43.0381 20.1598 46.7298C18.3777 51.4134 16.2391 56.4204 14.4782 59.4427C12.2877 63.2023 9.73067 66.141 7.8532 68.3958C6.88711 69.5561 6.14858 70.4774 5.63641 71.2816C5.11371 72.1023 4.99271 72.5528 4.98016 72.7689C4.90542 74.059 4.89215 74.9381 4.90203 75.4974C4.90699 75.7778 4.91736 75.9624 4.92645 76.0687C4.92803 76.0872 4.93008 76.1026 4.93133 76.1146C5.19391 77.355 4.46034 78.6075 3.22332 78.97C1.92513 79.3503 0.564734 78.6061 0.184258 77.3079C0.0933776 76.9978 0.0606096 76.6735 0.0446095 76.4866C0.0235465 76.2405 0.00989934 75.9407 0.0035939 75.5843C-0.00904417 74.8692 0.00981933 73.8617 0.0895314 72.4857C0.173572 71.0351 0.812625 69.7361 1.50457 68.6497C2.20725 67.5465 3.13883 66.4017 4.08855 65.2611C6.04308 62.9137 8.30272 60.3092 10.2448 56.9759C11.7899 54.3239 13.8111 49.6374 15.5807 44.9866C17.3521 40.3314 18.7564 36.0147 19.154 34.1009C18.8693 33.938 18.5794 33.7674 18.2907 33.5892C17.1711 32.8981 16.0101 32.0552 14.9225 30.8822C14.2931 31.4235 13.62 31.8726 13.0407 32.2239C11.7823 32.9872 10.4652 33.582 9.60223 33.9105C8.45525 34.3468 7.16265 33.8673 6.57781 32.7884C6.09165 31.8913 5.89345 30.6989 5.78289 29.7435C5.65962 28.678 5.60263 27.4508 5.58465 26.2269C5.54861 23.7732 5.66642 21.1487 5.78582 19.471L5.79754 19.3441C5.87557 18.7131 6.1967 18.1349 6.695 17.7347C7.17812 17.3468 7.76025 17.0667 8.24285 16.8646C8.76427 16.6462 9.35887 16.4419 9.9782 16.2523C10.3183 16.1482 10.6767 16.0451 11.0485 15.9437C11.0607 15.8707 11.0739 15.7994 11.0866 15.7298C8.68047 14.6908 6.99578 12.2976 6.99578 9.51008C6.99581 6.83715 8.54486 4.52667 10.7936 3.42512C10.3589 2.4263 10.6315 1.2235 11.529 0.520822ZM4.90887 76.0169C4.90758 76.0116 4.90636 76.0058 4.90496 76.0003L4.88543 75.93C4.89386 75.9588 4.90153 75.9881 4.90887 76.0169ZM10.5876 21.2103C10.5123 22.6702 10.4583 24.4675 10.4831 26.1546C10.4927 26.8096 10.5148 27.4338 10.5495 28.0042C11.5004 27.4218 12.0367 26.9268 12.2292 26.6517C11.5757 25.0872 11.2005 23.493 11.0016 22.0277C10.9594 21.7162 10.925 21.4071 10.8971 21.1029C10.788 21.1394 10.6846 21.1754 10.5876 21.2103ZM20.3366 7.85871C20.4691 8.38742 20.5417 8.94029 20.5417 9.51008C20.5417 11.3735 19.7877 13.0599 18.57 14.2845C19.3542 14.1353 20.0896 13.9994 20.7389 13.8812C20.7606 13.8069 20.7826 13.7292 20.8054 13.6488C21.0093 12.9266 21.231 12.0415 21.4626 11.0882C21.6924 10.1422 21.9376 9.10635 22.1764 8.14387C21.7652 8.07485 21.3151 8.00677 20.8161 7.93195C20.66 7.90855 20.5 7.88354 20.3366 7.85871ZM13.7682 7.63703C12.7339 7.63729 11.8952 8.47567 11.8952 9.51008C11.8952 10.5445 12.7339 11.3829 13.7682 11.3831C14.8028 11.3831 15.6423 10.5447 15.6423 9.51008C15.6422 8.47551 14.8028 7.63703 13.7682 7.63703Z" fill="currentColor"/>
</svg>
