<svg width="51" height="80" viewBox="0 0 51 80" fill="none" xmlns="http://www.w3.org/2000/svg">
<path fill-rule="evenodd" clip-rule="evenodd" d="M0.632492 0.788488C1.53348 -0.19833 3.06425 -0.268462 4.05144 0.632238C5.84641 2.27006 9.39034 5.77028 12.6657 9.68204C13.1909 9.68221 13.7197 9.85069 14.1637 10.2016C17.9346 13.1828 26.1975 19.7879 28.3913 21.8344C29.0029 22.405 29.4833 23.0063 29.8415 23.6449C31.068 22.2407 32.8705 21.352 34.8815 21.352C38.5767 21.352 41.5727 24.3476 41.5729 28.0424C41.5729 31.7374 38.5768 34.7328 34.8815 34.7328C34.3952 34.7328 33.9213 34.68 33.4645 34.5815C34.3645 35.2586 35.6568 35.9151 37.5671 36.4174C43.7546 38.0441 48.3971 41.9267 50.0632 43.8031C50.9505 44.8026 50.8595 46.3318 49.86 47.2192C48.8605 48.1063 47.3313 48.0154 46.444 47.016C45.268 45.6915 41.4108 42.4321 36.3366 41.0981C32.3886 40.0601 29.9212 38.3245 28.3522 36.2797C27.8023 35.5629 27.3824 34.8263 27.0544 34.1283C26.9438 34.2432 26.8293 34.3637 26.7116 34.4897C26.2019 35.035 25.5631 35.743 24.9362 36.2943C24.3426 36.8164 23.3846 37.55 22.1364 37.7074C21.3363 37.8083 20.5331 37.6903 19.8874 37.5443C19.2092 37.391 18.5223 37.1638 17.8932 36.9223C17.5743 36.7998 17.259 36.6679 16.9538 36.5346C16.3332 38.403 15.8781 40.9202 16.2975 43.6527C17.1268 49.0532 19.9973 68.2878 21.3278 77.224C21.5245 78.5457 20.6124 79.777 19.2907 79.974C17.9687 80.1708 16.7367 79.2587 16.5397 77.9369C15.2083 68.9947 12.3405 49.7753 11.5134 44.3881C10.6244 38.5985 12.6297 33.589 14.0358 31.3334C14.3994 29.931 14.7564 27.6332 14.6618 25.1049C14.559 22.3601 13.9343 19.5687 12.4421 17.3578C8.93104 12.1563 3.21292 6.41938 0.788742 4.20743C-0.198527 3.30655 -0.268449 1.7757 0.632492 0.788488ZM18.8395 20.143C19.2469 21.7762 19.4418 23.4051 19.4987 24.9233C19.6023 27.69 19.2627 30.2474 18.8366 32.0756C19.0945 32.1892 19.3605 32.3011 19.6276 32.4037C20.1219 32.5935 20.5757 32.7379 20.9548 32.8236C21.1868 32.8761 21.3428 32.8949 21.4333 32.9018C21.4923 32.8623 21.5929 32.789 21.7389 32.6606C22.1372 32.3103 22.5576 31.846 23.1755 31.185C23.7806 30.5375 24.6082 29.6502 25.6452 28.8988C25.6461 28.779 25.6492 28.6625 25.654 28.5502C25.669 28.1993 25.7017 27.862 25.7262 27.5981C25.7526 27.3141 25.7711 27.1052 25.779 26.9076C25.7938 26.5362 25.761 26.3408 25.7048 26.1869C25.6517 26.0419 25.5178 25.772 25.0895 25.3725C24.0867 24.4371 21.5797 22.3646 18.8395 20.143ZM34.8815 26.1918C33.8596 26.1919 33.0312 27.0206 33.0309 28.0424C33.0309 29.0644 33.8595 29.8929 34.8815 29.893C35.9036 29.893 36.7321 29.0644 36.7321 28.0424C36.7319 27.0206 35.9035 26.1918 34.8815 26.1918Z" fill="#E1CDAD"/>
</svg>
