<svg width="51" height="104" viewBox="0 0 51 104" fill="none" xmlns="http://www.w3.org/2000/svg">
<path fill-rule="evenodd" clip-rule="evenodd" d="M35.8147 0.027066C37.3116 0.237847 38.3546 1.62213 38.1438 3.11886C38.0725 3.62551 37.9956 4.18211 37.9133 4.77902C37.9705 4.95311 38.0109 5.13575 38.0325 5.32492C38.5857 10.1749 39.4006 17.5369 40.0667 24.0085C41.0848 23.4815 42.2405 23.1823 43.4661 23.1823C47.5562 23.1825 50.8721 26.4979 50.8723 30.5876C50.8723 34.6775 47.5563 37.9938 43.4661 37.9939C42.6798 37.9939 41.9222 37.8703 41.2112 37.6433C41.2084 37.7402 41.2073 37.8316 41.2005 37.9148C41.1371 38.688 40.8553 39.4445 40.6262 39.9939C40.3723 40.6029 40.041 41.2816 39.6936 41.9714C39.5951 42.1672 39.493 42.3656 39.3899 42.5681C39.6909 42.4542 40.0168 42.3894 40.3577 42.3894C40.5162 42.3894 40.8906 42.3997 41.3284 42.5593C41.7939 42.729 42.6276 43.1946 42.9925 44.2497C43.3265 45.216 43.0272 46.0137 42.8821 46.3239C42.7215 46.6674 42.5263 46.902 42.4319 47.0085C42.1068 47.3752 41.7178 47.6153 41.6096 47.6833C41.2331 47.9201 40.7421 48.1707 40.2395 48.3903C39.7276 48.6141 39.112 48.8461 38.4778 49.0134C37.9144 49.162 37.1083 49.3196 36.2737 49.238C35.0552 52.3654 34.1633 55.7982 34.3069 59.2673C34.3755 60.9232 34.3986 63.2047 34.386 65.8786C34.4591 66.0156 34.5323 66.1545 34.6048 66.2956C37.2908 71.5265 39.5299 79.5344 39.926 92.4851C39.9722 93.9958 38.7845 95.2581 37.2737 95.3044C35.7629 95.3506 34.5008 94.1636 34.4544 92.653C34.3649 89.7274 34.1756 87.0942 33.9133 84.7224C33.6476 91.1553 33.2902 97.322 32.8831 101.526C32.7374 103.03 31.4002 104.132 29.8958 103.987C28.3912 103.841 27.2892 102.503 27.4348 100.999C28.2092 93.0017 28.806 77.6383 28.9016 67.3025C27.9497 65.7303 27.0037 64.6029 26.1175 63.6911C25.5516 64.5414 24.8522 65.6729 24.0442 67.0417C22.3387 69.9312 20.2173 73.759 17.9573 77.9519C13.4408 86.3309 8.42235 96.0775 5.18093 102.496C4.49957 103.845 2.85349 104.387 1.50417 103.706C0.154915 103.024 -0.386954 101.378 0.29421 100.029C3.54909 93.584 8.59075 83.7902 13.138 75.3542C15.4097 71.1397 17.5713 67.2406 19.3303 64.2605C20.208 62.7735 21.0025 61.4847 21.6721 60.49C22.0061 59.9938 22.3283 59.5429 22.6272 59.1648C22.6946 59.0796 22.7683 58.9877 22.8479 58.8933C23.1206 57.4981 23.4072 55.6955 23.6438 53.6569C21.6187 52.9562 19.7251 52.8987 18.3362 52.9177C17.9522 53.8449 17.4778 55.2274 16.9954 56.8982C16.0236 60.2642 15.0974 64.5308 14.805 68.1755C14.6841 69.6822 13.3645 70.8061 11.8577 70.6853C10.3511 70.5642 9.22802 69.2445 9.3489 67.738C9.68 63.6118 10.7011 58.9662 11.7366 55.3796C12.2551 53.5837 12.7966 51.9852 13.2874 50.8034C13.5264 50.2278 13.7911 49.659 14.0735 49.197C14.2071 48.9784 14.4173 48.6629 14.7083 48.3708C14.8664 48.2121 15.7028 47.367 17.0462 47.4704C16.9754 47.465 16.9902 47.4691 17.4134 47.4519C17.5314 47.4471 17.6663 47.4423 17.8157 47.4372C17.161 46.7422 16.8875 45.7256 17.1907 44.7487C17.596 43.4431 18.4574 42.312 19.1702 41.5349C18.9249 41.241 18.5025 40.6604 18.3821 39.8396C18.2311 38.8096 18.5748 37.9515 18.8421 37.445C19.128 36.9033 19.505 36.4284 19.8548 36.0417C20.0734 35.8 20.312 35.5613 20.5618 35.3269C16.94 34.7629 14.1683 31.6309 14.1682 27.8513C14.1682 23.6724 17.5564 20.2849 21.7356 20.2849C25.453 20.2849 28.5411 22.9655 29.179 26.4987C29.2695 26.2616 29.342 26.0516 29.3899 25.8777C29.3915 25.8711 29.3958 25.8516 29.4036 25.8161C29.4147 25.7657 29.4294 25.6973 29.4466 25.6091C29.4811 25.4315 29.5231 25.1988 29.5716 24.9118C29.6683 24.3386 29.7846 23.588 29.9173 22.698C30.1822 20.9199 30.5038 18.6292 30.8411 16.1716C31.5128 11.2774 32.2518 5.70022 32.7229 2.35519C32.9337 0.858539 34.3179 -0.183613 35.8147 0.027066ZM28.718 57.0329C28.6477 57.5013 28.5767 57.9514 28.5042 58.3806C28.6052 58.4735 28.7108 58.57 28.8196 58.6716C28.8165 58.1711 28.8284 57.6742 28.8557 57.1814C28.8105 57.1309 28.7635 57.0822 28.718 57.0329ZM29.6018 47.0573C29.5922 47.4394 29.581 47.8185 29.5657 48.1941C29.5341 48.9693 29.4895 49.7353 29.4368 50.487C29.6104 50.6027 29.7834 50.723 29.9563 50.8474C30.2757 49.7204 30.6432 48.6375 31.0335 47.6101C30.5701 47.4351 30.0903 47.2502 29.6018 47.0573ZM23.886 44.5827C23.6993 44.738 23.48 44.9395 23.263 45.1706C22.7433 45.7239 22.4799 46.1763 22.4192 46.3718C22.266 46.8649 21.983 47.2804 21.6233 47.6003C21.9791 47.647 22.3479 47.7046 22.7268 47.7761C23.1686 47.8594 23.6241 47.9618 24.0901 48.0857C24.0917 48.0476 24.0944 48.0095 24.096 47.9714C24.1402 46.8843 24.1581 45.7911 24.1467 44.7068C24.0594 44.6651 23.9722 44.6244 23.886 44.5827ZM34.0266 41.0388C33.1271 41.2705 32.1922 41.5374 31.26 41.8249C31.9461 42.0988 32.616 42.3594 33.2473 42.5954C33.5173 42.0467 33.7793 41.525 34.0266 41.0388ZM34.8264 26.6042C34.7683 26.9057 34.7169 27.153 34.6682 27.3298C34.2893 28.707 33.4187 30.5527 32.5501 32.0583C32.1039 32.8316 31.6082 33.6021 31.1096 34.2439C30.8611 34.5638 30.5811 34.893 30.2766 35.1853C30.0041 35.4468 29.5587 35.8296 28.969 36.0818C28.9638 36.0841 28.9321 36.099 28.8684 36.1316C28.8564 36.1377 28.8436 36.1442 28.8303 36.1511C28.8733 36.37 28.9144 36.5901 28.9534 36.8112C31.059 36.1409 33.447 35.4692 35.6126 35.0827C35.5751 34.5913 35.5313 34.0424 35.4798 33.4431C35.3168 31.5495 35.0871 29.1896 34.8264 26.6042ZM43.4661 28.656C42.3992 28.656 41.5337 29.5209 41.5335 30.5876C41.5335 31.6546 42.399 32.5202 43.4661 32.5202C44.533 32.5201 45.3977 31.6545 45.3977 30.5876C45.3975 29.521 44.5329 28.6561 43.4661 28.656ZM21.7356 25.7585C20.5797 25.7585 19.6428 26.6954 19.6428 27.8513C19.6429 29.0071 20.5797 29.9441 21.7356 29.9441C22.8915 29.944 23.8284 29.0071 23.8284 27.8513C23.8284 26.6954 22.8916 25.7585 21.7356 25.7585Z" fill="currentColor"/>
</svg>
