<svg width="39" height="72" viewBox="0 0 39 72" fill="none" xmlns="http://www.w3.org/2000/svg">
<path fill-rule="evenodd" clip-rule="evenodd" d="M23.0164 1.11686C23.611 0.061499 24.9492 -0.311718 26.0046 0.282876C27.8461 1.32043 31.9642 4.39278 34.5476 8.89909C35.0336 9.74689 34.9003 10.8143 34.2205 11.5163C32.9514 12.8265 30.8033 14.8735 28.4275 16.8151C26.9231 18.0445 25.2482 19.2959 23.6003 20.2887C24.7046 21.9297 25.4152 23.6058 25.6384 25.6833C25.8272 27.44 25.6592 29.3739 25.2722 31.6706C24.9692 33.469 24.5137 35.5783 23.9402 38.0993C27.1597 39.5832 29.9689 41.4974 32.1423 43.2604C33.4384 44.3117 34.5279 45.3239 35.363 46.1833C36.1608 47.0042 36.8259 47.7862 37.1824 48.3717C37.3898 48.7125 37.4967 49.0673 37.5525 49.2692C37.6196 49.512 37.6752 49.7752 37.7214 50.0358C37.8142 50.5593 37.894 51.2009 37.9656 51.9049C38.1094 53.3203 38.2314 55.1281 38.3318 57.0505C38.533 60.9029 38.6569 65.3224 38.7097 68.2174C38.7318 69.4286 37.7675 70.4286 36.5564 70.4508C35.3452 70.4729 34.3451 69.5087 34.323 68.2975C34.2708 65.4329 34.1477 61.0658 33.95 57.279C33.8509 55.3821 33.7344 53.6575 33.6013 52.3483C33.5344 51.6902 33.4666 51.1708 33.4011 50.8014C33.3798 50.6813 33.3607 50.5902 33.3455 50.5241C33.1785 50.2974 32.8166 49.8574 32.2175 49.2409C31.5056 48.5083 30.5435 47.6125 29.3787 46.6676C27.4139 45.0739 24.9236 43.3845 22.1296 42.0934C20.4805 43.7669 18.2709 46.0261 16.2791 48.1061C15.127 49.3092 14.0541 50.4449 13.2058 51.3688C12.3196 52.3341 11.7749 52.9661 11.5964 53.2145C11.6207 53.1807 11.5152 53.3468 11.3093 53.9108C11.1278 54.4083 10.922 55.0615 10.697 55.8415C10.2478 57.3991 9.7561 59.3459 9.26929 61.3337C8.78782 63.2996 8.30646 65.3234 7.89331 66.9567C7.50491 68.4921 7.10627 69.9837 6.76831 70.7204C6.26304 71.8214 4.96113 72.3047 3.86011 71.7995C2.75917 71.2942 2.2759 69.9923 2.78101 68.8913C2.91061 68.6089 3.2073 67.5926 3.64038 65.8805C4.04881 64.2659 4.51582 62.3016 5.00855 60.2897C5.49593 58.2997 6.00499 56.2777 6.4812 54.6266C6.71891 53.8025 6.95704 53.0403 7.18824 52.4069C7.39506 51.8403 7.671 51.159 8.03296 50.6549C8.39495 50.1509 9.134 49.3174 9.97437 48.402C10.8527 47.4453 11.9498 46.2846 13.1111 45.0719C15.1827 42.9085 17.4812 40.5573 19.156 38.859C19.1791 38.7604 19.2073 38.6613 19.2449 38.5641C19.2907 38.4455 19.3468 38.3338 19.4099 38.2282C20.104 35.208 20.6224 32.862 20.946 30.9411C21.308 28.7927 21.4016 27.3197 21.2761 26.152C21.1325 24.8157 20.6953 23.7329 19.6687 22.3258C19.1002 22.6985 18.4992 23.173 17.8435 23.7536C16.6121 24.844 15.5596 25.9424 14.0642 27.3327C11.2605 29.9394 7.70999 32.7619 2.61792 33.7653C1.42935 33.9995 0.275985 33.2253 0.0417516 32.0368C-0.192249 30.8484 0.580981 29.6949 1.76929 29.4606C5.64568 28.6968 8.45779 26.5549 11.0769 24.1198C12.2925 22.9896 13.7165 21.5477 14.9353 20.4684C15.5336 19.9387 16.1655 19.4191 16.8357 18.9469C16.3019 18.0716 16.4421 16.9127 17.2253 16.1921C18.1169 15.3721 19.5048 15.4305 20.325 16.3219C20.4869 16.498 20.6457 16.6718 20.8015 16.8434C22.2789 16.0139 23.9737 14.7902 25.6521 13.4186C27.2297 12.1294 28.7038 10.7861 29.8435 9.68522C27.7729 6.78662 25.0273 4.76776 23.8513 4.10514C22.7959 3.51048 22.4217 2.17231 23.0164 1.11686ZM9.67749 4.12956C13.5969 4.12956 16.7742 7.30684 16.7742 11.2262C16.7741 15.1455 13.5968 18.3229 9.67749 18.3229C5.75817 18.3229 2.58092 15.1455 2.58081 11.2262C2.58081 7.30684 5.7581 4.12956 9.67749 4.12956ZM9.67749 8.51627C8.181 8.51627 6.96753 9.72974 6.96753 11.2262C6.96764 12.7226 8.18106 13.9352 9.67749 13.9352C11.1739 13.9352 12.3874 12.7226 12.3875 11.2262C12.3875 9.72974 11.174 8.51628 9.67749 8.51627Z" fill="#FFDC08"/>
</svg>
