<svg width="55" height="72" viewBox="0 0 55 72" fill="none" xmlns="http://www.w3.org/2000/svg">
<path fill-rule="evenodd" clip-rule="evenodd" d="M23.1444 0.136246C24.2552 -0.278486 25.492 0.285419 25.9071 1.39601C26.077 1.85109 26.3379 2.5715 26.5702 3.26418C26.7768 3.88046 27.0382 4.69706 27.121 5.22316C27.2013 5.73482 27.0934 6.15906 27.0389 6.34621C26.9725 6.57421 26.8842 6.7787 26.8104 6.93507C26.6624 7.24857 26.4671 7.58428 26.2801 7.89211C26.0875 8.20918 25.8613 8.56493 25.6356 8.9214C25.4051 9.28535 25.166 9.6643 24.9266 10.0581C24.4438 10.8523 23.9882 11.6618 23.6483 12.4312C23.5664 12.6166 23.4946 12.7921 23.4325 12.9575C24.0128 13.265 24.545 13.6504 25.0126 14.1011C26.2884 12.871 28.0486 12.1265 29.9393 12.1265C33.6652 12.1265 36.8864 15.0157 36.8866 18.8208C36.8866 19.3396 36.8246 19.8411 36.7118 20.3208C37.0684 20.8015 37.2243 21.4274 37.0868 22.0581C36.8353 23.2105 36.156 24.4238 35.3075 25.5259C34.8023 26.182 34.1973 26.8448 33.5077 27.4917C33.8669 27.5242 34.2674 27.5566 34.7079 27.5845C36.1628 27.6765 37.9093 27.7328 39.742 27.7622C43.4051 27.8211 47.342 27.7735 49.8446 27.7114C51.0301 27.6821 52.0154 28.6197 52.0448 29.8052C52.0741 30.9907 51.1365 31.976 49.951 32.0054C47.406 32.0685 43.4084 32.1162 39.6727 32.0562C37.8061 32.0262 35.9862 31.9686 34.4374 31.8706C32.9396 31.7759 31.5376 31.6355 30.5975 31.398C29.3598 31.0852 28.4353 30.7779 27.7235 30.5064C27.6405 30.5213 27.5578 30.5349 27.4754 30.5484C26.9194 32.2583 26.3248 34.3146 25.8114 36.3784C25.1085 39.2037 24.6202 41.8038 24.5223 43.4946C25.0792 43.9893 25.7151 44.5491 26.4071 45.1558C27.6055 44.7865 28.8748 44.4139 30.1532 44.065C31.3513 42.8159 32.5286 41.6185 33.5174 40.687C34.3807 39.8739 35.7404 39.9136 36.5536 40.7769C37.01 41.2614 37.1961 41.9024 37.12 42.5152C38.3109 42.3373 39.4108 42.2393 40.3426 42.2603C41.5282 42.287 42.4679 43.27 42.4413 44.4556C42.4146 45.6412 41.4316 46.5809 40.246 46.5542C38.5369 46.5159 35.6373 47.0732 32.4227 47.9068C31.9973 48.3551 31.5709 48.8072 31.1512 49.2544C34.2039 51.8535 37.4306 54.5217 39.7821 56.2671C42.7378 58.461 46.0218 61.0285 48.6376 63.2788C49.9415 64.4006 51.1117 65.4714 51.9999 66.3941C52.4424 66.8538 52.8462 67.3084 53.1678 67.7368C53.4324 68.0892 53.7793 68.599 53.9598 69.1861L53.993 69.3052L54.0184 69.4126C54.2516 70.5243 53.5745 71.6355 52.4637 71.9282C51.3604 72.2188 50.2319 71.5956 49.8788 70.5269C49.8612 70.4976 49.8184 70.4284 49.7333 70.315C49.5569 70.0801 49.2844 69.7656 48.9061 69.3726C48.1525 68.5897 47.0967 67.6186 45.8368 66.5347C43.3244 64.3733 40.1276 61.8717 37.2225 59.7153C34.7404 57.873 31.365 55.0808 28.2137 52.395C27.3309 53.3374 26.6254 54.0818 26.2694 54.4097C25.245 55.3531 23.9818 55.4748 22.9081 55.187C21.9524 54.9309 21.0968 54.3529 20.4002 53.773C18.9798 52.5903 17.5212 50.7983 16.244 49.0327C15.5095 48.0173 14.802 46.959 14.1551 45.9507C13.7106 46.1601 13.3238 46.4071 12.9754 46.6753C11.422 47.8713 10.3856 49.634 8.76744 52.1128C8.75383 52.197 8.73781 52.3091 8.72056 52.4517C8.6643 52.9167 8.60934 53.5685 8.5565 54.3706C8.45121 55.9687 8.36142 58.0327 8.27232 60.1216C8.1839 62.1945 8.09652 64.2938 7.99693 65.9165C7.94733 66.7246 7.89275 67.449 7.82994 68.0064C7.79904 68.2804 7.76178 68.5553 7.71373 68.7964C7.69004 68.9152 7.65624 69.0659 7.6063 69.2222C7.57384 69.3237 7.46498 69.6625 7.20591 69.9956C6.91267 70.3726 6.50187 70.6408 6.03892 70.7583C5.54982 70.8824 4.78294 71.0484 4.0272 71.1489C3.65106 71.199 3.2326 71.2387 2.82994 71.2407C2.49436 71.2424 1.89795 71.2246 1.32603 70.9878C0.230485 70.534 -0.289719 69.2778 0.163921 68.1821C0.589011 67.1559 1.71789 66.6348 2.75962 66.9458C2.77298 66.9461 2.78935 66.9469 2.80845 66.9468C2.96113 66.946 3.18281 66.9291 3.4608 66.8921C3.51476 66.8849 3.5693 66.8758 3.62388 66.8677C3.65263 66.5198 3.68165 66.1128 3.70982 65.6538C3.80634 64.0812 3.89208 62.0308 3.9813 59.939C4.06987 57.8628 4.16215 55.7458 4.27134 54.0884C4.3257 53.2633 4.38639 52.5189 4.45689 51.9361C4.49176 51.6478 4.53336 51.3614 4.5858 51.1089C4.61398 50.9732 4.71081 50.4686 5.00279 50.0239C6.46357 47.7991 8.0122 45.0764 10.3563 43.272C10.8118 42.9213 11.2907 42.608 11.7967 42.3335C11.332 41.5394 10.9448 40.7428 10.6268 39.9507C9.12475 36.2088 9.22059 32.76 9.5438 30.5806C9.95701 27.7947 12.0268 25.6908 13.7831 24.4741C14.2568 24.146 14.7476 23.8554 15.2333 23.6109C13.9524 22.4118 13.1395 20.7319 13.1395 18.8208C13.1397 15.3344 15.844 12.6178 19.1629 12.187C19.3196 11.6637 19.5149 11.1612 19.7206 10.6958C20.1711 9.67605 20.7366 8.68322 21.2567 7.82765C21.5184 7.39706 21.7759 6.98896 22.0067 6.62453C22.2423 6.25241 22.4425 5.93715 22.6092 5.66261C22.6641 5.57226 22.7113 5.49208 22.7518 5.42238C22.6825 5.19114 22.5951 4.91932 22.4979 4.62941C22.2844 3.99285 22.0409 3.32 21.8836 2.89894C21.4689 1.78809 22.0337 0.551236 23.1444 0.136246ZM24.2137 50.3775C23.9259 50.4752 23.6509 50.5698 23.3905 50.6607C23.5218 50.7594 23.6313 50.8366 23.7225 50.8921C23.8619 50.7496 24.0255 50.5756 24.2137 50.3775ZM17.7303 27.1978C17.3281 27.3456 16.7931 27.6139 16.2294 28.0044C14.8881 28.9335 13.9523 30.1362 13.7928 31.2105C13.5435 32.8915 13.4765 35.522 14.6122 38.3511C14.6147 38.3573 14.6175 38.3634 14.62 38.3696C14.7496 38.5167 14.8628 38.6827 14.951 38.8687L14.9911 38.9487C15.0161 38.9972 15.0493 39.0601 15.0907 39.1372C15.1737 39.2919 15.2844 39.4948 15.4208 39.7378C15.6216 40.0959 15.8758 40.5353 16.1698 41.0337C17.4536 40.9032 18.8746 40.9346 20.4608 41.1402C20.7219 39.327 21.1598 37.2865 21.6434 35.3423C22.0256 33.8061 22.4557 32.2581 22.8885 30.8277C22.2105 30.8245 21.6676 30.8145 21.3973 30.8208C20.3697 30.8448 19.4869 30.1401 19.2577 29.1685C19.2397 29.1357 19.2135 29.0908 19.1776 29.0327C19.0363 28.8043 18.8205 28.5031 18.5585 28.1704C18.2659 27.7991 17.9719 27.4595 17.7303 27.1978ZM25.0126 23.5405C24.1259 24.3953 23.0063 25.0162 21.7704 25.315C21.8245 25.3819 21.8806 25.4464 21.9325 25.5122C22.1894 25.8383 22.4481 26.1884 22.6737 26.5298C23.183 26.5361 23.7321 26.5382 24.3329 26.521C24.3417 26.507 24.3501 26.4928 24.3592 26.479C24.374 26.4412 24.3885 26.4037 24.4032 26.3667C24.8399 25.2642 26.0877 24.725 27.1903 25.1616C27.6155 25.33 27.9562 25.6194 28.1903 25.9741C28.6014 25.8357 28.9482 25.6701 29.2225 25.479C27.607 25.317 26.1256 24.6138 25.0126 23.5405ZM20.0868 16.4214C18.511 16.4214 17.4346 17.6034 17.4344 18.8208C17.4344 20.0384 18.5109 21.2212 20.0868 21.2212C21.6627 21.2212 22.7391 20.0384 22.7391 18.8208C22.7389 17.6034 21.6625 16.4214 20.0868 16.4214ZM29.9393 16.4214C28.3636 16.4214 27.2872 17.6034 27.287 18.8208C27.287 20.0384 28.3634 21.2212 29.9393 21.2212C31.5152 21.2212 32.5917 20.0383 32.5917 18.8208C32.5915 17.6034 31.515 16.4214 29.9393 16.4214Z" fill="#F9F4EC"/>
</svg>
