<svg width="104" height="64" viewBox="0 0 104 64" fill="none" xmlns="http://www.w3.org/2000/svg">
<path fill-rule="evenodd" clip-rule="evenodd" d="M7.50327 0.707151C8.23791 -0.145173 9.52496 -0.240367 10.3773 0.49426C11.2296 1.2289 11.3248 2.51596 10.5902 3.36828C9.46877 4.6694 7.78024 6.71129 6.36558 8.5968C5.65594 9.54263 5.03864 10.4179 4.59995 11.1251C4.56692 11.1784 4.53534 11.2305 4.50523 11.2804C5.18339 11.5044 6.1338 11.7289 7.32456 11.9513C10.2059 12.4895 13.7463 12.8966 17.0912 13.42C17.6259 12.5651 18.7241 12.2182 19.6654 12.6495C20.3484 12.9626 20.7732 13.6064 20.8421 14.3038C22.9023 14.9343 24.8373 15.7338 26.6292 16.4425C29.5606 17.6018 32.1326 18.5291 34.7738 18.6447C37.7586 18.7753 42.1459 18.8544 46.3373 18.7628C50.5997 18.6696 54.4304 18.402 56.4369 17.9073C58.5051 17.3975 63.1279 15.4773 67.848 13.5568C68.8342 13.1555 69.8169 12.7582 70.766 12.381C70.8204 12.1354 70.9188 11.9066 71.0531 11.7032C69.2733 10.6944 68.0717 8.78387 68.0716 6.59192C68.0716 3.34857 70.7013 0.71887 73.9447 0.71887C77.1879 0.719066 79.8167 3.34869 79.8167 6.59192C79.8167 7.77667 79.4642 8.87827 78.8607 9.8009C78.8916 9.80011 78.9221 9.79797 78.9525 9.79797L79.1029 9.8009C79.8469 9.83265 80.5032 10.0956 81.0218 10.382C81.5855 10.6932 82.1129 11.103 82.5882 11.5284C83.5346 12.3754 84.4791 13.4721 85.3285 14.5138C86.2669 15.6649 86.9383 16.5532 87.7103 17.4855C88.0629 17.9112 88.3685 18.2603 88.6292 18.5275C88.7583 18.6597 88.8644 18.7602 88.9496 18.8331C88.9914 18.8689 89.025 18.8943 89.0492 18.9122C89.0699 18.9277 89.0807 18.9356 89.0824 18.9366C89.8309 19.3887 91.4725 20.2697 93.1996 21.0607C94.059 21.4542 94.9112 21.8121 95.6625 22.0792C96.4493 22.359 96.9941 22.4916 97.2865 22.5177C97.9779 22.5793 98.2517 22.4344 98.4183 22.3234C98.5406 22.2419 98.6784 22.1229 98.8675 21.9279C98.9627 21.8297 99.0598 21.7234 99.1761 21.5958C99.2862 21.475 99.419 21.329 99.556 21.1847C100.331 20.3687 101.621 20.3347 102.437 21.1095C103.253 21.8843 103.286 23.1744 102.511 23.9904C102.205 24.3124 101.513 25.1568 100.677 25.714C99.676 26.3808 98.463 26.7133 96.9251 26.5763C96.103 26.503 95.1626 26.2267 94.2972 25.9191C93.396 25.5986 92.4277 25.1891 91.5033 24.7657C89.6629 23.9229 87.8804 22.9711 86.9759 22.4249C86.1245 21.9107 85.2614 20.9169 84.5716 20.0841C83.8757 19.2438 82.9104 17.9968 82.1703 17.089C81.3411 16.072 80.5644 15.1855 79.8705 14.5646C79.5257 14.256 79.2525 14.06 79.0521 13.9493C78.9827 13.911 78.9338 13.8904 78.9046 13.879C78.8642 13.8842 78.7988 13.8936 78.7044 13.9122C78.5188 13.9489 78.2759 14.0085 77.973 14.0948C77.3663 14.2679 76.5986 14.5259 75.6986 14.8527C75.4348 14.9484 75.1628 15.0511 74.8822 15.1564C74.9662 15.9667 75.1276 16.8524 75.4417 17.8634C76.088 19.943 77.4157 22.6645 80.2123 26.2941C82.1788 28.8464 82.2777 31.9262 81.6087 34.7833C80.9428 37.6275 79.4609 40.5357 77.8382 43.1388C76.2022 45.7633 74.3449 48.2 72.8314 50.1046C72.0848 51.0441 71.3828 51.9016 70.8753 52.5343C70.3142 53.2339 70.0309 53.6118 69.9408 53.7628C69.5475 54.4219 68.9325 55.3081 68.3734 56.1417C67.7824 57.0229 67.1957 57.9264 66.7396 58.7687C66.3487 59.4906 66.1321 60.0283 66.0433 60.382C66.7383 60.9474 66.9994 61.9275 66.6195 62.7863C66.1642 63.8152 64.961 64.2805 63.932 63.8253C63.1865 63.4954 62.5785 62.9357 62.2308 62.1661C61.9059 61.4469 61.8845 60.7151 61.9544 60.1222C62.0889 58.9834 62.6285 57.8036 63.1566 56.8282C63.7109 55.8047 64.3894 54.7656 64.9886 53.8722C65.6196 52.9315 66.1209 52.2109 66.4408 51.6749C66.7072 51.2283 67.1985 50.6065 67.6966 49.9855C68.2485 49.2974 68.891 48.5122 69.641 47.5685C71.1207 45.7064 72.8663 43.4112 74.3802 40.9825C75.2256 39.6264 75.9749 38.2647 76.5638 36.9445C75.4158 37.2782 74.2866 37.2141 73.3128 37.0128C71.9998 36.7413 70.7363 36.1646 69.9261 35.8234C69.5532 35.6663 69.2847 35.5607 69.0804 35.4952C69.0537 35.5181 69.0239 35.5441 68.9916 35.5734C68.7235 35.8161 68.3757 36.1859 67.9632 36.6886C67.1419 37.6897 66.1635 39.0948 65.1654 40.7657C63.1613 44.1207 61.1875 48.3584 60.2318 52.2599C59.9641 53.3527 58.8608 54.0216 57.7679 53.754C56.675 53.4863 56.0061 52.3831 56.2738 51.2902C57.3554 46.8746 59.5296 42.2545 61.6673 38.6759C62.74 36.8803 63.8318 35.2993 64.8128 34.1036C65.3016 33.508 65.7895 32.9755 66.2562 32.5529C66.6702 32.178 67.2617 31.7066 67.9574 31.4913L68.0335 31.4689C68.8238 31.2482 69.571 31.4025 70.0238 31.5255C70.5351 31.6645 71.064 31.8804 71.5082 32.0675C72.4951 32.4832 73.3126 32.8519 74.138 33.0226C74.9026 33.1807 75.4151 33.1077 75.8353 32.8478C76.2884 32.5674 76.9856 31.8508 77.6302 29.9806C77.4772 29.5411 77.2625 29.1419 76.9847 28.7814C73.9691 24.8676 72.3738 21.7201 71.5511 19.0724C71.284 18.2128 71.1023 17.4178 70.9789 16.6837C70.4547 16.895 69.9216 17.1121 69.3832 17.3312C64.8941 19.1577 59.856 21.262 57.4125 21.8644C54.9072 22.482 50.643 22.7448 46.4261 22.837C42.1383 22.9308 37.6613 22.8501 34.5951 22.7159C31.1854 22.5667 28.0242 21.3761 25.1302 20.2316C23.2163 19.4746 21.4109 18.7357 19.5882 18.1808C18.7108 21.1216 18.7646 23.685 19.1947 26.8986C22.0951 28.1718 25.3572 30.4457 27.888 32.4532C29.2168 33.5073 30.3911 34.5247 31.2621 35.3468C31.6948 35.7552 32.0728 36.1345 32.3636 36.4581C32.5074 36.6181 32.652 36.7891 32.7767 36.9591C32.8532 37.0633 33.0633 37.3487 33.1917 37.7257L33.2162 37.8029L33.2386 37.8849C33.3447 38.2947 33.3229 38.677 33.3128 38.8361C33.2975 39.0792 33.2632 39.3403 33.2201 39.5968C33.133 40.1146 32.9892 40.7529 32.805 41.4669C32.472 42.7581 31.9796 44.389 31.3626 46.1808C32.5145 47.1637 33.7749 48.2497 34.9964 49.3927C37.7409 51.9608 40.687 55.1608 41.6322 58.5372C41.9352 59.6207 41.3025 60.7447 40.2191 61.048C39.1356 61.351 38.0117 60.7183 37.7084 59.6349C37.1027 57.4717 34.982 54.959 32.2123 52.3673C31.4322 51.6374 30.6306 50.9298 29.8402 50.2452C28.8211 52.765 27.6147 55.3858 26.2748 57.7071C26.5034 57.8065 26.7221 57.8863 26.9105 57.9405C27.0955 57.9938 27.1859 58.0026 27.1986 58.005C28.2905 57.9134 29.2653 58.7057 29.3919 59.8019C29.5209 60.9195 28.7195 61.9305 27.6019 62.0597C26.9269 62.1376 26.2584 61.9932 25.7835 61.8566C25.262 61.7064 24.7358 61.4938 24.265 61.2677C23.7945 61.0417 23.3299 60.7782 22.9369 60.506C22.7412 60.3705 22.5356 60.2136 22.347 60.0392C22.1866 59.8908 21.912 59.6164 21.7132 59.2306C21.3775 58.5787 21.4175 57.7965 21.8187 57.1827C23.6182 54.4309 25.2705 50.8221 26.5697 47.4366C25.8943 46.8477 25.2721 46.2875 24.7572 45.7745C21.9678 42.9962 19.9144 40.7604 18.4505 38.4083C16.9502 35.9976 16.1199 33.5524 15.6068 30.4113C14.8318 25.6665 14.3134 21.8654 15.6 17.3155C12.6881 16.8812 9.22807 16.4524 6.57651 15.9572C5.10351 15.682 3.69331 15.3559 2.62632 14.9337C2.10448 14.7272 1.5132 14.44 1.02866 14.0187C0.528891 13.5839 -0.0865086 12.7862 0.0101078 11.6613L0.0218266 11.5568C0.0861074 11.0359 0.28731 10.5564 0.441748 10.2286C0.629823 9.8296 0.872928 9.40353 1.13706 8.97766C1.66735 8.12268 2.3653 7.13749 3.10581 6.15051C4.59176 4.17 6.3423 2.05415 7.50327 0.707151ZM20.0853 31.9552C20.5119 33.5959 21.0907 34.9377 21.9105 36.255C23.1048 38.1741 24.8601 40.1266 27.6322 42.8878C27.7566 43.0117 27.8904 43.1396 28.0316 43.2726C28.3728 42.2034 28.6546 41.2447 28.8597 40.4493C29.0134 39.8534 29.1195 39.373 29.183 39.0206C29.0024 38.8302 28.763 38.5908 28.4652 38.3097C27.6919 37.5798 26.608 36.6389 25.3558 35.6456C23.7121 34.3418 21.8542 33.0102 20.0853 31.9552ZM21.9359 0.71887C25.179 0.719116 27.808 3.34872 27.808 6.59192C27.8079 9.83504 25.179 12.4637 21.9359 12.464C18.6926 12.464 16.0629 9.83519 16.0628 6.59192C16.0628 3.34857 18.6925 0.71887 21.9359 0.71887ZM21.9359 4.79406C20.943 4.79406 20.138 5.59905 20.138 6.59192C20.1381 7.5847 20.9431 8.38977 21.9359 8.38977C22.9285 8.38952 23.7327 7.58455 23.7328 6.59192C23.7328 5.59921 22.9285 4.79431 21.9359 4.79406ZM73.9447 4.79406C72.9518 4.79406 72.1468 5.59905 72.1468 6.59192C72.1469 7.5847 72.9519 8.38977 73.9447 8.38977C74.9373 8.38957 75.7424 7.58458 75.7425 6.59192C75.7425 5.59918 74.9374 4.79426 73.9447 4.79406Z" fill="currentColor"/>
</svg>
