<svg width="490" height="176" viewBox="0 0 490 176" fill="none" xmlns="http://www.w3.org/2000/svg">
<path d="M117.475 23.5154C120.356 21.1144 124.021 21.3406 127.14 22.2609C129.697 23.0154 131.159 25.7003 130.404 28.2577C129.65 30.8153 126.965 32.2771 124.407 31.5226C124.115 31.4363 123.825 31.6477 123.812 31.9526C123.746 33.588 123.986 35.2506 124.188 36.8626C124.431 38.8033 124.784 41.2303 124.855 43.2762C125.055 49.0098 123.938 53.6402 121.315 57.2834C121.041 57.6642 120.756 58.0272 120.46 58.3736C119.955 58.9645 120.016 59.8696 120.61 60.3702C121.819 61.3883 122.911 62.5058 123.769 63.6691C124.56 64.7415 125.453 66.2563 125.695 68.035C126.397 73.2033 127.526 76.6354 128.85 79.0666C130.138 81.4321 131.726 83.0617 133.703 84.4759C135.872 86.027 136.372 89.0429 134.822 91.2119C133.271 93.3807 130.256 93.8817 128.087 92.331C125.11 90.2019 122.459 87.5197 120.37 83.6857C118.536 80.3164 117.234 76.238 116.404 71.1757C116.24 70.178 115.926 69.186 115.201 68.481C114.938 68.2255 114.662 67.9854 114.39 67.7562C112.851 66.4602 110.693 65.1632 108.292 64.3573C106.368 63.7114 105.053 61.9311 105.002 59.9019C104.95 57.8726 106.174 56.0281 108.064 55.2861C110.78 54.2192 112.438 53.0886 113.479 51.6428C114.487 50.2421 115.355 47.9277 115.205 43.6125C115.153 42.1322 114.895 40.3536 114.608 38.0625C114.346 35.9738 114.061 33.4419 114.188 31.1371C114.304 29.0265 114.818 25.7292 117.475 23.5154Z" fill="#0575B3"/>
<path d="M380.152 58.6828C382.818 58.6931 384.988 56.54 384.998 53.8736L380.171 53.8544C384.82 53.8727 384.992 53.8729 384.998 53.8719L384.999 53.8694C384.999 53.8694 384.999 53.8664 384.999 53.8648C384.999 53.8614 384.999 53.8571 384.999 53.8528C384.999 53.8443 384.998 53.8341 384.998 53.8222C384.998 53.7982 384.999 53.7673 384.998 53.7299C384.998 53.6551 384.996 53.5537 384.993 53.4281C384.988 53.177 384.976 52.8273 384.952 52.3959C384.905 51.5353 384.809 50.3356 384.616 48.9334C384.236 46.1823 383.446 42.4062 381.738 38.8475C379.744 34.6903 377.974 29.6725 381.388 24.6146C382.518 22.9393 382.485 20.7371 381.306 19.096C380.127 17.4549 378.05 16.7221 376.102 17.2596C373.38 18.0104 372.363 18.0425 371.68 17.844C371.159 17.6929 369.948 17.1276 367.938 14.0452C366.422 11.7194 363.895 7.93969 360.406 5.90379C358.482 4.78098 356.071 4.06309 353.349 4.51888C350.692 4.96371 348.352 6.42457 346.304 8.47211C344.419 10.3578 344.42 13.415 346.305 15.3004C348.191 17.1856 351.247 17.1855 353.132 15.3C354.241 14.1907 354.546 13.8136 355.289 13.8136C356.031 13.8136 357.067 15.5389 357.52 16.0787C358.311 17.0202 359.074 18.1289 359.85 19.3191C362.405 23.2387 365.248 26.0319 368.986 27.1176C369.348 27.2227 369.709 27.308 370.067 27.3764C368.961 34.0409 371.524 39.8799 373.033 43.0246C374.138 45.3276 374.741 48.0113 375.051 50.2539C375.202 51.3484 375.275 52.2795 375.31 52.9251C375.328 53.2466 375.336 53.4939 375.34 53.6515C375.341 53.7301 375.342 53.7863 375.342 53.8177L375.343 53.8372C375.333 56.503 377.486 58.6724 380.152 58.6828ZM375.343 53.8418L375.343 53.8388L375.343 53.846C375.343 53.846 375.343 53.8435 375.343 53.8418Z" fill="#1E347D"/>
<path d="M132.906 11.7882C133.379 7.43731 137.255 4.29839 141.562 4.77731C144.358 5.0882 150.477 5.57487 155.898 7.68052C161.586 9.8901 168.371 14.6855 169.178 24.2587C169.668 30.0654 167.082 35.8862 164.918 40.1593C163.732 42.4991 162.385 44.8931 161.118 47.1448C159.819 49.4531 158.589 51.6385 157.481 53.7978C155.178 58.2865 153.929 61.7033 153.747 64.2814C153.61 66.2037 154.009 67.5325 155.863 69.0303C156.495 69.5407 156.857 69.6137 157.658 69.4503C158.899 69.1973 160.698 68.3453 163.229 66.5893C165.833 64.7822 168.02 62.9133 170.95 60.6695C173.36 58.8249 176.804 56.2894 180.478 55.2396C184.421 54.1128 188.86 53.9007 192.785 56.518C196.146 58.7592 197.674 62.3005 198.288 63.6199C199.048 65.2549 199.353 65.8816 199.634 66.2753C200.118 65.7181 200.73 64.9405 201.473 63.8774C204.177 60.0084 207.215 54.5183 211.247 47.5926C218.918 34.4164 228.115 21.9798 242.796 19.7675C249.848 18.7048 255.88 20.9949 259.952 26.0319C261.521 27.9718 262.677 30.1695 263.527 32.4532C264.691 32.1872 265.7 31.9653 266.479 31.7729C270.688 30.7335 274.935 33.3377 275.964 37.5897C276.994 41.8417 274.417 46.1314 270.208 47.1709C268.923 47.4881 267.727 47.7525 266.545 48.0219L266.856 50.0258C266.861 50.053 266.865 50.0802 266.869 50.1075C267.717 55.9694 269.697 60.5352 271.915 63.1277C272.748 64.1005 273.528 64.7315 274.296 65.0973C274.789 63.1308 275.464 60.484 276.352 57.8816C278.785 50.7478 283.774 40.8969 295.55 37.1549L296.028 37.0121C298.457 36.3289 301.46 36.1604 304.412 37.6341C307.453 39.1526 309.034 41.724 309.854 43.5858C310.67 45.4382 311.087 47.3873 311.349 48.8944C311.614 50.4215 311.817 52.1199 311.987 53.4166C312.229 55.2595 312.449 56.5104 312.655 57.3539C314.152 56.7687 315.486 55.1706 318.434 50.7662C321.53 46.141 326.624 38.2285 337.293 36.5318C343.358 35.5673 348.373 37.8497 351.919 41.6816C355.088 45.1064 356.991 49.623 358.27 53.6488C359.591 57.8086 360.515 62.3489 361.265 66.4312C362.057 70.7358 362.62 74.2936 363.301 77.3804C363.417 77.9045 363.966 79.4721 364.716 79.843C365.467 80.2139 366.512 80.1535 369.321 77.1295C372.286 73.9381 377.252 73.7797 380.412 76.7755C383.571 79.7713 383.729 84.7868 380.764 87.9782C375.854 93.2636 369.131 96.8587 362.047 95.6874C354.423 94.4267 349.625 88.2523 347.986 80.8277C347.225 77.3815 346.528 73.0754 345.838 69.3228C345.107 65.3477 344.329 61.637 343.329 58.4898C342.855 56.9971 342.299 55.6281 341.932 54.8603C341.565 54.0924 340.741 53.2822 339.075 52.8914C337.409 52.5007 336.463 53.2917 335.722 54.053C334.982 54.8143 334.029 55.7687 331.434 59.6463C328.639 63.8225 323.71 72.146 313.34 73.372C310.491 73.7088 307.548 73.3531 304.849 71.8899C302.178 70.4416 300.448 68.2886 299.339 66.2551C297.848 63.5202 297.153 60.3245 296.754 57.79C296.581 56.691 296.442 55.5865 296.3 54.4831C294.011 56.4597 292.436 59.3874 291.187 63.0487C290.234 65.8405 289.714 68.2816 289.01 70.9533C288.711 72.092 288.289 73.6154 287.687 74.967C287.38 75.6551 286.873 76.6581 286.062 77.6402C285.24 78.6363 283.761 80.0171 281.483 80.6274C273.291 82.8221 266.25 79.8973 261.258 74.8136C260.666 75.8424 260.012 76.8611 259.288 77.8658C254.298 84.7848 248.398 89.2818 242.074 90.9778C235.651 92.7003 229.322 91.3434 224.584 87.5227C220.862 84.5205 219.764 80.1692 219.674 76.6944C219.583 73.1765 220.445 69.5147 221.771 66.0924C224.445 59.193 229.614 51.6995 236.777 45.4178C240.828 41.8654 244.82 39.324 248.606 37.454C248.337 36.8413 248.062 36.3813 247.801 36.0589C247.497 35.6833 247.276 35.5631 247.098 35.4974C246.897 35.4228 246.318 35.2646 245.113 35.4462C238.465 36.4482 232.563 42.2517 224.774 55.6307C221.076 61.9827 217.493 68.4396 214.292 73.0201C212.687 75.3183 210.824 77.674 208.696 79.4499C206.624 81.1787 203.171 83.2802 198.781 82.637C194.124 81.9549 190.623 79.9119 188.089 77.0371C186.077 74.7553 184.871 72.0793 184.25 70.7139C182.882 71.4081 181.645 72.3734 180.43 73.303C178.307 74.9286 175.076 77.6018 172.114 79.6564C169.08 81.7621 165.165 84.0917 160.765 84.9887C155.925 85.9751 150.715 85.1658 146.066 81.4104C139.83 76.3738 137.624 69.807 138.095 63.1478C138.52 57.1446 141.091 51.2936 143.55 46.5019C144.822 44.0211 146.208 41.5627 147.476 39.3089C148.776 36.9986 149.948 34.9115 150.949 32.9359C153.156 28.5782 153.613 26.4297 153.543 25.6027C153.455 24.5625 153.094 23.5739 150.268 22.4762C147.175 21.2746 143.414 20.9306 139.847 20.534C135.54 20.0549 132.432 16.1392 132.906 11.7882ZM250.602 54.6032C249.441 55.4174 248.26 56.3393 247.064 57.3882C241.62 62.162 238.041 67.5935 236.382 71.8741C235.727 73.5653 235.461 74.8453 235.384 75.6815C236.047 75.8992 236.919 75.9589 238.046 75.6568C239.978 75.1384 243.103 73.3855 246.604 68.5302C249.357 64.7124 250.482 60.3593 250.602 54.6032Z" fill="url(#paint0_linear_80_446)"/>
<path d="M134.891 6.87978C135.4 2.60246 139.279 -0.453008 143.556 0.0552453C146.333 0.385176 152.412 0.916625 157.781 3.03518C163.416 5.25829 170.118 10.0354 170.838 19.4625C171.275 25.1806 168.654 30.8862 166.465 35.0723C165.267 37.3645 163.907 39.7087 162.628 41.9136C161.317 44.1738 160.075 46.3138 158.955 48.4291C156.627 52.8262 155.355 56.1777 155.152 58.713C155 60.6035 155.385 61.9144 157.215 63.4042C157.838 63.9119 158.197 63.9868 158.995 63.8329C160.231 63.5947 162.027 62.7717 164.557 61.0655C167.162 59.3096 169.351 57.4894 172.284 55.3065C174.694 53.5122 178.14 51.0468 181.801 50.0452C185.73 48.9703 190.144 48.7998 194.023 51.409C197.345 53.6432 198.833 57.1411 199.432 58.4446C200.059 59.8114 201.688 59.9847 202.567 58.7646C202.577 58.7516 202.586 58.7385 202.596 58.7253C205.316 54.9414 208.384 49.5651 212.452 42.7848C220.192 29.885 229.441 17.7261 244.053 15.6752C251.072 14.6901 257.048 16.9955 261.052 21.9869C261.953 23.1094 262.713 24.3171 263.354 25.5766C264.136 27.114 265.811 28.0872 267.49 27.6921C271.683 26.7056 275.881 29.3046 276.868 33.4975C277.855 37.6904 275.256 41.8894 271.063 42.8762C270.481 43.013 269.918 43.1393 269.365 43.2603C268.268 43.5007 267.542 44.5456 267.707 45.6566C267.711 45.6834 267.715 45.7103 267.718 45.7371C268.511 51.5126 270.44 56.0225 272.622 58.5926C273.655 59.8098 275.341 59.114 275.778 57.5784C276.151 56.2724 276.582 54.8636 277.077 53.4684C279.558 46.4695 284.602 36.8189 296.34 33.2378L296.816 33.1014C299.237 32.45 302.223 32.31 305.144 33.7855C308.154 35.3058 309.704 37.8497 310.503 39.6888C311.298 41.5186 311.695 43.4401 311.942 44.9254C312.193 46.4304 312.379 48.1034 312.537 49.3808C312.793 51.4514 314.806 52.3552 316.121 50.7348C316.891 49.7847 317.805 48.5177 318.969 46.8281C322.086 42.3034 327.218 34.5612 337.838 32.9832C343.875 32.0862 348.841 34.3752 352.331 38.1763C355.451 41.5736 357.304 46.0343 358.54 50.0068C359.818 54.1114 360.697 58.5871 361.407 62.6106C362.156 66.8532 362.685 70.3589 363.336 73.4023C363.446 73.9191 363.978 75.4663 364.721 75.8377C365.464 76.2091 366.504 76.1587 369.322 73.2072C372.297 70.0921 377.234 69.979 380.349 72.954C383.464 75.9291 383.577 80.8657 380.602 83.9808C375.676 89.1395 368.962 92.6194 361.931 91.4059C354.364 90.1 349.647 83.983 348.082 76.663C347.356 73.2653 346.7 69.022 346.047 65.3236C345.355 61.4057 344.614 57.7476 343.648 54.6421C343.189 53.1692 342.648 51.8173 342.29 51.0586C341.932 50.2999 341.12 49.4955 339.467 49.0967C337.815 48.6979 336.868 49.4681 336.125 50.2109C335.382 50.9537 334.427 51.8846 331.813 55.678C328.999 59.7634 324.027 67.9115 313.709 69.0289C310.874 69.3358 307.952 68.9606 305.282 67.4976C302.64 66.0495 300.938 63.916 299.854 61.9055C298.395 59.2015 297.733 56.0509 297.358 53.5535C297.148 52.1558 295.548 51.5654 294.725 52.715C293.544 54.3664 292.596 56.374 291.778 58.6804C290.807 61.4194 290.269 63.817 289.546 66.4399C289.239 67.5578 288.806 69.0533 288.196 70.3781C287.885 71.0526 287.373 72.0352 286.558 72.9946C285.732 73.9678 284.25 75.3138 281.98 75.8948C274.754 77.7445 268.46 75.6533 263.699 71.6483C262.765 70.8625 261.315 71.0335 260.622 72.0377C260.402 72.3554 260.176 72.6718 259.942 72.9866C254.923 79.7522 249.018 84.1267 242.718 85.7413C236.318 87.3811 230.039 85.9916 225.363 82.1912C221.689 79.2051 220.636 74.9138 220.576 71.4938C220.516 68.0313 221.404 64.4354 222.752 61.0793C225.47 54.3131 230.673 46.9837 237.848 40.8639C241.398 37.8357 244.897 35.5686 248.248 33.8382C249.038 33.4302 249.443 32.4431 248.887 31.7493C248.588 31.377 248.369 31.2569 248.193 31.1907C247.993 31.1156 247.42 30.9549 246.22 31.1233C239.603 32.0522 233.686 37.7123 225.828 50.8105C222.097 57.0293 218.48 63.3522 215.259 67.832C213.643 70.0797 211.771 72.3817 209.64 74.111C207.566 75.7944 204.115 77.8327 199.757 77.162C195.134 76.4508 191.671 74.4104 189.177 71.5598C188.553 70.8463 188.009 70.095 187.537 69.3583C186.187 67.2504 183.605 66.3252 181.597 67.8196C179.473 69.401 176.237 72.0037 173.276 74C170.241 76.046 166.33 78.3047 161.948 79.1496C157.129 80.0787 151.958 79.2376 147.369 75.5023C141.214 70.4926 139.078 64.0118 139.604 57.4632C140.078 51.5595 142.685 45.8241 145.17 41.1301C146.457 38.6999 147.855 36.2926 149.136 34.0858C150.448 31.8236 151.631 29.7799 152.643 27.8445C154.875 23.5754 155.347 21.465 155.285 20.6507C155.207 19.6264 154.856 18.6504 152.057 17.546C148.993 16.3371 145.257 15.9663 141.715 15.5454C137.438 15.037 134.383 11.1571 134.891 6.87978ZM251.238 53.6496C251.429 52.1463 249.771 51.2423 248.6 52.2038C248.39 52.3759 248.18 52.5517 247.969 52.7314C242.517 57.3822 238.912 62.6961 237.226 66.894C237.065 67.2947 236.927 67.6719 236.809 68.0253C236.312 69.5128 237.327 71.0199 238.846 70.6306C240.772 70.1371 243.893 68.439 247.415 63.6914C249.56 60.7999 250.737 57.5841 251.238 53.6496Z" fill="url(#paint1_linear_80_446)"/>
<path d="M166.22 140.866V137.048H171.867C173.298 137.048 174.549 136.753 175.622 136.164C176.695 135.554 177.526 134.702 178.115 133.609C178.725 132.515 179.03 131.221 179.03 129.728C179.03 128.276 178.725 127.014 178.115 125.941C177.505 124.848 176.663 124.006 175.591 123.417C174.518 122.807 173.277 122.502 171.867 122.502H166.125V118.684H171.931C173.571 118.684 175.086 118.958 176.474 119.505C177.883 120.052 179.103 120.83 180.134 121.84C181.186 122.828 181.996 123.996 182.564 125.342C183.153 126.688 183.447 128.161 183.447 129.759C183.447 131.358 183.153 132.841 182.564 134.208C181.996 135.554 181.196 136.732 180.166 137.742C179.135 138.731 177.915 139.498 176.506 140.045C175.117 140.592 173.613 140.866 171.994 140.866H166.22ZM163.285 140.866V118.684H167.576V140.866H163.285Z" fill="#1E347D"/>
<path d="M194.998 140.866L203.927 118.684H207.429L216.327 140.866H211.752L204.873 122.66H206.451L199.478 140.866H194.998ZM199.73 136.732V133.135H211.657V136.732H199.73Z" fill="#1E347D"/>
<path d="M228.728 140.866V118.684H231.726L233.019 122.975V140.866H228.728ZM244.063 140.866L230.905 123.827L231.726 118.684L244.883 135.723L244.063 140.866ZM244.063 140.866L242.832 136.701V118.684H247.155V140.866H244.063Z" fill="#1E347D"/>
<path d="M271.72 141.181C270.101 141.181 268.597 140.897 267.208 140.329C265.82 139.74 264.6 138.931 263.548 137.9C262.517 136.848 261.718 135.628 261.15 134.24C260.603 132.851 260.33 131.358 260.33 129.759C260.33 128.161 260.603 126.667 261.15 125.279C261.718 123.891 262.517 122.681 263.548 121.65C264.6 120.62 265.809 119.81 267.177 119.221C268.565 118.632 270.08 118.337 271.72 118.337C273.487 118.337 275.044 118.632 276.39 119.221C277.736 119.789 278.925 120.578 279.955 121.587L277.053 124.49C276.443 123.817 275.696 123.291 274.812 122.912C273.929 122.534 272.898 122.344 271.72 122.344C270.69 122.344 269.743 122.523 268.881 122.881C268.039 123.217 267.303 123.722 266.672 124.395C266.041 125.047 265.557 125.836 265.22 126.762C264.884 127.666 264.716 128.665 264.716 129.759C264.716 130.874 264.884 131.884 265.22 132.788C265.557 133.693 266.041 134.482 266.672 135.155C267.303 135.807 268.039 136.312 268.881 136.669C269.743 137.027 270.69 137.206 271.72 137.206C272.961 137.206 274.024 137.016 274.907 136.638C275.812 136.259 276.569 135.723 277.179 135.029L280.082 137.931C279.051 138.962 277.852 139.761 276.485 140.329C275.117 140.897 273.529 141.181 271.72 141.181Z" fill="#1E347D"/>
<path d="M292.846 140.866V118.684H297.137V140.866H292.846ZM296.001 140.866V137.079H308.275V140.866H296.001ZM296.001 131.368V127.708H307.171V131.368H296.001ZM296.001 122.471V118.684H308.117V122.471H296.001Z" fill="#1E347D"/>
<path d="M171.331 175.054C169.543 175.054 168.007 174.749 166.724 174.139C165.462 173.529 164.316 172.614 163.285 171.394L166.125 168.554C166.777 169.417 167.534 170.09 168.397 170.574C169.259 171.036 170.311 171.268 171.552 171.268C172.667 171.268 173.55 171.047 174.202 170.605C174.875 170.163 175.212 169.553 175.212 168.775C175.212 168.102 175.023 167.555 174.644 167.134C174.265 166.714 173.761 166.356 173.13 166.062C172.52 165.767 171.836 165.504 171.079 165.273C170.342 165.02 169.596 164.736 168.838 164.421C168.102 164.105 167.419 163.716 166.787 163.253C166.177 162.77 165.683 162.16 165.305 161.423C164.926 160.666 164.737 159.72 164.737 158.584C164.737 157.237 165.063 156.091 165.715 155.144C166.367 154.198 167.261 153.472 168.397 152.967C169.533 152.463 170.816 152.21 172.246 152.21C173.761 152.21 175.128 152.494 176.348 153.062C177.568 153.63 178.567 154.366 179.345 155.271L176.506 158.11C175.854 157.395 175.18 156.869 174.486 156.533C173.813 156.196 173.045 156.028 172.183 156.028C171.194 156.028 170.416 156.217 169.848 156.596C169.28 156.975 168.996 157.521 168.996 158.237C168.996 158.847 169.185 159.341 169.564 159.72C169.943 160.098 170.437 160.424 171.047 160.698C171.678 160.971 172.362 161.234 173.098 161.487C173.855 161.739 174.602 162.023 175.338 162.338C176.095 162.654 176.779 163.064 177.389 163.569C178.02 164.074 178.525 164.726 178.904 165.525C179.282 166.304 179.472 167.271 179.472 168.428C179.472 170.489 178.746 172.109 177.294 173.287C175.843 174.465 173.855 175.054 171.331 175.054Z" fill="#0575B3"/>
<path d="M197.236 174.739V153.03H201.559V174.739H197.236ZM190.168 156.375V152.557H208.626V156.375H190.168Z" fill="#0575B3"/>
<path d="M229.895 175.054C228.149 175.054 226.593 174.675 225.225 173.918C223.879 173.14 222.817 172.078 222.038 170.731C221.26 169.385 220.871 167.86 220.871 166.156V152.557H225.162V166.282C225.162 167.271 225.362 168.123 225.762 168.838C226.182 169.553 226.75 170.111 227.466 170.511C228.202 170.889 229.012 171.078 229.895 171.078C230.8 171.078 231.599 170.889 232.293 170.511C232.987 170.111 233.534 169.553 233.934 168.838C234.354 168.123 234.565 167.282 234.565 166.314V152.557H238.887V166.188C238.887 167.892 238.498 169.417 237.72 170.763C236.942 172.088 235.879 173.14 234.533 173.918C233.208 174.675 231.662 175.054 229.895 175.054Z" fill="#0575B3"/>
<path d="M255.84 174.739V170.921H261.488C262.919 170.921 264.17 170.626 265.243 170.037C266.316 169.427 267.147 168.575 267.736 167.481C268.346 166.388 268.651 165.094 268.651 163.601C268.651 162.149 268.346 160.887 267.736 159.814C267.126 158.72 266.284 157.879 265.211 157.29C264.139 156.68 262.897 156.375 261.488 156.375H255.746V152.557H261.551C263.192 152.557 264.706 152.831 266.095 153.378C267.504 153.924 268.724 154.703 269.755 155.712C270.807 156.701 271.616 157.869 272.184 159.215C272.773 160.561 273.068 162.033 273.068 163.632C273.068 165.231 272.773 166.714 272.184 168.081C271.616 169.427 270.817 170.605 269.786 171.615C268.756 172.603 267.536 173.371 266.126 173.918C264.738 174.465 263.234 174.739 261.614 174.739H255.84ZM252.906 174.739V152.557H257.197V174.739H252.906Z" fill="#0575B3"/>
<path d="M286.259 174.739V152.557H290.55V174.739H286.259Z" fill="#0575B3"/>
<path d="M315.264 175.086C313.645 175.086 312.13 174.791 310.721 174.202C309.332 173.613 308.112 172.803 307.061 171.773C306.03 170.721 305.22 169.501 304.631 168.113C304.042 166.703 303.748 165.199 303.748 163.601C303.748 162.002 304.032 160.519 304.6 159.152C305.189 157.763 305.998 156.554 307.029 155.523C308.081 154.471 309.301 153.662 310.689 153.094C312.078 152.505 313.582 152.21 315.201 152.21C316.842 152.21 318.356 152.505 319.745 153.094C321.133 153.662 322.343 154.471 323.373 155.523C324.425 156.554 325.245 157.763 325.834 159.152C326.423 160.54 326.718 162.033 326.718 163.632C326.718 165.231 326.423 166.724 325.834 168.113C325.245 169.501 324.425 170.721 323.373 171.773C322.343 172.803 321.133 173.613 319.745 174.202C318.377 174.791 316.884 175.086 315.264 175.086ZM315.201 171.078C316.632 171.078 317.873 170.763 318.924 170.132C319.976 169.501 320.797 168.628 321.385 167.513C321.995 166.398 322.301 165.094 322.301 163.601C322.301 162.507 322.132 161.508 321.796 160.603C321.459 159.699 320.975 158.92 320.344 158.268C319.713 157.595 318.966 157.08 318.104 156.722C317.242 156.365 316.274 156.186 315.201 156.186C313.813 156.186 312.582 156.501 311.51 157.132C310.458 157.742 309.627 158.605 309.017 159.72C308.428 160.834 308.133 162.128 308.133 163.601C308.133 164.715 308.302 165.736 308.638 166.661C308.996 167.587 309.48 168.375 310.09 169.028C310.721 169.68 311.467 170.184 312.33 170.542C313.213 170.9 314.171 171.078 315.201 171.078Z" fill="#0575B3"/>
<defs>
<linearGradient id="paint0_linear_80_446" x1="133.195" y1="51.3625" x2="382.598" y2="49.1861" gradientUnits="userSpaceOnUse">
<stop stop-color="#01E3BD"/>
<stop offset="0.33" stop-color="#FDD900"/>
<stop offset="0.66" stop-color="#FF7729"/>
<stop offset="1" stop-color="#FFBAD5"/>
</linearGradient>
<linearGradient id="paint1_linear_80_446" x1="134.836" y1="45.8241" x2="382.761" y2="45.8241" gradientUnits="userSpaceOnUse">
<stop stop-color="#0575B3"/>
<stop offset="1" stop-color="#1D337C"/>
</linearGradient>
</defs>
</svg>
