<svg width="97" height="93" viewBox="0 0 97 93" fill="none" xmlns="http://www.w3.org/2000/svg">
<path d="M20.5985 0.505445C28.3284 -0.770008 44.018 0.749332 52.5731 0.925367C63.2079 1.14486 89.9324 -1.5527 93.4129 11.4283C97.1079 25.2182 95.9785 43.6975 95.6385 58.1295C95.2185 76.0114 97.7334 90.3932 75.5487 91.5094C56.6336 92.5029 35.6032 91.7421 16.5682 91.8746C8.05334 91.5795 1.68823 85.8071 1.19318 77.1998C0.0881813 57.9598 -0.771194 37.3489 1.08381 18.1969C2.30389 5.59361 9.00355 2.01043 20.5985 0.505445ZM63.2781 36.0142C56.1734 36.9992 56.1132 40.1346 53.3133 40.6021C52.6285 39.0058 52.7931 37.0427 51.9735 36.9254C49.4935 36.5709 45.4385 36.7673 43.0135 36.8238L42.9832 73.8189L53.2987 73.8297C53.3236 65.7752 51.7384 53.5142 55.8533 47.4263C71.8631 37.1162 68.3787 65.5881 68.4637 73.7281L78.6033 73.7857C78.6683 59.9033 83.3382 35.9577 63.7537 36.0103L63.2781 36.0142ZM33.0985 36.9312C29.8485 36.9197 26.1434 36.8177 22.9334 36.9322C22.7334 49.1727 22.6282 61.4149 22.6082 73.6568L33.0428 73.7418C33.1578 61.4719 33.1735 49.2011 33.0985 36.9312ZM34.1229 23.397C33.1979 20.1145 29.7878 18.2025 26.5028 19.1265C23.218 20.0507 21.3083 23.4618 22.2332 26.7457C23.1583 30.0296 26.5684 31.9412 29.8533 31.0152C33.133 30.0896 35.0426 26.6793 34.1229 23.397Z" fill="currentColor"/>
</svg>
