<svg width="94" height="93" viewBox="0 0 94 93" fill="none" xmlns="http://www.w3.org/2000/svg">
<path d="M25.9648 0.221558C35.0859 -0.301983 44.0943 0.226304 53.1973 0.535034C59.9914 0.765626 65.9291 0.339138 72.7256 1.57507C95.5782 5.58587 92.6894 27.0064 92.8359 44.7528C92.8983 52.3089 93.6642 63.0126 92.3369 70.3612C91.6666 74.2469 90.133 77.9328 87.8496 81.1473C82.4848 88.6654 75.3082 90.9724 66.6211 92.4257C66.477 92.4455 66.3328 92.4638 66.1885 92.4813C60.0469 93.2314 53.8704 92.9487 47.7285 92.9462C39.132 92.9436 30.9866 93.0199 22.458 91.6366C17.4757 90.9512 12.1139 90.6181 7.97168 87.4032C-0.219729 81.0126 1.60664 72.4642 1.01758 63.5585C0.0981717 49.6558 -0.498247 35.0789 0.571289 21.1942C1.27014 12.1254 5.74807 6.37538 14.0361 3.00281C18.414 1.22148 21.1162 0.630309 25.9648 0.221558ZM59.8516 13.6718C56.6308 12.1993 51.2396 12.5652 47.7705 12.6844C46.7611 13.643 46.6175 14.0373 46.6309 15.5165C46.6691 19.7781 47.0262 24.1681 47.2285 28.4344C47.4599 34.5354 47.6117 40.6395 47.6846 46.744C47.7697 51.9492 48.7688 57.1606 44.7412 60.8885C41.4518 63.9328 36.88 65.9438 33.043 62.4354C30.2264 59.7024 33.0231 50.2164 37.4873 50.8397C38.9096 51.0382 41.7692 51.6798 42.9824 50.3964C44.3328 48.2331 43.7979 43.3678 43.7471 40.8739C43.6435 35.8058 41.852 34.4736 36.9219 34.995C31.4718 35.5712 25.0871 38.2603 21.3877 42.4481C16.7906 48.4994 15.2792 61.6595 18.2529 68.5712C20.9233 73.5033 24.9908 76.8219 30.3506 78.4296C36.6003 80.3041 43.7851 79.5764 49.5215 76.4637C54.5255 73.7486 58.3518 69.3089 59.9668 63.8065C62.1321 56.4293 61.1394 45.9037 61.0537 38.0907C64.5413 40.4231 69.3602 43.5434 73.7715 42.7177C74.5511 42.5719 75.2573 42.2067 75.6611 41.496C75.8947 41.0851 75.9827 40.6203 75.9805 40.1522C75.9718 38.5122 75.4585 36.8535 75.2637 35.2313C75.0864 33.7571 75.2686 32.2432 75.1318 30.7645C75.0916 30.3386 75.0021 29.9189 74.8652 29.5135C74.4279 28.1998 73.4779 27.5455 72.2842 26.9872C68.7705 25.3435 64.7213 24.5326 63.1865 20.4471C62.3333 18.1756 62.3756 14.8259 59.8516 13.6718Z" fill="currentColor"/>
</svg>
