<svg viewBox="0 0 56 56" fill="none" xmlns="http://www.w3.org/2000/svg">
<path d="M15.3595 0.0481454C16.8934 -0.0443868 18.6284 0.0248925 20.1858 0.0251043L28.965 0.0261639L36.1664 0.0243632C38.6356 0.0240454 41.0001 -0.108953 43.4195 0.438719C46.0886 1.05493 48.5574 2.33952 50.5939 4.17189C53.8646 7.12641 55.7624 11.1586 55.9313 15.5479C55.9864 16.9873 55.9509 18.5748 55.9499 20.0275L55.9493 28.1842L55.9504 35.9877C55.9515 38.4768 56.0796 41.0244 55.5304 43.453C54.9122 46.1195 53.6252 48.5846 51.7915 50.6164C48.9535 53.7356 44.9763 55.7419 40.7446 55.9469C35.5386 56.055 30.0536 55.9644 24.8268 55.966L19.0136 55.9681C16.7009 55.9686 14.866 56.0788 12.5824 55.5682C9.97943 54.9771 7.564 53.7488 5.55298 51.9935C2.33877 49.1969 0.36498 45.2398 0.0646079 40.9897C-0.034651 39.5633 0.0159323 37.761 0.0160382 36.3055L0.017733 28.2273L0.0161441 20.094C0.0159852 17.638 -0.119609 15.0649 0.397925 12.6731C0.979601 10.0456 2.20789 7.6048 3.97146 5.572C6.98651 2.1186 10.8221 0.35249 15.3595 0.0481454ZM40.4971 50.9283C43.697 50.6577 46.2258 49.5157 48.3344 47.0215C49.4837 45.6434 50.2592 43.9924 50.5854 42.2272C50.8609 40.729 50.7676 38.6027 50.7676 37.0285L50.7671 29.2896V20.0258C50.7671 18.4436 50.8227 16.7152 50.7348 15.1488C50.5796 12.3797 49.0748 9.62149 46.962 7.84113C45.5923 6.69584 43.9572 5.91173 42.2067 5.56035C40.6657 5.25813 38.8512 5.32709 37.2617 5.32762L31.785 5.32868L21.3375 5.32878C19.4359 5.32873 17.4163 5.29674 15.5234 5.34467C12.2839 5.65945 9.76968 6.63107 7.63524 9.21572C6.48005 10.6039 5.69943 12.2647 5.36776 14.0399C5.08995 15.5593 5.1722 18.0336 5.17226 19.6727L5.17453 28.0932L5.17316 36.5148C5.173 37.8676 5.11066 39.9574 5.23449 41.2641C5.50028 44.0925 6.88837 46.6969 9.08837 48.4945C10.4563 49.6264 12.087 50.3966 13.8303 50.734C15.2061 50.9977 16.8138 50.9379 18.231 50.9379L23.4943 50.9358C29.1232 50.9331 34.8801 51.0014 40.4971 50.9283Z" fill="currentColor"/>
<path d="M26.7075 13.6677C34.7 12.9658 41.7468 18.8794 42.4428 26.8724C43.1387 34.8655 37.2199 41.9079 29.2263 42.5978C21.2412 43.2871 14.2078 37.3759 13.5126 29.3913C12.8174 21.4067 18.7234 14.3689 26.7075 13.6677ZM28.5132 37.51C33.6979 37.2137 37.6574 32.765 37.3503 27.581C37.0432 22.397 32.5862 18.4468 27.4028 18.7648C22.2348 19.0818 18.2989 23.5227 18.605 28.6914C18.9112 33.8601 23.3439 37.8053 28.5132 37.51Z" fill="currentColor"/>
<path d="M42.721 9.69892C44.5692 9.5611 46.1846 10.9342 46.3467 12.7803C46.5088 14.6264 45.1571 16.26 43.3133 16.4462C42.0988 16.5689 40.9123 16.0286 40.2075 15.032C39.5028 14.0354 39.3888 12.7367 39.9092 11.6326C40.4295 10.5284 41.5038 9.78971 42.721 9.69892Z" fill="currentColor"/>
</svg>
