<svg width="94" height="93" viewBox="0 0 94 93" fill="none" xmlns="http://www.w3.org/2000/svg">
<path d="M25.9648 0.221558C35.0859 -0.301983 44.0943 0.226304 53.1973 0.535034C59.9914 0.765626 65.9291 0.339138 72.7256 1.57507C95.5782 5.58587 92.6894 27.0064 92.8359 44.7528C92.8983 52.3089 93.6642 63.0126 92.3369 70.3612C91.6666 74.2469 90.133 77.9328 87.8496 81.1473C82.4848 88.6654 75.3082 90.9724 66.6211 92.4257C66.477 92.4455 66.3328 92.4638 66.1885 92.4813C60.0469 93.2314 53.8704 92.9487 47.7285 92.9462C39.132 92.9436 30.9866 93.0199 22.458 91.6366C17.4757 90.9512 12.1139 90.6181 7.97168 87.4032C-0.219729 81.0126 1.60664 72.4642 1.01758 63.5585C0.0981717 49.6558 -0.498247 35.0789 0.571289 21.1942C1.27014 12.1254 5.74807 6.37538 14.0361 3.00281C18.414 1.22148 21.1162 0.630309 25.9648 0.221558ZM64.9463 14.0272C60.466 13.1845 36.6842 12.7165 31.7988 13.1893C26.7139 13.6724 20.0695 15.2255 16.876 19.3905C11.764 26.0582 11.8559 45.5407 12.4355 53.4872C12.95 60.5354 15.3897 72.6629 20.7744 77.2635C26.7918 82.4044 47.7016 81.204 55.3477 80.4071C56.8278 80.2587 58.3022 80.0568 59.7676 79.8007C65.3543 78.7932 72.1195 77.36 75.542 72.3427C80.0204 65.7764 81.2808 38.5072 79.6631 30.6034C78.5307 25.0703 75.8374 19.5513 70.9629 16.4081C69.13 15.2338 67.0864 14.4247 64.9463 14.0272ZM32.4023 17.8124C35.455 17.3672 59.8093 17.8564 62.8623 18.2968C64.7425 18.5681 66.514 19.1381 68.1289 20.1522C72.0462 22.6125 74.1495 26.9716 75.1211 31.3583C75.7936 34.3953 75.9499 37.55 75.9336 40.6522C75.9049 46.0913 74.492 65.4639 71.9609 69.3036C69.3641 73.2414 63.9386 74.2914 59.6396 75.1874C58.194 75.4094 56.7427 75.5976 55.2881 75.7528C49.2192 76.352 28.4763 77.4872 23.8574 73.7548C19.9989 70.6358 17.5166 59.2183 17.1523 53.743C16.7099 47.0894 16.2863 28.5065 20.3408 22.5302C22.54 19.2895 28.5421 18.1474 32.4023 17.8124ZM45.8242 29.1942C40.247 29.9477 36.6019 30.6211 32.873 35.451C27.3474 42.6086 28.6 54.4716 35.8408 60.0233C38.9162 62.381 42.7028 62.5356 46.4092 62.5448C51.1131 62.1974 55.2943 60.7336 58.4658 57.0018C64.2819 50.1594 63.3959 37.959 56.8242 31.9061C54.0028 29.3416 49.4128 29.2986 45.8242 29.1942ZM42.8213 34.3983C45.2027 34.1698 50.2528 33.8552 52.3604 34.7909C57.8434 37.2259 58.5394 46.5392 56.3496 51.3876C54.7432 54.9439 52.1824 56.447 48.7217 57.7704C30.6063 60.757 29.8828 37.135 42.8213 34.3983ZM63.1875 24.4149C58.8268 27.9509 60.177 33.7931 66.5527 33.1093C68.783 31.7574 70.4271 29.6203 68.6445 26.9667C67.7798 25.6582 66.4203 24.7781 64.8945 24.5389C64.3461 24.4504 63.7431 24.4293 63.1875 24.4149Z" fill="currentColor"/>
</svg>
