<svg width="89" height="93" viewBox="0 0 89 93" fill="none" xmlns="http://www.w3.org/2000/svg">
<g clip-path="url(#clip0_688_4831)">
<path d="M0 47.5526C0.0897488 47.1671 0.0954739 46.3166 0.111526 45.8869C0.147801 44.9157 0.169697 43.9667 0.233032 42.9945C0.403091 39.9254 0.638193 22.8551 0.938181 19.796C1.30068 15.8167 1.48252 11.4527 3.26767 7.84506C6.89294 0.518724 15.4846 3.14027 21.92 3.064C22.6286 3.05561 23.3658 2.98813 24.0806 2.95019C28.4731 2.71708 32.8486 2.20186 37.2476 2.06805C39.66 1.9987 42.0915 2.01186 44.5056 2.0003C50.5505 1.9834 56.5954 2.00782 62.6403 2.07357C65.8513 2.07418 69.0628 2.10517 72.2734 2.16653C73.5488 2.19212 74.8343 2.13546 76.1046 2.23367C76.5622 2.26018 76.9411 2.48741 77.3509 2.65411C78.6411 3.17916 79.8136 3.61977 81.0561 4.26355C85.5652 6.60014 87.9918 11.093 88.6519 16.0004C88.7106 16.4373 88.7944 16.8696 88.8149 17.312C88.8814 17.8735 88.8131 18.8845 89 19.3997L89 38.9801C88.9961 38.9932 88.9917 39.0065 88.9878 39.0196C88.7771 40.6566 88.8783 42.3543 88.8131 44.0071C88.7723 44.8041 88.6597 45.5905 88.6424 46.3901C88.5333 51.4341 88.6875 70.6757 88.3625 75.7133C88.1435 79.1073 87.522 83.3833 85.596 86.2549C83.6544 89.1505 79.7936 89.3182 76.6582 89.4747L71.7706 89.6907C67.1989 89.9132 62.6251 90.0961 58.0503 90.2382L47.5129 90.5633C40.9617 90.7102 34.4084 90.7258 27.8568 90.6102C21.6845 90.5007 15.124 90.5724 9.14692 89.0627C3.5701 87.6543 -0.127283 83.5251 0.189545 77.6163C0.286948 75.7998 0.302687 74.1284 0.141757 72.3128C0.0841346 71.6627 0.144863 70.5928 0 70V47.5526ZM28.9122 70C36.7902 65.3571 44.5737 60.5554 52.2585 55.5987C54.9844 53.7325 57.9977 51.8642 60.7908 49.996L65.1608 47.0804C65.8338 46.635 67.2828 45.6589 68 45.3571C59.4796 40.6589 50.8583 36.1472 42.1414 31.8248C39.8777 30.6927 37.599 29.5911 35.3058 28.5204C33.0798 27.4631 31.5605 26.7046 29.2558 25.8589C29.3386 26.2666 29.3954 26.6469 29.4532 27.0567C30.9527 37.6928 30.1213 48.1634 29.5989 58.8454L29.1943 66.249C29.139 67.1667 29.0626 69.1898 28.9122 70Z" fill="currentColor"/>
</g>
<defs>
<clipPath id="clip0_688_4831">
<rect width="89" height="93" fill="white"/>
</clipPath>
</defs>
</svg>
