<svg width="94" height="93" viewBox="0 0 94 93" fill="none" xmlns="http://www.w3.org/2000/svg">
<path d="M24.9441 0.274549C28.5278 0.0502482 33.2626 -0.0569065 36.8931 0.0302597C43.0879 0.179053 49.426 0.272884 55.6477 0.585738C66.2795 1.12039 79.6716 -0.367817 87.7593 7.80554C90.1444 10.2159 92.0191 13.9466 92.6867 17.2439C94.2253 24.8438 93.7556 33.4666 93.861 41.2346C93.9695 49.2398 93.9639 57.264 93.9995 65.2425C94.0329 72.6805 92.2308 79.5977 86.6537 84.8841C78.4431 92.6668 65.5429 93.1529 54.8638 92.9722C54.5248 90.1021 54.5203 86.1127 54.4457 83.1674C54.276 76.6252 54.213 70.0811 54.2564 63.537C56.6476 63.1786 64.2598 63.2041 65.6632 61.8736C67.3927 60.2335 72.2699 48.7559 70.479 46.6434C68.5171 45.7775 58.3003 46.1376 55.1512 46.0215C55.5118 25.7468 62.0551 37.5895 68.8258 31.8773L69.0585 31.6783C70.9341 29.1937 71.0973 25.8034 71.3045 22.8145C71.4077 21.3285 71.2182 18.8665 70.0879 17.838C68.793 16.6599 65.1142 16.6554 63.484 16.6232C56.3827 16.4827 48.0148 16.2079 42.6205 21.6075C36.3671 28.1652 36.5912 37.7652 36.6559 46.1384C32.3179 46.8765 28.073 45.058 24.6112 46.5526C23.6012 47.3068 23.2 49.5348 23.1063 50.522C21.9348 62.8954 23.7689 63.4925 35.7752 64.2329C35.9956 74.5552 33.6313 82.356 34.9775 92.877C27.5545 92.5666 12.5752 91.8807 6.84894 87.2473C3.97852 84.9338 1.69469 80.938 1.64114 77.1626C1.48271 63.223 -0.449224 48.6757 0.0969887 34.7849C0.517023 24.1031 -1.59127 10.82 9.38261 4.83218C15.2112 1.652 18.3814 0.792827 24.9441 0.274549Z" fill="currentColor"/>
</svg>
