<svg viewBox="0 0 57 56" fill="none" xmlns="http://www.w3.org/2000/svg">
<path d="M0 26.519C0.0702986 26.3396 0.0922666 26.0067 0.104336 25.8065C0.139954 25.2161 0.212923 24.6375 0.295029 24.0521C0.46308 22.8703 0.709368 21.7009 1.03227 20.5517C3.20714 12.7701 8.62094 6.29823 15.896 2.783C22.665 -0.472963 30.4543 -0.889513 37.5319 1.62597C44.5211 4.12349 50.2443 9.27479 53.4614 15.9633C54.6425 18.4333 55.458 21.0619 55.8824 23.7666C55.9683 24.3148 56.0227 24.8721 56.0833 25.4228C56.1171 25.7279 56.127 26.3698 56.2165 26.6346V29.5983C56.1281 29.8747 56.1122 30.4061 56.0874 30.7084C56.0531 31.0916 56.0133 31.4739 55.968 31.8557C55.8456 32.8706 55.5599 34.2353 55.3049 35.2024C53.3367 42.6955 48.3676 49.0465 41.5675 52.759C39.2387 54.0316 36.7422 54.9693 34.1512 55.5441C33.6371 55.6594 33.1123 55.7527 32.5935 55.8444C32.302 55.896 31.7936 55.9168 31.5293 56L31.5268 43.0864C31.5268 40.0634 31.4938 36.9718 31.5317 33.9559C31.8726 33.9803 32.3176 33.968 32.6654 33.9683L34.6736 33.968L37.06 33.9669C37.435 33.9666 37.9189 33.9806 38.2873 33.9628L38.9667 28.7139L39.1822 27.0422C39.2176 26.7684 39.2538 26.3863 39.306 26.1268L34.1663 26.1259C33.3758 26.1258 32.2803 26.0933 31.5213 26.1313C31.5411 24.9234 31.5188 23.6975 31.5262 22.4894C31.5383 20.5428 31.2808 18.1171 33.6687 17.5029C34.8399 17.2017 36.0065 17.2951 37.2042 17.2781C37.9244 17.2772 38.7276 17.2621 39.4396 17.2798C39.4838 17.2812 39.5283 17.2834 39.5725 17.2862C39.545 16.4824 39.5686 15.5428 39.5689 14.7303L39.5703 10.2716C38.897 10.224 38.2091 10.1405 37.533 10.0937C36.5429 10.031 35.5511 9.99251 34.5588 9.97835C33.9506 9.96893 33.2204 9.95266 32.6108 9.99726C30.4093 10.1583 28.3547 10.7766 26.6538 12.2337C24.5608 14.0266 23.6505 16.5989 23.464 19.2827C23.3949 20.2769 23.4148 21.3121 23.4148 22.312L23.4109 26.1328L18.8171 26.1325L17.4119 26.1336C17.1756 26.1345 16.8677 26.1486 16.6378 26.1307L16.6412 30.8481C16.6412 31.8505 16.6651 32.9677 16.6367 33.957C18.8703 34.0138 21.168 33.9485 23.4108 33.9759L23.4112 55.7991C22.9867 55.7049 22.558 55.641 22.1329 55.5498C21.3225 55.3739 20.5202 55.1622 19.7285 54.9155C14.7016 53.3223 10.2148 50.3668 6.76662 46.377C5.44795 44.8432 4.28365 43.1084 3.32715 41.3294C1.90155 38.7027 0.916221 35.8598 0.41035 32.9145C0.331806 32.4418 0.259637 31.9417 0.202355 31.486C0.160936 31.1566 0.0845273 29.8725 0 29.6592V26.519Z" fill="currentColor"/>
</svg>
