<svg width="24" height="24" viewBox="0 0 24 24" fill="none" xmlns="http://www.w3.org/2000/svg">
<g clip-path="url(#clip0_180_6084)">
<path d="M12.4972 0.0621758C15.3241 0.0621758 18.1508 0.0621758 20.9775 0.0621758C21.1962 0.0621758 21.4148 0.0548399 21.6335 0.0523817C22.8059 0.0399929 23.5717 0.72096 23.6942 1.89102C23.7117 2.05817 23.712 2.22689 23.7138 2.39493C23.7396 4.26054 23.7605 6.12633 23.7898 7.99185C23.8304 10.5818 23.8815 13.1715 23.9196 15.7614C23.9475 17.6669 23.6918 19.5527 23.4861 21.4407C23.4088 22.1505 22.9217 22.6009 22.3689 22.9829C22.2459 23.0714 22.1099 23.1404 21.9657 23.1874C21.1483 23.4317 20.3466 23.7085 19.4649 23.6939C14.7033 23.6142 9.94137 23.5506 5.17917 23.5031C4.59303 23.5028 4.00726 23.5328 3.42422 23.5929C2.19343 23.7066 1.17294 23.3282 0.391074 22.3567C0.16495 22.0801 0.04444 21.7323 0.0510385 21.3751C0.0728746 19.4252 0.0982503 17.4754 0.127168 15.5257C0.174184 12.6667 0.232023 9.80791 0.28022 6.94893C0.303236 5.58674 0.254451 4.22015 0.349074 2.86327C0.436911 1.60472 1.13429 0.818131 2.22501 0.52768C3.13917 0.284131 4.05894 0.303568 4.97694 0.274956C7.48288 0.196296 9.99035 0.165036 12.4972 0.114891V0.0621758ZM12.4334 6.67992C12.4385 6.71743 12.4456 6.75458 12.4551 6.79121C13.1263 8.81444 13.8043 10.8355 14.4622 12.8632C14.5433 13.1128 14.706 13.1935 14.9077 13.2881C16.2469 13.9169 17.5823 14.5538 18.9191 15.1875C19.0231 15.2366 19.129 15.2819 19.2095 15.318C19.2601 15.2993 19.2802 15.2983 19.2905 15.2872C20.2446 14.2917 21.2012 13.2988 22.1457 12.2943C22.2425 12.1818 22.2969 12.039 22.2994 11.8907C22.2896 10.8818 22.3068 9.8692 22.2259 8.86501C22.1204 7.35458 22.1164 5.83878 22.2137 4.32782C22.242 3.65806 22.2052 2.98713 22.104 2.32446C22.0214 1.73127 21.9387 1.60992 21.3702 1.55898C21.104 1.53519 20.839 1.48141 20.5735 1.47502C19.9848 1.46086 19.3947 1.48483 18.8068 1.45926C18.6825 1.4536 18.5583 1.47388 18.4421 1.51885C18.326 1.56381 18.2205 1.63248 18.1324 1.72044C16.2454 3.36895 14.3531 5.01086 12.433 6.67992H12.4334ZM6.96766 1.47856C6.20704 1.47856 5.46924 1.47568 4.73133 1.47972C4.34488 1.48188 3.95576 1.46991 3.57245 1.50924C2.20966 1.64817 1.56284 2.37893 1.65058 3.84839C1.77461 5.92677 1.81327 8.01289 1.80933 10.0955C1.8056 12.095 1.70035 14.0941 1.64212 16.0933C1.63858 16.2145 1.65658 16.3361 1.66504 16.4656L10.065 10.9931C9.16602 7.78521 8.09606 4.66065 6.96766 1.47808V1.47856ZM10.4533 12.4916C10.3816 12.5256 10.3656 12.5314 10.3514 12.5403C7.47763 14.3422 4.60337 16.1433 1.72868 17.9436C1.66327 17.9802 1.60972 18.0347 1.57441 18.1008C1.5391 18.1669 1.52352 18.2416 1.5295 18.3164C1.53225 19.1062 1.50176 19.8974 1.53992 20.6855C1.57652 21.441 2.00596 22.0129 2.64481 22.1358C3.33383 22.2854 4.03512 22.3718 4.73989 22.3935C7.53088 22.4109 10.322 22.3814 13.113 22.3674C13.2544 22.3667 13.3956 22.3485 13.5686 22.3364C12.2784 19.1144 11.5165 15.7752 10.4533 12.4911V12.4916ZM15.195 14.8063L15.0697 14.8922C15.9182 17.3783 16.7666 19.8645 17.6321 22.4009C18.5029 22.4009 19.3614 22.4327 20.2157 22.3875C20.6502 22.3509 21.077 22.2513 21.4826 22.0917C21.9296 21.9294 22.2667 21.6075 22.2958 21.0951C22.3393 20.3256 22.3617 19.5554 22.3627 18.7845C22.3627 18.6811 22.2054 18.5444 22.089 18.4797C21.458 18.1282 20.8176 17.7938 20.1796 17.4546C18.5183 16.5711 16.8568 15.6881 15.195 14.8058V14.8063ZM8.21645 1.52398C8.26052 1.66616 8.28727 1.77538 8.3276 1.8794C8.69802 2.83433 9.08812 3.78201 9.43907 4.74382C10.2739 7.02997 10.9796 9.35613 11.6355 11.7005C12.2954 14.059 13.033 16.3962 13.7622 18.7347C14.1408 19.949 14.5747 21.146 14.9782 22.3345H16.0733C13.4029 15.4931 11.5123 8.43492 9.12333 1.52398H8.21645ZM11.9845 5.39326L16.7026 1.49379H10.5059C11.0123 2.82913 11.4976 4.10876 11.9845 5.39277V5.39326ZM22.3894 17.0151V13.8442L22.2937 13.8135L20.4373 15.9839L22.3894 17.0151Z" fill="#E1CDAD"/>
<path d="M17.9555 8.83939C18.0665 8.88314 18.1742 8.93461 18.2778 8.99346C19.2336 9.58432 20.1877 10.1781 21.1401 10.7745C21.5336 11.0195 21.6261 11.3538 21.4017 11.7578C21.3344 11.874 21.2559 11.9833 21.1673 12.0843C20.7226 12.6089 20.278 13.1336 19.824 13.65C19.7148 13.7741 19.5624 13.8591 19.4423 13.9745C19.1236 14.2818 18.7833 14.2589 18.4298 14.0523C17.9374 13.7639 17.4466 13.4732 16.9574 13.1804C16.6409 12.9905 16.3209 12.8049 16.0166 12.5967C15.5224 12.2581 15.412 11.7825 15.7473 11.2972C16.2526 10.5658 16.7879 9.85498 17.3151 9.13878C17.3839 9.03479 17.4801 8.95184 17.5932 8.89903C17.7062 8.8462 17.8316 8.82555 17.9555 8.83939ZM17.9367 9.98772L16.5794 11.6715L18.789 12.8988L20.1817 11.3216L17.9367 9.98772Z" fill="#E1CDAD"/>
<path d="M7.49427 7.7811C7.69994 7.90754 7.95371 7.99476 8.10361 8.17046C8.3863 8.50127 8.63398 8.86041 8.8427 9.24219C8.98259 9.51174 9.0235 9.82178 8.95832 10.1184C8.89313 10.4149 8.72598 10.6793 8.48594 10.8654C7.97648 11.2473 7.44569 11.6 6.89614 11.9216C6.34699 12.2414 5.88765 12.069 5.62955 11.4801C5.4346 11.0356 5.27043 10.5837 4.91152 10.2277C4.73535 10.0529 4.76584 9.82044 4.97801 9.59842C5.19069 9.38493 5.41939 9.18798 5.66211 9.00934C6.08742 8.68343 6.51909 8.36593 6.95712 8.05687C7.12986 7.95315 7.3093 7.86104 7.49427 7.7811ZM6.53939 10.6691L7.74194 9.89766L7.26981 9.24867L6.03804 10.0291L6.53939 10.6691Z" fill="#E1CDAD"/>
<path d="M5.90213 15.9878C6.28082 15.9623 6.51493 16.0788 6.64968 16.3031C6.94172 16.7908 7.24752 17.2795 7.4586 17.8037C7.66673 18.3207 7.36299 18.7851 7.00299 19.0986C6.47477 19.5406 5.90928 19.936 5.31285 20.2804C4.84731 20.5611 4.47679 20.4453 4.19489 19.9876C3.90462 19.5157 3.63541 19.0301 3.378 18.5393C3.15689 18.1178 3.23361 17.7186 3.58938 17.4012C3.78045 17.2369 3.98483 17.0887 4.20041 16.9582C4.64112 16.6805 5.08673 16.4106 5.53723 16.1486C5.65474 16.086 5.7767 16.0323 5.90213 15.9878ZM5.82836 17.325L4.36623 18.0957L5.09716 18.9752L6.24226 18.2301L5.82836 17.325Z" fill="#E1CDAD"/>
</g>
<defs>
<clipPath id="clip0_180_6084">
<rect width="24" height="23.6962" fill="white"/>
</clipPath>
</defs>
</svg>
