<svg width="40" height="45" viewBox="0 0 40 45" fill="none" xmlns="http://www.w3.org/2000/svg">
<path d="M2.86012 43.1733C3.94714 44.0017 5.26827 44.4553 6.62915 44.4672C7.65461 44.4549 8.66492 44.2156 9.58914 43.766C11.7121 42.7711 12.7938 40.9778 12.8045 38.4359C12.8053 38.2518 12.8066 38.0678 12.8085 37.8837C12.8109 37.6207 12.8133 37.3578 12.8133 37.095V33.0758C12.8133 29.6307 12.8144 26.1858 12.8166 22.741C12.8171 22.6686 12.8213 22.5963 12.8292 22.5245C13.1001 22.4155 13.3653 22.3154 13.6217 22.2184C14.2095 22.0114 14.7833 21.766 15.3397 21.484C18.2706 19.9136 21.2439 18.306 24.1196 16.7514C26.9289 15.2328 29.8339 13.6623 32.6955 12.1279C33.5539 11.6678 34.424 11.2657 35.3453 10.8401C35.6806 10.6852 36.0179 10.5294 36.3569 10.3696V26.0909C36.2686 26.0184 36.1816 25.9468 36.0961 25.8759C35.7259 25.5546 35.3348 25.259 34.9254 24.9912C33.2848 23.9705 31.572 23.9401 29.9729 24.9026C27.869 26.1694 26.6212 28.1597 26.3646 30.6583C26.0485 33.7415 27.737 36.2103 30.5674 36.8017C33.301 37.3723 35.913 36.5669 37.7302 34.5899C39.4229 32.7492 40.0984 30.2616 39.4929 28.0974C39.4354 27.8342 39.4137 27.5646 39.4278 27.2955C39.4278 27.2311 39.4278 27.1672 39.4278 27.1034C39.4083 24.5779 39.3893 22.0523 39.3707 19.5266C39.3307 14.1381 39.2878 8.74949 39.2417 3.3609C39.2524 2.67461 39.1748 1.98987 39.0107 1.32388C38.89 0.891591 38.5049 0.350362 38.0933 0.229515C37.2614 -0.0147881 36.2706 -0.187798 35.2341 0.378762C32.7574 1.73157 30.0979 3.10615 27.3294 4.46437C21.1294 7.50586 16.2511 10.2096 11.9797 12.9725C11.6444 13.1894 11.2682 13.6957 11.2448 14.1361C11.0126 18.5607 10.8024 23.2232 10.6205 27.9944C10.5801 29.0503 10.5901 30.1104 10.6006 31.2328C10.6048 31.6804 10.6092 32.1409 10.6105 32.6162L10.318 32.4999C10.0247 32.3837 9.81275 32.2996 9.60501 32.205C9.38492 32.1051 9.16257 31.9906 8.94801 31.8798C8.52071 31.6424 8.07245 31.4458 7.60904 31.2925C5.1449 30.5652 3.17201 31.0048 1.74455 32.598C1.10226 33.3534 0.619689 34.2337 0.326636 35.185C0.0335818 36.1363 -0.0637552 37.1381 0.0405974 38.1289C0.14495 39.1196 0.448808 40.0783 0.933409 40.9457C1.41801 41.8131 2.0731 42.5708 2.85828 43.1722L2.86012 43.1733ZM10.6118 37.4589C10.6139 37.5894 10.6157 37.7131 10.6087 37.8359C10.464 40.3148 9.3707 41.5844 7.06416 41.9552C5.21347 42.2504 3.26987 40.9992 2.54361 39.0407C1.91079 37.3354 2.13938 35.649 3.2227 34.0284C3.75634 33.2302 4.54082 32.8432 5.65326 32.8432C6.61509 32.8488 7.56248 33.0806 8.42068 33.52C10.2041 34.3965 10.9007 35.5785 10.6125 37.2407C10.6107 37.2517 10.6098 37.2627 10.6098 37.2739C10.6098 37.3354 10.6107 37.3973 10.6118 37.4589ZM12.8975 20.5098V14.3074L36.5049 2.41078V7.29835L12.8975 20.5098ZM36.5394 31.9296C36.1431 32.935 35.2243 33.4732 34.5233 33.7477C33.9493 33.9715 33.3397 34.1453 32.7501 34.3128C32.494 34.3855 32.2376 34.4582 31.9831 34.5352C29.8662 34.3665 28.5313 32.8973 28.6577 30.8698C28.6988 30.066 28.9139 29.2814 29.2881 28.5712C29.6623 27.8611 30.1862 27.2429 30.8229 26.7604C31.3067 26.3546 31.9128 26.128 32.5412 26.118C32.956 26.1211 33.3643 26.2205 33.7349 26.4087C35.6671 27.3611 36.5458 28.5254 36.5832 30.1838C36.5873 30.3466 36.5995 30.5139 36.6118 30.6821C36.6441 31.1226 36.6774 31.5784 36.5392 31.9296H36.5394Z" fill="#E1CDAD"/>
</svg>
