<svg width="24" height="24" viewBox="0 0 24 24" fill="none" xmlns="http://www.w3.org/2000/svg">
<path d="M11.1367 4.00019C11.2482 4.0323 9.13852 4.0601 7.36215 4.00019C5.58578 3.94027 3.75773 3.67284 3.53319 4.79801C2.71105 8.9178 2.78542 18.5085 4.13791 21.0001C4.82814 22.2717 18.0655 21.1511 19.6375 20.8063C21.2095 20.4615 21.6375 19.5001 21.6375 17.0001C21.6375 14.5001 21.6375 13.5 21.6367 11" stroke="currentColor" stroke-width="3" stroke-linecap="round"/>
<path d="M9.63672 15.5443C9.7291 15.4508 9.98238 15.0483 10.3629 14.4685C12.8809 10.6318 16.4132 7.6851 19.5217 4.36108" stroke="currentColor" stroke-width="3" stroke-linecap="round"/>
<path d="M15.2109 3.55027C16.9216 3.2609 18.6108 3.00249 20.3535 3C21.6876 2.99809 21.2445 6.15663 21.3903 7.03106" stroke="currentColor" stroke-width="3" stroke-linecap="round"/>
</svg>
