<svg width="64" height="64" viewBox="0 0 64 64" fill="none" xmlns="http://www.w3.org/2000/svg">
<path d="M28.0878 2.00979C28.1182 2.00749 28.1486 2.00552 28.1791 2.00386C29.0613 1.95796 29.6953 2.65383 29.6975 3.5161C29.6992 4.13038 29.3188 4.85588 28.9306 5.31753C28.7218 5.56588 28.429 5.76672 28.2465 6.04272C27.751 6.77182 27.2524 7.52753 26.8075 8.28825C25.584 10.3803 24.5331 12.5223 23.4399 14.6815L18.7343 23.8841C18.37 24.5805 18.4136 25.1068 17.9623 25.8398C17.2363 27.0189 16.738 28.2612 15.1349 28.2239C14.445 28.1113 13.7345 27.7381 13.5434 27.0065C13.4852 26.7838 13.4761 26.5008 13.542 26.2767C13.7777 25.4744 14.1939 24.7187 14.5074 23.9436C16.0917 20.3283 18.0523 16.8922 20.0595 13.499C21.4562 11.1379 22.7797 8.73022 24.2603 6.41772C24.776 5.61222 25.3849 4.8445 25.9182 4.04935C26.0751 3.81535 26.116 3.40594 26.2728 3.15694C26.599 2.63893 27.5122 2.15772 28.0878 2.00979Z" fill="currentColor"/>
<path d="M29.4011 25.3893C30.5375 25.349 31.7216 25.3822 32.8613 25.398C34.5019 25.4066 36.1426 25.439 37.7823 25.4954C38.5104 25.5174 39.2385 25.5353 39.9666 25.549C40.6023 25.5623 41.6594 25.4866 42.1501 25.9282C42.9982 26.6915 42.6929 28.33 41.4829 28.5236C41.0357 28.5951 40.6338 28.5922 40.1832 28.6008L38.5038 28.6335L32.4851 28.7539C29.0346 28.8027 25.7221 28.7228 22.2975 28.196C21.8688 28.13 21.3884 28.0293 20.9401 27.9378C20.4703 27.8218 19.8651 27.805 19.4442 27.5663C19.1893 27.4091 19.23 26.7412 19.4237 26.5948C19.6945 26.3901 20.3258 26.327 20.6634 26.2599C21.2151 26.1502 21.7708 26.0288 22.3179 25.9437C24.6741 25.577 27.0218 25.4455 29.4011 25.3893Z" fill="currentColor"/>
<path d="M33.6318 45.3584C37.624 45.2884 41.7724 45.4213 45.7584 45.8084C46.1043 45.8419 46.4424 46.0981 46.4368 46.4788C46.4324 46.6938 46.3377 46.8969 46.1759 47.0384C45.8627 47.3109 44.4349 47.3272 43.9484 47.3641C39.1077 47.7003 34.2521 47.7672 29.4041 47.5647L20.5557 47.2566L18.1099 47.1831C17.7344 47.1681 17.35 47.1563 16.9762 47.1144C16.7808 47.0922 16.6903 47.0181 16.5348 46.9013C16.3743 46.3825 16.423 45.9419 17.0582 45.8928C17.8164 45.8341 18.5747 45.8213 19.3347 45.7972L22.9424 45.6716C26.5042 45.5281 30.0676 45.4238 33.6318 45.3584Z" fill="currentColor"/>
<path d="M14.2586 30.1043C15.0736 30.0726 15.4428 30.3195 15.9801 30.8982C16.7197 31.0484 17.4828 30.993 18.0945 31.6009C19.3261 32.824 18.904 36.1415 17.8372 37.3159C17.2013 38.0159 15.7031 38.3702 14.7547 38.3621C13.0305 38.2768 10.4101 36.9746 10.143 35.0818C9.86191 33.0902 12.3466 30.3416 14.2586 30.1043ZM12.6711 34.5815C12.7907 34.9824 12.9331 35.1599 13.3221 35.3753C13.7549 35.6146 14.3268 35.7521 14.8178 35.7865C16.1146 35.7893 16.4371 35.7415 16.6874 34.3524C16.7436 34.0409 16.9594 33.2437 16.6465 32.9412C16.1901 32.6634 15.1856 32.6546 14.6383 32.6331C13.7898 32.9443 12.8795 33.6643 12.6711 34.5815Z" fill="currentColor"/>
<path d="M39.7268 50.9819C41.1668 50.8969 42.7255 50.9957 44.1324 51.3172C44.5755 51.4185 44.618 51.7141 44.4668 52.096C44.0405 52.4428 42.9012 52.635 42.324 52.7535C38.354 53.5685 34.3084 53.7247 30.2709 53.6457C28.3524 53.6175 26.4354 53.5235 24.5234 53.3638C23.3203 53.2957 22.1109 53.1613 20.9068 53.0878C20.4378 53.0591 19.8602 53.0519 19.4454 52.831C19.2224 52.4738 19.2447 52.2947 19.4694 51.9457C19.5604 51.8916 19.6752 51.8325 19.7817 51.8225C23.2724 51.4982 26.8057 51.5744 30.3022 51.5366C31.454 51.5132 32.6055 51.481 33.7568 51.4397C35.7218 51.3513 37.743 51.0838 39.7268 50.9819Z" fill="currentColor"/>
<path d="M49.0491 31.5457C50.8122 31.3829 52.8454 32.7438 52.9575 34.5854C53.11 37.0822 50.6272 38.6466 48.4122 38.8335C47.2432 38.8669 46.1635 38.4154 45.3885 37.5376C44.8172 36.8794 44.5288 36.0226 44.585 35.1532C44.6941 33.5094 45.9235 33.0229 47.1894 32.3485C47.5657 32.1482 47.7879 31.9172 48.245 31.9551C48.5438 31.7126 48.6635 31.6213 49.0491 31.5457ZM48.0572 33.0401C47.621 33.526 47.2285 33.9894 46.9454 34.5832C46.5197 35.4757 47.2544 36.2779 48.1185 36.4057C49.0707 36.4629 49.791 36.1129 50.5182 35.5138C51.045 35.0794 51.2057 34.4801 50.6894 33.961C50.3207 33.5957 49.7804 33.0735 49.246 32.9866C48.8375 33.5985 48.4985 33.7466 48.0572 33.0401Z" fill="currentColor"/>
<path d="M21.8065 39.5224C21.8466 39.509 21.8871 39.4968 21.9279 39.4858C22.1981 39.4133 22.7854 39.393 23.0892 39.3743L24.877 39.2633C27.8366 39.068 30.8937 38.804 33.8464 39.2027C34.8139 39.3333 36.6482 39.7071 37.482 40.1893C37.6039 40.6743 37.6732 40.873 37.1636 41.0946L37.1086 41.1877C36.9582 41.2265 36.807 41.2611 36.6545 41.2918C34.9401 41.623 33.0129 41.0471 31.2957 40.9308C30.2859 40.8627 29.3179 40.8702 28.3117 40.8411C26.3218 40.784 24.3282 40.7177 22.3401 40.6224C22.0543 40.6086 21.8962 40.5768 21.6569 40.4149C21.5192 40.0077 21.5034 39.849 21.8065 39.5224Z" fill="currentColor"/>
<path d="M33.5155 32.0772C34.2158 32.0679 35.9327 32.1719 36.4449 32.6307C36.542 32.7179 36.6264 32.8632 36.6208 32.9975C36.6164 33.1047 36.5724 33.1863 36.497 33.2603C35.6517 34.09 31.327 34.1897 30.046 34.251C29.2079 34.291 28.3762 34.3579 27.5363 34.3663C26.9354 34.3579 25.084 34.3479 24.6197 34.0185C24.4664 33.9097 24.3973 33.7272 24.3764 33.546C24.3598 33.4016 24.3794 33.25 24.4771 33.136C24.8714 32.6763 29.6946 32.3872 30.492 32.3225C31.5011 32.241 32.5045 32.1422 33.5155 32.0772Z" fill="currentColor"/>
<path d="M37.4828 40.1895C38.0916 40.6126 37.6637 41.0395 37.1094 41.1879L37.1644 41.0948C37.6741 40.8732 37.6047 40.6745 37.4828 40.1895Z" fill="currentColor"/>
<path d="M49.8406 25.7272C49.88 25.7707 49.9178 25.8157 49.9538 25.8621C50.2653 26.2608 50.5025 26.7103 50.4297 27.2331C50.2922 28.2204 49.2447 29.0202 48.2534 28.8657C47.5297 28.7529 47.1684 28.1413 46.7422 27.6238C44.1334 24.4563 42.7737 20.4996 40.9603 16.8691C40.04 15.0298 39.0228 13.2033 38.0941 11.367C37.5016 10.127 36.9187 8.87621 36.3387 7.63071C35.8669 6.61696 35.6294 5.4998 35.2459 4.45271C35.1619 4.29205 34.9238 4.12205 34.8403 3.97399C34.6634 3.66918 34.6125 3.00388 34.6747 2.67754C34.7862 2.10688 35.3894 1.8107 35.9297 1.94729C36.7928 2.16542 37.3156 2.8609 37.6387 3.63802C38.7309 6.26518 40.3016 8.61721 41.6162 11.1287C43.4925 14.7135 45.2947 18.3319 47.3522 21.8179C47.9581 22.8447 48.6119 23.8274 49.2516 24.8325C49.3119 24.2142 49.515 23.7566 50.1741 23.6082C50.6894 23.4965 51.2234 23.4434 51.75 23.3822C54.5294 23.0591 57.3447 22.7668 60.1403 23.0537C60.4359 23.0841 60.8256 23.1509 61.0984 23.1721C62.6447 23.2924 63.5516 24.3252 63.8162 25.8089C63.8612 26.0602 63.9197 26.4584 63.9912 26.7239L64 26.7546V28.6367C63.9331 28.8273 63.9009 29.0468 63.8672 29.2482C63.7966 29.7906 63.7153 30.3194 63.5966 30.8521C63.3634 31.8993 63.0262 32.8933 62.5884 33.8721C62.4437 34.1955 62.175 34.5115 62.0519 34.8474C61.9781 35.049 61.9559 35.3021 61.8856 35.509C60.9775 37.7905 60.3831 40.1777 59.5106 42.4718C58.2512 45.7824 56.8138 49.0202 55.5094 52.313C55.2853 52.8786 55.2475 53.6146 55.0725 54.2049C54.83 55.0233 54.545 55.8293 54.2972 56.6461C53.9966 57.6336 53.8153 58.6818 53.3191 59.5955C53.2406 59.769 53.0334 60.008 52.9684 60.1786C52.5994 61.1458 52.2894 61.5699 51.1347 61.5877C49.5578 61.6118 47.9363 61.5886 46.3378 61.614C41.5259 61.7177 36.7134 61.793 31.9009 61.8405L25.0253 62.0155C23.1537 62.0724 21.2892 62.158 19.422 62.0971C17.1474 62.0227 14.9363 61.8218 12.7122 61.3386C12.2446 61.2771 11.853 61.3346 11.3973 61.1802C10.0778 60.7446 10.2514 59.424 9.97816 58.2802C9.39306 55.8311 7.86644 53.8833 6.74 51.6818C4.96028 48.2036 4.08647 44.2515 3.05267 40.5024C2.81023 39.6233 2.58857 38.8424 2.21084 38.0083C1.58803 36.3902 1.32203 34.6846 0.977813 33.0011C0.746531 31.8927 0.506666 30.7863 0.258237 29.6817C0.190068 29.3648 0.12281 28.6208 0 28.3745V26.7922C0.234569 26.2321 0.141836 25.3968 0.663222 24.9403C0.925066 24.711 1.22733 24.7701 1.52746 24.6639C1.76583 24.5796 1.98596 24.3618 2.23509 24.2928C4.01822 23.9573 5.83616 23.9405 7.64678 24.0595C8.71363 24.1296 10.2522 24.5047 10.7081 25.6254C11.0441 26.4516 9.80591 26.967 9.16672 27.0626C8.28037 27.1951 7.33022 27.1361 6.42366 27.1449C5.79656 27.1534 5.16944 27.1571 4.54231 27.1557C4.23994 27.155 3.81538 27.1651 3.52325 27.1339L3.48106 27.1292C3.7185 28.8105 4.14381 30.8257 4.50344 32.4849C4.89572 34.3736 5.32512 36.2543 5.79134 38.1258C6.46344 40.859 7.13781 43.888 8.19681 46.4783C9.69919 50.153 12.2596 53.4455 13.271 57.339C13.3922 57.8055 13.3734 58.4643 13.4562 58.9836C15.811 58.6086 18.1924 58.4255 20.5769 58.4365C23.8714 58.4365 27.1742 58.6927 30.4578 58.6965C33.1053 58.684 35.7525 58.639 38.3988 58.5611C42.5563 58.4758 46.7147 58.4218 50.8731 58.399C50.8462 57.7021 50.9006 57.129 51.0916 56.4524C51.1619 56.2033 51.3491 55.6786 51.3853 55.4477C51.2675 55.2265 51.4481 54.6036 51.5053 54.3218C50.6478 54.373 50.5884 54.1686 49.9947 53.6433C49.7331 53.4121 48.9166 53.2949 49.4734 52.6486C49.9303 52.1186 50.6016 52.629 51.0672 52.8205C51.2006 52.8752 51.7475 52.828 51.9212 52.8177C52.1253 52.3593 52.3219 51.8349 52.5094 51.3649C52.6578 50.9927 52.8603 50.5124 52.9787 50.1377C52.3256 49.9615 50.9316 49.3055 51.6997 48.4793C51.9997 48.1565 53.1975 48.5993 53.6556 48.6493C53.9234 48.019 54.2703 47.3065 54.5575 46.6743C53.9253 46.6005 53.1697 46.6727 52.6712 46.324C52.0553 44.9724 54.4409 45.1627 55.2319 45.1705C55.5588 44.4311 55.9453 43.5361 56.2269 42.784C55.8334 42.6721 55.535 42.5618 55.1209 42.4855C54.5569 42.3818 53.7819 42.4574 53.2828 42.214C52.9741 41.1515 53.5822 41.2705 54.3662 41.1477C55.355 40.993 55.8097 41.1158 56.7281 41.4561C57.0528 40.3565 57.4325 39.2896 57.7475 38.1552C57.3856 38.0811 55.6547 37.6515 55.4953 37.4411C55.4147 37.3346 55.4078 37.2021 55.4306 37.0749C55.4622 36.8993 55.5469 36.743 55.6956 36.6405C56.2059 36.2902 57.61 36.6165 58.2113 36.7371C58.4003 35.8583 59.0222 34.3636 59.3072 33.468C58.93 33.684 58.6931 33.9936 58.2356 33.9977C57.9619 34.0005 57.6987 33.8946 57.5034 33.703C57.0022 33.2099 57.1047 32.5261 57.6081 32.0799C58.4131 31.3665 59.2416 31.2238 60.2731 31.2518C60.855 30.1771 61.2084 27.812 61.2378 26.5438C60.7069 26.435 60.1862 26.3227 59.6472 26.2532C58.2641 26.0746 56.8637 26.1002 55.4803 26.0621C54.0259 26.0219 51.1559 26.1516 49.8406 25.7272Z" fill="currentColor"/>
</svg>
