<svg width="24" height="24" viewBox="0 0 24 24" fill="none" xmlns="http://www.w3.org/2000/svg">
<path d="M15.5443 3.01261C15.8375 3.0052 16.1309 3.00126 16.4242 3.0008C17.3409 2.99764 18.2577 3.00382 19.1744 3.01937C19.6769 3.02712 20.333 3.01662 20.8156 3.10985C21.7729 3.29482 21.9279 4.25431 21.9138 5.08557C21.8934 6.29279 21.8504 7.50986 21.8266 8.72186L21.7609 14.5673L21.7313 18.1612L21.7258 19.3404C21.723 19.8707 21.7715 20.3244 21.3526 20.7314C20.9585 21.1146 20.5911 21.093 20.0785 21.0915L19.3352 21.0902L16.0857 21.082C15.4384 21.0794 14.7723 21.1014 14.1328 21.0035C13.5459 20.9135 13.2571 20.5832 13.2355 19.9939C13.2141 19.4065 13.241 18.8271 13.2515 18.2407C13.2716 17.1969 13.2809 16.1529 13.2792 15.109C13.2766 12.497 13.1596 9.91921 13.0855 7.31185C13.074 6.86862 13.0664 6.42529 13.063 5.98193C13.0564 5.34736 13.0395 4.80144 13.1744 4.17276C13.4213 3.02174 14.5725 3.03784 15.5443 3.01261ZM18.0261 18.2194C18.1827 18.2112 18.3277 18.2047 18.4765 18.1509C19.1916 17.8917 19.1657 17.0459 19.1732 16.4274C19.1768 16.0335 19.1772 15.6394 19.1747 15.2455C19.1661 13.9862 19.1475 12.7269 19.1185 11.4679C19.0994 10.5706 19.0898 9.67308 19.0895 8.77554C19.0911 8.14504 19.1077 7.51215 19.0834 6.88309C19.063 6.35692 18.9448 6.03071 18.3734 5.95206C17.9957 5.90006 17.6632 5.86785 17.2808 5.88159C16.9279 5.88986 16.4317 5.92308 16.2384 6.27565C16.1943 6.35603 16.1995 6.50975 16.1909 6.60073C16.1857 7.0661 16.1857 7.53331 16.1838 7.99864L16.1914 11.6568L16.1983 15.3557C16.2027 15.9718 16.2061 16.5941 16.2233 17.2055C16.2311 17.4903 16.2727 18.024 16.5638 18.1561C16.952 18.3321 17.6026 18.2342 18.0261 18.2194Z" fill="#F9F4EC"/>
<path d="M7.60607 3.18909C7.97778 3.1884 8.34947 3.19058 8.72113 3.19567C9.35948 3.21067 10.3806 3.27385 10.8504 3.74439C11.1759 4.07053 11.1622 4.72642 11.1755 5.15937C11.1847 5.45631 11.1932 5.76219 11.2021 6.06059L11.2955 8.98065C11.4117 12.473 11.5458 15.9638 11.45 19.4594C11.4297 20.2007 11.2531 20.7718 10.4368 20.9542C9.87189 21.0805 9.23216 21.0298 8.65344 21.0326C8.07522 21.0354 7.48739 21.0258 6.90895 21.0035C6.28047 20.9685 5.65688 20.9779 5.0253 20.9276C4.32937 20.8724 3.52346 20.8038 3.22891 20.0462C2.95609 19.3446 3.00254 18.5057 3.00366 17.76L3.00595 16.0685L3.0152 10.9141L3.03082 7.17423C3.03841 6.48455 3.02785 5.74935 3.1 5.06793C3.15802 4.60867 3.23697 4.07016 3.56808 3.72073C3.74653 3.53241 4.08767 3.45932 4.33014 3.41974C4.5792 3.37907 4.84032 3.35577 5.09257 3.33139C5.92823 3.25119 6.7667 3.20372 7.60607 3.18909ZM7.35891 18.3009C7.66896 18.2883 8.35777 18.2917 8.54387 18.0343C8.72714 17.7807 8.7019 16.8994 8.71121 16.5797C8.7314 15.711 8.73856 14.8421 8.73269 13.9732C8.72677 12.3128 8.69677 10.6527 8.64273 8.99332C8.61719 8.23347 8.58945 7.47261 8.55092 6.71539C8.51348 5.9797 8.27813 5.85859 7.57445 5.86453C7.44915 5.86559 7.30916 5.86553 7.18215 5.8667C6.52273 5.88813 5.87436 5.85027 5.81652 6.71884C5.78831 7.14241 5.8052 7.56825 5.80732 7.99289C5.80884 8.81488 5.81628 9.63687 5.82961 10.4588C5.84306 12.4137 5.87754 14.3686 5.93304 16.3228C5.94465 16.7155 5.95475 17.1138 5.96305 17.5068C5.97251 17.954 6.08582 18.1557 6.55008 18.2504C6.81799 18.305 7.08727 18.302 7.35891 18.3009Z" fill="#F9F4EC"/>
</svg>
