<svg width="24" height="22" viewBox="0 0 24 22" fill="none" xmlns="http://www.w3.org/2000/svg">
<g clip-path="url(#clip0_180_6093)">
<path d="M5.06211 18.8885C5.31318 19.0141 5.3974 19.1896 5.34347 19.4751C5.29828 19.7679 5.29562 20.0658 5.33558 20.3594C5.39553 20.9119 5.69167 21.5498 6.20001 21.6447C6.5424 21.7113 6.89021 21.7461 7.23901 21.7487C7.70778 21.7531 8.17323 21.6696 8.61127 21.5026C9.15311 21.2939 9.40834 20.8202 9.29321 20.2355C9.26664 20.0989 9.23795 19.9626 9.20784 19.8183L9.19013 19.7328C9.38089 19.7505 9.56828 19.7709 9.75054 19.7905C10.2323 19.8509 10.7169 19.8863 11.2024 19.8967C11.6903 19.8958 12.1613 19.8524 12.6627 19.8031C12.8405 19.7854 13.0235 19.7677 13.2066 19.7523C13.2031 19.7789 13.1996 19.805 13.1962 19.8305C13.1772 19.9481 13.167 20.0669 13.1654 20.1861C13.1725 20.7508 13.3213 21.1869 13.5955 21.4459C13.8138 21.6524 14.1086 21.7495 14.47 21.7338C15.2537 21.7004 15.8997 21.646 16.5028 21.5626C16.9383 21.5026 17.1936 21.2071 17.2024 20.752C17.2108 20.3357 17.1947 19.9124 17.1792 19.5033C17.1743 19.3755 17.1695 19.2477 17.1654 19.12C17.161 18.9847 17.1496 18.8509 17.1388 18.7214C17.1358 18.6865 17.1328 18.6519 17.13 18.6177C17.342 18.5257 17.5514 18.4356 17.7583 18.3472C18.2637 18.1305 18.7413 17.9258 19.2207 17.7046C20.3908 17.1649 21.231 16.3525 21.7189 15.2901C21.7419 15.24 21.7706 15.191 21.8009 15.1396C21.8055 15.1319 21.8098 15.124 21.8146 15.1162C21.8546 15.1215 21.8939 15.1269 21.9326 15.1326C22.0628 15.1508 22.1858 15.168 22.312 15.1752C22.5174 15.1869 22.7203 15.1826 22.909 15.176C23.5611 15.1541 23.8164 14.9123 23.8846 14.2524C24.0111 13.0294 23.8315 11.8129 23.6573 10.6364L23.649 10.5812C23.5573 9.96028 23.3027 9.74464 22.6404 9.72648C22.3584 9.71896 22.0729 9.7209 21.7966 9.72276C21.6934 9.72347 21.5903 9.72418 21.4875 9.72436C20.8087 7.75917 19.6954 6.60921 17.9933 6.11699C18.1287 5.83019 18.2454 5.53493 18.3426 5.23306C18.5058 4.7605 18.66 4.31397 18.9696 3.93263C19.1613 3.69617 19.1859 3.45157 19.0354 3.27817C18.9672 3.21323 18.8861 3.1634 18.7974 3.13195C18.7086 3.1005 18.6142 3.08812 18.5204 3.09565C16.8648 3.24965 15.6776 3.87143 14.8918 4.99651C14.8536 5.04922 14.8129 5.09997 14.7696 5.14857L14.7626 5.15672C14.6735 5.15016 14.5878 5.14237 14.5044 5.13484C14.304 5.11253 14.1026 5.10166 13.901 5.10226C13.3311 5.11483 12.7086 5.14123 11.9981 5.18312C9.50213 5.33048 7.36946 5.96705 5.47834 7.12932C3.75795 8.18656 2.73658 9.6017 2.35559 11.4558C2.3122 11.6669 2.22991 11.7923 2.09397 11.849C2.08591 11.761 2.07972 11.6724 2.07352 11.5859C2.06314 11.304 2.024 11.024 1.9567 10.7502C1.89848 10.5366 1.76528 10.3512 1.58149 10.2279C1.39769 10.1046 1.17564 10.0517 0.955983 10.0788C0.746557 10.111 0.554174 10.2131 0.410108 10.3686C0.266041 10.5239 0.178736 10.7234 0.162371 10.9347C0.150501 11.1962 0.165554 11.4583 0.207278 11.7167C0.221182 11.827 0.235613 11.9411 0.245267 12.052C0.246996 12.0725 0.255689 12.0918 0.269894 12.1067C0.117126 12.287 -0.0557378 12.5255 0.15982 12.8123C0.364927 13.0852 0.670019 13.0311 0.915333 12.9882L0.986164 12.975C1.08446 12.9515 1.18536 12.9407 1.28639 12.9429C1.48123 12.9565 1.67908 12.9822 1.88862 13.0093C1.95415 13.0181 2.02145 13.0264 2.09097 13.0351C2.09097 13.0387 2.09052 13.0422 2.09034 13.0457C2.08671 13.1139 2.08309 13.1833 2.07627 13.2524C1.99167 13.9902 2.09177 14.7375 2.36755 15.4271C2.41732 15.5495 2.46265 15.6778 2.5064 15.8018C2.57433 16.0064 2.65418 16.207 2.74553 16.4024C2.90083 16.7356 3.0929 17.0505 3.31815 17.3411C3.76999 17.8933 4.31359 18.5136 5.06211 18.8885ZM17.5997 4.28289C17.4954 4.49146 17.4046 4.70655 17.3281 4.92682C17.1822 5.38052 17.0519 5.86672 16.9411 6.37222C16.8653 6.71761 17.004 6.92449 17.3652 7.00446C18.4927 7.25393 19.359 7.92549 20.0132 9.05687C20.2181 9.43344 20.3816 9.83116 20.501 10.243C20.6495 10.7145 20.811 10.9278 21.3755 10.9459C21.6323 10.9542 21.8916 10.9523 22.1662 10.9502C22.2693 10.9495 22.3754 10.9487 22.4857 10.9484L22.7028 13.9018C22.6001 13.925 22.501 13.9461 22.4047 13.9671C22.1291 14.0266 21.8689 14.0823 21.6186 14.1632C21.4384 14.2211 21.2112 14.3456 21.1154 14.5211C20.2717 16.0585 18.8193 16.7757 17.5098 17.2744L17.3396 17.3392C17.0088 17.4649 16.6665 17.5949 16.3336 17.7319C16.0075 17.8659 15.9868 18.2133 15.9768 18.3802C15.9517 18.8003 15.9414 19.2274 15.9313 19.6405C15.9276 19.7944 15.9239 19.9484 15.9193 20.1022C15.9177 20.161 15.9179 20.2199 15.9184 20.2959V20.3521L14.5971 20.4901C14.5802 20.3804 14.5617 20.2731 14.544 20.1675C14.4924 19.8968 14.4567 19.6233 14.4371 19.3484C14.4186 18.9793 14.3 18.7139 14.0846 18.5593C13.8544 18.3942 13.5204 18.3673 13.1177 18.4813C12.3105 18.7095 11.5173 18.7147 10.774 18.7008C10.5513 18.6966 10.3232 18.6701 10.1024 18.6443C9.94227 18.6255 9.77658 18.6063 9.61212 18.5952C9.40905 18.5797 9.20492 18.5882 9.00397 18.6207C8.49916 18.7074 8.24038 18.9691 8.13765 19.495C8.10471 19.6633 8.0861 19.8352 8.06972 19.9964C8.05944 20.0988 8.05412 20.201 8.04792 20.3193C8.04624 20.3522 8.04447 20.3864 8.04243 20.4222L6.63006 20.5197C6.61713 20.3876 6.60262 20.2581 6.58836 20.1305C6.54373 19.7913 6.51829 19.4499 6.51212 19.108C6.51274 18.785 6.46507 18.4474 6.11437 18.1682L5.92486 18.0176C5.4899 17.6862 5.07432 17.3301 4.68015 16.951C4.19953 16.4863 3.82497 15.9234 3.58211 15.3006C3.33924 14.6777 3.23379 14.0098 3.27298 13.3425C3.32275 12.1887 3.55231 11.1977 3.97484 10.3128C4.3127 9.60515 4.85433 8.98948 5.63092 8.43072C7.48131 7.0985 9.67677 6.40516 12.3425 6.31093C12.6646 6.29959 12.9928 6.2941 13.3102 6.28888C13.7919 6.28091 14.29 6.27267 14.7797 6.24353C15.0112 6.22972 15.2319 5.969 15.294 5.88886C15.8988 5.11297 16.4568 4.63917 17.1034 4.35295C17.2527 4.28688 17.4071 4.22764 17.5859 4.15901L17.673 4.12551C17.6482 4.17989 17.6235 4.23215 17.5997 4.28289Z" fill="#E1CDAD"/>
<path d="M9.78029 0.0303593C8.9472 0.102979 8.24557 0.595029 7.80436 1.41573C7.50653 1.96994 7.41859 2.5058 7.54302 3.00848C7.79214 4.01479 8.59396 4.52722 9.92642 4.53174C9.96033 4.53351 9.99399 4.53429 10.0276 4.53429C10.8327 4.53429 11.5561 4.03321 11.9778 3.17639C12.3579 2.4036 12.3741 1.76694 12.0272 1.22991C11.4765 0.377954 10.6794 -0.0477514 9.78029 0.0303593ZM10.8041 2.60827C10.5401 3.09668 10.1722 3.37655 9.82067 3.34928H9.81474C9.31667 3.34688 8.95065 3.21199 8.75604 2.95959C8.58963 2.74359 8.55076 2.44001 8.64357 2.08187C8.69013 1.88641 8.76697 1.6994 8.8713 1.52766C8.94826 1.40338 9.0556 1.30076 9.1833 1.22947C9.31092 1.1582 9.45465 1.12061 9.60078 1.12027C9.73167 1.12081 9.86088 1.14941 9.97964 1.20414C10.2066 1.30212 10.4201 1.42868 10.6151 1.58071C11.0071 1.89856 11.0527 2.14828 10.8041 2.60827Z" fill="#E1CDAD"/>
<path d="M11.6408 7.05026C10.0202 7.17655 8.6189 7.55424 7.35575 8.20508C7.12516 8.33085 6.9088 8.48113 6.71042 8.65328C6.47051 8.85352 6.41577 9.12949 6.57411 9.33991C6.60849 9.38844 6.65425 9.42768 6.70737 9.45442C6.76049 9.48108 6.81934 9.49427 6.87876 9.49295C6.99939 9.48745 7.1172 9.45451 7.22319 9.39668C8.22755 8.89985 9.37793 8.56146 10.74 8.3622C11.1406 8.30357 11.5466 8.23049 11.9466 8.14512C12.2566 8.07923 12.4312 7.88484 12.4396 7.59808V7.59524C12.4414 7.52427 12.4283 7.45372 12.401 7.38818C12.3737 7.32264 12.3328 7.26361 12.281 7.21497C12.1408 7.0855 11.9194 7.02785 11.6408 7.05026Z" fill="#E1CDAD"/>
<path d="M16.1933 9.31325C16.1855 9.43077 16.2016 9.54865 16.2403 9.65979C16.2791 9.77102 16.34 9.87331 16.4192 9.96054C16.4984 10.0477 16.5943 10.118 16.7013 10.1673C16.8083 10.2166 16.9241 10.2438 17.0418 10.2474C17.0552 10.248 17.0684 10.2483 17.0818 10.2483C17.3109 10.2477 17.5308 10.1578 17.6946 9.99765C17.784 9.91183 17.855 9.80884 17.9035 9.69486C17.952 9.58088 17.9769 9.45823 17.9767 9.33442C17.9742 8.85253 17.6211 8.46924 17.1729 8.46171C16.6088 8.45596 16.2136 8.79444 16.1933 9.31325Z" fill="#E1CDAD"/>
</g>
<defs>
<clipPath id="clip0_180_6093">
<rect width="24" height="21.786" fill="white"/>
</clipPath>
</defs>
</svg>
