<svg width="24" height="24" viewBox="0 0 24 24" fill="none" xmlns="http://www.w3.org/2000/svg">
<path d="M4.78511 3.00128C5.61502 2.96994 6.44534 3.51987 7.17377 3.87949L8.17968 4.36465C8.82931 4.68758 9.47646 5.01582 10.121 5.34936C11.8231 6.22192 13.5197 7.10564 15.2108 8.00044C16.2129 8.53158 17.2694 9.06413 18.2271 9.67538C18.8131 10.0738 19.503 10.5599 19.8764 11.1833C20.1956 11.7161 19.8395 12.3123 19.4562 12.681C19.0159 13.1044 18.5053 13.4449 18.0015 13.7822C17.2791 14.2709 16.5401 14.733 15.7858 15.1674C15.3079 15.4449 14.8073 15.7126 14.3243 15.9857L8.80753 19.1486L7.11552 20.1323C6.80406 20.3145 6.43838 20.5312 6.13115 20.6958C4.44348 21.5991 4.24842 20.3387 4.25821 18.9067C4.26061 18.5549 4.28042 18.0624 4.27539 17.701C4.25415 16.1767 4.18045 14.6535 4.15458 13.1292C4.13819 11.7669 4.13421 10.4046 4.14264 9.04235C4.14015 7.97457 4.12545 6.89499 4.09427 5.82772C4.08431 5.21494 3.98553 4.59836 4.00181 3.98621C4.0176 3.39256 4.16856 3.05031 4.78511 3.00128ZM12.6036 13.633C13.0747 13.3722 13.5441 13.108 14.0118 12.8405C14.3196 12.6614 14.6052 12.4961 14.8859 12.2727C15.4687 11.8089 14.997 11.3345 14.5312 11.0611C13.605 10.5174 12.6326 10.0564 11.6932 9.53677L8.39661 7.68868C8.23578 7.59962 8.07608 7.50841 7.91757 7.41507C7.66794 7.26613 7.42874 7.08849 7.13762 7.04755C7.09054 7.31923 7.14183 8.10693 7.1559 8.40472L7.26326 10.717C7.33005 12.3974 7.32593 14.0847 7.39639 15.7656C7.40029 15.8585 7.41313 15.9998 7.44038 16.0879C7.52135 16.35 7.93484 16.1659 8.0935 16.0921C9.02122 15.6601 9.89453 15.1157 10.7936 14.6258C11.3942 14.2924 12.0083 13.9729 12.6036 13.633Z" fill="#F9F4EC"/>
</svg>
