<svg width="24" height="24" viewBox="0 0 24 24" fill="none" xmlns="http://www.w3.org/2000/svg">
<path d="M13.1712 13.9367C14.7455 13.934 16.043 14.2453 17.264 14.8581C17.5275 14.9758 17.7623 15.1492 17.9523 15.3664C18.0726 15.5225 18.1385 15.8613 18.0478 16.0028C17.9405 16.1701 17.6353 16.297 17.4228 16.2881C17.1689 16.2778 16.9053 16.1322 16.6743 15.9968C14.8814 14.9449 12.9734 14.8236 10.9955 15.2832C9.94228 15.528 9.1154 16.1364 8.4342 16.9582C8.35818 17.0499 8.29077 17.1491 8.21496 17.2408C8.05605 17.4321 7.90248 17.736 7.60957 17.5364C7.32271 17.3413 7.39391 17.0184 7.55343 16.7578C8.22387 15.6616 9.1448 14.8625 10.3663 14.4257C11.2704 14.1187 12.2166 13.9537 13.1712 13.9367Z" fill="#131620"/>
<path d="M8.10412 11.799C7.41258 11.767 6.78957 11.5371 6.31727 10.9799C6.1178 10.7443 5.96044 10.4598 6.22753 10.2104C6.48693 9.9681 6.71581 10.1703 6.92419 10.3783C7.7938 11.2461 8.91717 10.9766 9.32862 9.809C9.38527 9.64836 9.43783 9.48597 9.50278 9.32891C9.60523 9.0819 9.80429 8.898 10.055 9.01213C10.1449 9.06293 10.2225 9.13311 10.282 9.21753C10.3415 9.30195 10.3816 9.39854 10.3992 9.50032C10.4325 9.82466 10.3838 10.1522 10.2578 10.4528C10.1317 10.7535 9.93226 11.0178 9.67767 11.2215C9.22944 11.5992 8.70172 11.7649 8.10412 11.799Z" fill="#131620"/>
<path d="M15.9141 11.0759C15.5122 11.0387 15.1253 10.9052 14.7861 10.6865C14.4469 10.4679 14.1655 10.1706 13.9658 9.81996C13.8359 9.58187 13.7755 9.31206 13.7916 9.04132C13.7989 8.8897 13.9919 8.65201 14.1307 8.62927C14.2604 8.60755 14.5098 8.78704 14.5646 8.93159C14.7092 9.31384 14.8974 9.63227 15.2555 9.84557C15.8843 10.2199 16.2897 10.1119 16.6229 9.46649C16.8919 8.94603 17.1519 8.77126 17.4523 8.90916C17.7331 9.03814 17.7996 9.40482 17.6355 9.91964C17.4061 10.6403 16.8211 11.0706 15.9141 11.0759Z" fill="#131620"/>
<path d="M6.16949 7.86662C5.8629 7.716 5.56594 7.54654 5.28032 7.35919C5.20327 7.30335 5.20542 7.07068 5.24897 6.94631C5.26946 6.88894 5.49485 6.84548 5.59505 6.88298C6.59261 7.25774 7.33005 6.76608 8.02457 6.16039C8.2268 5.98397 8.36767 5.7386 8.54502 5.53195C8.71918 5.3292 8.929 5.14264 9.2007 5.32705C9.46656 5.50788 9.38819 5.78655 9.26935 6.01747C8.78844 6.95182 7.95664 7.41205 6.98008 7.65794C6.73358 7.72002 6.47807 7.7448 6.22635 7.7868C6.20729 7.81337 6.18834 7.83998 6.16949 7.86662Z" fill="#131620"/>
<path d="M16.8492 7.26412C15.945 7.2004 15.2039 6.90431 14.6363 6.24924C14.5061 6.11522 14.4107 5.95139 14.3584 5.77203C14.3305 5.63557 14.391 5.40493 14.4922 5.33966C14.5933 5.2744 14.8651 5.30749 14.9367 5.39734C15.5309 6.14298 16.3235 6.32547 17.2187 6.28869C17.4829 6.27783 17.7573 6.35549 17.7755 6.68661C17.7923 6.99191 17.5717 7.13739 17.3006 7.19784C17.1355 7.23472 16.9654 7.24773 16.8492 7.26412Z" fill="#131620"/>
<path d="M0.424529 8.45853C-0.636043 12.627 0.292675 16.3042 3.18681 19.3895C3.26222 19.4693 3.33895 19.5489 3.41579 19.6258C4.97038 21.1804 6.90681 22.1402 8.44121 22.8082C9.09967 23.0958 12.4788 23.4451 13.393 23.3089C18.8263 22.4975 22.4018 19.4331 23.6471 14.3062C23.8849 13.302 24.0033 12.2731 23.9999 11.2411C24.0058 8.80993 22.9821 5.98352 20.8711 3.86668C20.6538 3.68698 20.4372 3.50082 20.2278 3.3204C19.7735 2.92996 19.3041 2.52571 18.8129 2.18096C15.0611 -0.45971 11.1629 -0.474486 7.22697 0.925814C3.66331 2.19282 1.37476 4.72768 0.424529 8.45853ZM7.24223 2.17398C10.6956 0.738954 14.1606 0.485695 17.5401 2.63501C18.1581 3.02843 19.8054 4.35989 20.0648 4.55987L20.0814 4.57215L20.0952 4.58743C21.4137 5.98558 22.9234 8.54204 22.8901 11.17C22.8791 12.2937 22.727 13.4115 22.4373 14.4973C21.5788 17.6175 19.5265 19.8915 16.1629 21.4468C12.7436 23.0841 7.83993 21.4289 6.53522 20.5676C5.0931 19.5817 3.83127 18.3552 2.80488 16.9416C1.19517 14.6626 0.833924 11.3866 1.6984 8.39183C2.10327 7.00906 2.81077 5.73372 3.76961 4.65827C4.72844 3.58282 5.91458 2.73421 7.24203 2.17398H7.24223Z" fill="#131620"/>
</svg>
