<svg viewBox="0 0 24 24" fill="none" xmlns="http://www.w3.org/2000/svg">
<path d="M8.62207 0.00878906C11.412 -0.111877 14.4723 1.03647 16.3379 3.16406C18.6991 5.85737 19.1801 9.91517 17.624 13.1309C17.4537 13.4882 17.2592 13.8337 17.042 14.1641C16.9109 14.3606 16.5703 14.758 16.5879 14.9619C16.6171 15.294 17.2674 15.9381 17.4795 16.1895L19.1309 18.1416L21.0381 20.3877C21.562 21.0084 22.0848 21.6364 22.6289 22.2402C22.8704 22.4945 23.0612 22.8038 23.042 23.1719C23.0174 23.6421 22.5338 24.0527 22.0703 23.9941C21.9254 23.976 21.7868 23.9234 21.666 23.8408C20.8864 23.2996 19.4436 21.4778 18.8174 20.6807C18.5183 20.3474 18.1998 19.9432 17.9131 19.5947C17.4047 18.9788 16.9001 18.3596 16.3994 17.7373C16.006 17.2441 15.563 16.6325 15.1084 16.2061C14.9885 16.0939 14.7517 16.0858 14.6123 16.1445C14.2287 16.3061 13.8691 16.5909 13.502 16.7939C12.2958 17.4602 11.0331 17.916 9.6582 18.0518C7.70462 18.2632 5.74978 17.6601 4.24902 16.3828C2.4198 14.8337 1.27841 12.6143 1.07715 10.2158C1.01424 9.52834 1.05102 9.16811 1.08496 8.4873C1.18706 6.44012 1.63451 4.24558 2.98438 2.64062C4.00623 1.42569 5.62177 0.553549 7.1582 0.203125C7.68678 0.0825592 8.08693 0.0576047 8.62207 0.00878906ZM13.2441 3.23438C11.7041 2.11716 9.81979 1.74338 7.95605 2.0293C6.54018 2.24651 4.97353 3.03492 4.14746 4.22949C3.10309 5.73998 2.70168 8.23483 3.02148 10.0283C3.33714 11.7983 4.27487 14.1164 5.78027 15.1592C6.63684 15.7527 7.31232 15.8796 8.28906 16.0098C9.7951 16.4282 11.0164 15.8041 12.3271 15.1582C13.6881 14.4957 15.3171 13.6509 15.9805 12.1865C16.7317 10.5283 16.9285 8.35388 16.3311 6.62012C15.766 4.98026 14.7456 3.98034 13.2441 3.23438Z" fill="#F9F4EC"/>
<path d="M13.2441 3.23389C14.7459 3.97993 15.7661 4.98032 16.3311 6.62053C16.9286 8.35437 16.7322 10.5285 15.9809 12.1868C15.3175 13.6512 13.6882 14.4956 12.3273 15.1581C11.0165 15.8041 9.79523 16.4279 8.28906 16.0094C8.51425 15.5919 9.94581 15.3137 10.4001 15.1884C10.5995 15.1327 10.7953 15.0644 10.9864 14.9844C11.627 14.7254 12.2286 14.3776 12.7734 13.9509C14.3119 12.7507 15.4369 10.9675 15.6783 9.06072C15.9546 6.87845 14.8477 5.24629 13.4333 3.78545C13.3271 3.67593 13.2059 3.39773 13.2441 3.23389Z" fill="#E1CDAD"/>
</svg>
