<svg width="24" height="20" viewBox="0 0 24 20" fill="none" xmlns="http://www.w3.org/2000/svg">
<g clip-path="url(#clip0_180_6102)">
<path d="M0.288671 17.7987C0.307005 18.1302 0.368893 18.4577 0.472767 18.7727C0.638412 19.2971 0.836323 19.3863 1.34721 19.3884L1.82935 19.3904C3.33139 19.3966 4.88488 19.4026 6.412 19.4007C6.56221 19.3976 6.71211 19.3862 6.86103 19.3662C7.01725 19.344 7.17484 19.3329 7.33262 19.3333C7.57977 19.3394 7.83226 19.3591 8.07633 19.3782C8.3743 19.4016 8.68161 19.4256 8.98664 19.4256C9.0062 19.4256 9.0257 19.4256 9.04515 19.4256C12.86 19.3853 15.9453 19.3414 18.7548 19.287C19.7364 19.2678 20.4495 18.8617 20.935 18.0452C21.9999 16.2538 22.8268 14.2315 23.6158 11.4874C23.7338 11.0423 23.8244 10.5904 23.8875 10.1342C23.9197 9.93033 23.9531 9.71966 23.991 9.51427C23.992 9.50871 23.9925 9.50296 23.9925 9.49722V8.84278C23.9925 8.83225 23.9908 8.82181 23.9873 8.81189C23.944 8.68745 23.9058 8.55617 23.8686 8.429C23.796 8.13486 23.6867 7.8512 23.5432 7.58476C23.0813 6.81134 22.303 6.3649 21.2924 6.29371C20.3398 6.22661 19.369 6.20882 18.4305 6.19141C18.1926 6.18704 17.9548 6.18243 17.717 6.17757C17.239 6.16727 16.7527 6.1699 16.2826 6.17236C16.1014 6.17334 15.9203 6.17408 15.7392 6.17463C16.0439 5.38152 16.2336 4.49906 16.3531 3.32042C16.4234 2.62686 16.4692 1.7167 16.1968 0.82832C16.0042 0.20021 15.7009 -0.00937952 15.0388 0.0252622C14.5929 0.0380885 14.1677 0.217866 13.8464 0.529415C13.7722 0.602345 13.6974 0.674827 13.6224 0.746906C13.2279 1.11017 12.8608 1.50228 12.5239 1.92C12.1008 2.4729 11.7055 3.06024 11.3232 3.62836C11.1561 3.87687 10.9889 4.12541 10.819 4.37182C10.022 5.52703 9.07712 6.36825 7.92916 6.94257C7.83979 6.99148 7.74168 7.02207 7.64049 7.03249C7.53929 7.04291 7.43705 7.03297 7.33969 7.00329C6.50005 6.7865 5.7888 6.73391 5.1014 6.83747C4.5715 6.91742 4.02657 6.96683 3.49965 7.01442C3.29633 7.03265 3.09319 7.05133 2.89023 7.07148C2.67414 7.09281 2.45774 7.1119 2.24137 7.13095C1.8926 7.16158 1.53195 7.19327 1.17766 7.23493C0.530566 7.31105 0.270269 7.55666 0.146012 8.20838L0.134515 8.2671C0.110204 8.37433 0.0953607 8.48352 0.0902048 8.59338C0.0858574 8.83423 0.0797335 9.07497 0.0736656 9.31581C0.0575449 9.95294 0.0407551 10.6117 0.0581438 11.2601C0.120453 13.5722 0.209698 15.8629 0.288671 17.7987ZM6.61715 7.82103C6.59732 9.53004 6.71742 11.245 6.8338 12.9041C6.94972 14.5585 7.06924 16.268 7.04787 17.9555H1.74777L1.74667 17.9448C1.73933 17.8769 1.73174 17.8067 1.72857 17.7379C1.67423 16.4596 1.61987 15.1812 1.56553 13.903C1.51415 12.6925 1.46285 11.482 1.41159 10.2716C1.4067 10.1567 1.40218 10.0417 1.39801 9.92669C1.38361 9.54882 1.36885 9.158 1.33398 8.77441C1.30953 8.50548 1.39003 8.39847 1.6419 8.36547C1.94524 8.32566 2.2483 8.28471 2.5511 8.24266C3.12728 8.16362 3.72302 8.08204 4.30997 8.01422C4.856 7.95122 5.41387 7.90484 5.95347 7.85999C6.14384 7.84424 6.33422 7.82817 6.52459 7.81182C6.55577 7.8111 6.58689 7.8142 6.61733 7.82103H6.61715ZM15.2802 3.19071C15.223 4.00926 15.0146 4.87805 14.6242 5.92469C14.4988 6.26117 14.3997 6.63411 14.5235 7.0819C14.5286 7.1007 14.5396 7.11739 14.5546 7.12966C14.5698 7.14193 14.5882 7.14917 14.6076 7.15036C14.6801 7.15474 14.7537 7.16002 14.8277 7.16531C14.9897 7.17689 15.1572 7.1889 15.3245 7.19264C15.8014 7.20176 16.2782 7.20817 16.7555 7.21427C17.8087 7.22786 18.8976 7.2416 19.9664 7.29102C20.5419 7.323 21.1094 7.441 21.6504 7.64116C22.3132 7.88229 22.6329 8.39178 22.6005 9.15518C22.5505 10.3318 22.2606 11.5567 21.6882 13.0097C21.3093 13.9713 20.8813 14.9889 20.3002 16.3098C20.1661 16.5951 20.0131 16.8709 19.8419 17.1354C19.7894 17.2206 19.737 17.3058 19.6858 17.3915C19.4289 17.8217 19.0279 18.0651 18.4939 18.1149C17.7699 18.1825 16.9271 18.255 16.0914 18.2619C14.2354 18.277 12.3481 18.2746 10.5227 18.2721C9.94755 18.2713 9.37236 18.2708 8.79706 18.2704C8.69526 18.2704 8.59068 18.2613 8.49821 18.2526L8.45995 18.2492L7.65393 7.87765C7.78932 7.81703 7.92336 7.75913 8.05577 7.70169C8.38733 7.5582 8.70042 7.42273 9.00671 7.25964C10.2353 6.60454 11.2675 5.56703 12.2554 3.99439C12.789 3.14503 13.4544 2.16676 14.3423 1.35068C14.511 1.18923 14.7081 1.06075 14.9234 0.971741C15.0792 0.912303 15.1448 0.921201 15.1723 0.93916C15.2097 0.963409 15.2335 1.03945 15.2412 1.15905C15.2992 1.83463 15.3122 2.51338 15.2802 3.19071Z" fill="#E1CDAD"/>
<path d="M4.3359 8.1785C4.33093 8.17849 4.32596 8.17884 4.32104 8.17952C3.22076 8.34361 2.55058 8.96504 2.52785 9.84259C2.50566 10.7086 3.21189 11.41 4.13566 11.4396C4.15378 11.4402 4.17125 11.4405 4.18891 11.4405C4.62037 11.441 5.03581 11.2758 5.35052 10.9787C5.49498 10.8441 5.61123 10.6817 5.69248 10.5012C5.77375 10.3207 5.81839 10.1256 5.82374 9.92755C5.81895 9.4474 5.62853 8.98808 5.2929 8.64691C5.00743 8.34935 4.66746 8.18296 4.3359 8.1785ZM4.39759 10.0329C4.27315 10.1768 4.09697 10.1915 3.874 10.0767C3.68227 9.97796 3.61753 9.83593 3.68137 9.65425C3.7197 9.56026 3.76778 9.47055 3.82483 9.38677C3.84602 9.3525 3.86866 9.31585 3.89266 9.27592C3.9346 9.30245 3.9752 9.32706 4.01423 9.35076C4.12782 9.41266 4.23349 9.48824 4.329 9.57585C4.42102 9.66992 4.55228 9.85471 4.39759 10.0329Z" fill="#E1CDAD"/>
</g>
<defs>
<clipPath id="clip0_180_6102">
<rect width="24" height="19.5088" fill="white"/>
</clipPath>
</defs>
</svg>
