<svg width="405" height="185" viewBox="0 0 405 185" fill="none" xmlns="http://www.w3.org/2000/svg">
<path d="M74.5976 184.538V181.631H78.8981C79.9872 181.631 80.9402 181.407 81.7571 180.958C82.5739 180.494 83.2066 179.845 83.655 179.012C84.1195 178.179 84.3518 177.194 84.3518 176.057C84.3518 174.952 84.1195 173.991 83.655 173.174C83.1906 172.341 82.5499 171.701 81.733 171.252C80.9162 170.788 79.9712 170.555 78.8981 170.555H74.5255V167.648H78.9461C80.1954 167.648 81.3486 167.857 82.4057 168.273C83.4789 168.689 84.4078 169.282 85.1926 170.051C85.9935 170.804 86.6101 171.693 87.0426 172.718C87.491 173.743 87.7153 174.864 87.7153 176.081C87.7153 177.298 87.491 178.428 87.0426 179.469C86.6101 180.494 86.0015 181.391 85.2167 182.159C84.4318 182.912 83.5029 183.497 82.4298 183.913C81.3727 184.33 80.2275 184.538 78.9942 184.538H74.5976ZM72.3633 184.538V167.648H75.6307V184.538H72.3633Z" fill="#F9F6F1"/>
<path d="M96.5101 184.538L103.309 167.648H105.976L112.751 184.538H109.267L104.03 170.676H105.231L99.9217 184.538H96.5101ZM100.114 181.391V178.652H109.195V181.391H100.114Z" fill="#F9F6F1"/>
<path d="M122.194 184.538V167.648H124.476L125.461 170.916V184.538H122.194ZM133.87 184.538L123.851 171.564L124.476 167.648L134.494 180.622L133.87 184.538ZM133.87 184.538L132.933 181.367V167.648H136.224V184.538H133.87Z" fill="#F9F6F1"/>
<path d="M154.929 184.778C153.696 184.778 152.551 184.562 151.494 184.129C150.436 183.681 149.508 183.064 148.707 182.28C147.922 181.479 147.313 180.55 146.881 179.493C146.464 178.436 146.256 177.298 146.256 176.081C146.256 174.864 146.464 173.727 146.881 172.67C147.313 171.612 147.922 170.692 148.707 169.907C149.508 169.122 150.428 168.505 151.47 168.057C152.527 167.608 153.68 167.384 154.929 167.384C156.275 167.384 157.46 167.608 158.485 168.057C159.51 168.489 160.415 169.09 161.2 169.859L158.989 172.069C158.525 171.556 157.956 171.156 157.284 170.868C156.611 170.579 155.826 170.435 154.929 170.435C154.144 170.435 153.424 170.571 152.767 170.844C152.126 171.1 151.566 171.484 151.085 171.997C150.605 172.493 150.236 173.094 149.98 173.799C149.724 174.487 149.596 175.248 149.596 176.081C149.596 176.93 149.724 177.699 149.98 178.387C150.236 179.076 150.605 179.677 151.085 180.189C151.566 180.686 152.126 181.07 152.767 181.343C153.424 181.615 154.144 181.751 154.929 181.751C155.874 181.751 156.683 181.607 157.356 181.319C158.044 181.03 158.621 180.622 159.085 180.093L161.296 182.304C160.511 183.088 159.598 183.697 158.557 184.129C157.516 184.562 156.307 184.778 154.929 184.778Z" fill="#F9F6F1"/>
<path d="M171.015 184.538V167.648H174.282V184.538H171.015ZM173.418 184.538V181.655H182.763V184.538H173.418ZM173.418 177.306V174.52H181.922V177.306H173.418ZM173.418 170.531V167.648H182.643V170.531H173.418Z" fill="#F9F6F1"/>
<path d="M209.957 184.778C208.595 184.778 207.426 184.546 206.449 184.081C205.488 183.617 204.615 182.92 203.83 181.991L205.992 179.829C206.489 180.486 207.066 180.998 207.722 181.367C208.379 181.719 209.18 181.895 210.125 181.895C210.974 181.895 211.646 181.727 212.143 181.391C212.655 181.054 212.912 180.59 212.912 179.997C212.912 179.485 212.768 179.068 212.479 178.748C212.191 178.428 211.807 178.155 211.326 177.931C210.862 177.707 210.341 177.507 209.764 177.33C209.204 177.138 208.635 176.922 208.059 176.682C207.498 176.441 206.977 176.145 206.497 175.793C206.032 175.424 205.656 174.96 205.368 174.399C205.079 173.823 204.935 173.102 204.935 172.237C204.935 171.212 205.184 170.339 205.68 169.618C206.177 168.898 206.857 168.345 207.722 167.961C208.587 167.576 209.564 167.384 210.653 167.384C211.806 167.384 212.848 167.6 213.777 168.033C214.706 168.465 215.466 169.026 216.059 169.715L213.897 171.877C213.4 171.332 212.888 170.932 212.359 170.676C211.847 170.419 211.262 170.291 210.605 170.291C209.852 170.291 209.26 170.435 208.827 170.724C208.395 171.012 208.179 171.428 208.179 171.973C208.179 172.437 208.323 172.814 208.611 173.102C208.899 173.39 209.276 173.639 209.74 173.847C210.221 174.055 210.741 174.255 211.302 174.447C211.879 174.64 212.447 174.856 213.008 175.096C213.584 175.336 214.105 175.649 214.569 176.033C215.05 176.417 215.434 176.914 215.723 177.523C216.011 178.115 216.155 178.852 216.155 179.733C216.155 181.303 215.602 182.536 214.497 183.433C213.392 184.33 211.879 184.778 209.957 184.778Z" fill="#E9DFCD"/>
<path d="M229.681 184.538V168.009H232.973V184.538H229.681ZM224.3 170.555V167.648H238.355V170.555H224.3Z" fill="#E9DFCD"/>
<path d="M254.549 184.778C253.22 184.778 252.034 184.49 250.993 183.913C249.968 183.321 249.159 182.512 248.567 181.487C247.974 180.462 247.678 179.3 247.678 178.003V167.648H250.945V178.099C250.945 178.852 251.097 179.501 251.402 180.045C251.722 180.59 252.155 181.014 252.699 181.319C253.26 181.607 253.876 181.751 254.549 181.751C255.238 181.751 255.846 181.607 256.375 181.319C256.904 181.014 257.32 180.59 257.624 180.045C257.945 179.501 258.105 178.86 258.105 178.123V167.648H261.396V178.027C261.396 179.324 261.1 180.486 260.507 181.511C259.915 182.52 259.106 183.321 258.081 183.913C257.072 184.49 255.894 184.778 254.549 184.778Z" fill="#E9DFCD"/>
<path d="M274.305 184.538V181.631H278.605C279.694 181.631 280.647 181.407 281.464 180.958C282.281 180.494 282.914 179.845 283.362 179.012C283.826 178.179 284.059 177.194 284.059 176.057C284.059 174.952 283.826 173.991 283.362 173.174C282.898 172.341 282.257 171.701 281.44 171.252C280.623 170.788 279.678 170.555 278.605 170.555H274.232V167.648H278.653C279.902 167.648 281.056 167.857 282.113 168.273C283.186 168.689 284.115 169.282 284.9 170.051C285.7 170.804 286.317 171.693 286.75 172.718C287.198 173.743 287.422 174.864 287.422 176.081C287.422 177.298 287.198 178.428 286.75 179.469C286.317 180.494 285.708 181.391 284.924 182.159C284.139 182.912 283.21 183.497 282.137 183.913C281.08 184.33 279.934 184.538 278.701 184.538H274.305ZM272.07 184.538V167.648H275.338V184.538H272.07Z" fill="#E9DFCD"/>
<path d="M297.466 184.538V167.648H300.734V184.538H297.466Z" fill="#E9DFCD"/>
<path d="M319.552 184.802C318.319 184.802 317.165 184.578 316.092 184.129C315.035 183.681 314.106 183.064 313.305 182.28C312.521 181.479 311.904 180.55 311.455 179.493C311.007 178.42 310.783 177.274 310.783 176.057C310.783 174.84 310.999 173.711 311.431 172.67C311.88 171.612 312.497 170.692 313.281 169.907C314.082 169.106 315.011 168.489 316.068 168.057C317.125 167.608 318.271 167.384 319.504 167.384C320.753 167.384 321.906 167.608 322.963 168.057C324.021 168.489 324.942 169.106 325.726 169.907C326.527 170.692 327.152 171.612 327.6 172.67C328.049 173.727 328.273 174.864 328.273 176.081C328.273 177.298 328.049 178.436 327.6 179.493C327.152 180.55 326.527 181.479 325.726 182.28C324.942 183.064 324.021 183.681 322.963 184.129C321.922 184.578 320.785 184.802 319.552 184.802ZM319.504 181.751C320.593 181.751 321.538 181.511 322.339 181.03C323.14 180.55 323.764 179.885 324.213 179.036C324.677 178.187 324.909 177.194 324.909 176.057C324.909 175.224 324.781 174.463 324.525 173.775C324.269 173.086 323.9 172.493 323.42 171.997C322.939 171.484 322.371 171.092 321.714 170.82C321.057 170.547 320.321 170.411 319.504 170.411C318.447 170.411 317.51 170.652 316.693 171.132C315.892 171.596 315.259 172.253 314.795 173.102C314.346 173.951 314.122 174.936 314.122 176.057C314.122 176.906 314.25 177.683 314.507 178.387C314.779 179.092 315.147 179.693 315.612 180.189C316.092 180.686 316.661 181.07 317.318 181.343C317.99 181.615 318.719 181.751 319.504 181.751Z" fill="#E9DFCD"/>
<path d="M17.8227 37.5938C21.9397 34.1638 27.1744 34.4868 31.631 35.8016C35.2845 36.8795 37.3726 40.7151 36.2951 44.3686C35.2172 48.0224 31.3807 50.1107 27.7269 49.0328C27.3088 48.9095 26.8945 49.2115 26.8767 49.6471C26.7816 51.9835 27.1257 54.3587 27.4141 56.6616C27.7613 59.4339 28.2645 62.9012 28.3664 65.8239C28.652 74.0148 27.0559 80.6299 23.3097 85.8344C22.9181 86.3785 22.5099 86.8971 22.0871 87.3919C21.3659 88.2361 21.4529 89.5291 22.3022 90.2444C24.0291 91.6988 25.5895 93.2951 26.8153 94.9571C27.9453 96.4892 29.2211 98.6532 29.5664 101.194C30.5696 108.578 32.1829 113.481 34.0746 116.954C35.9151 120.333 38.1827 122.661 41.0079 124.681C44.1065 126.897 44.8216 131.206 42.6057 134.305C40.3899 137.403 36.0824 138.119 32.9838 135.903C28.7305 132.862 24.9429 129.03 21.9597 123.553C19.3381 118.739 17.4792 112.913 16.2925 105.681C16.0587 104.256 15.6093 102.838 14.5739 101.831C14.1988 101.466 13.8036 101.123 13.4149 100.796C11.2165 98.9444 8.1332 97.0915 4.7035 95.9403C1.95437 95.0175 0.0751888 92.4741 0.00219995 89.5752C-0.0707805 86.6763 1.67785 84.0411 4.37707 82.9812C8.25845 81.457 10.6265 79.8418 12.1134 77.7764C13.5536 75.7754 14.7942 72.469 14.5793 66.3043C14.5055 64.1896 14.1363 61.6487 13.7264 58.3757C13.3528 55.3918 12.9451 51.7747 13.1261 48.4821C13.2919 45.4669 14.027 40.7563 17.8227 37.5938Z" fill="#F9F6F1"/>
<path d="M393.077 87.8335C396.886 87.8482 399.986 84.7722 400.001 80.963L393.104 80.9357C399.746 80.9617 399.992 80.962 400.001 80.9607L400.002 80.957C400.002 80.957 400.001 80.9528 400.001 80.9505C400.001 80.9456 400.002 80.9394 400.002 80.9333C400.002 80.9212 400.001 80.9066 400.001 80.8896C400.001 80.8553 400.001 80.8112 400.001 80.7578C400 80.6508 399.998 80.5061 399.994 80.3266C399.985 79.9678 399.968 79.4683 399.935 78.852C399.867 77.6225 399.73 75.9086 399.454 73.9055C398.911 69.9753 397.783 64.5809 395.343 59.4969C392.494 53.5579 389.965 46.3895 394.842 39.1638C396.457 36.7706 396.411 33.6245 394.726 31.28C393.041 28.9355 390.074 27.8886 387.29 28.6565C383.402 29.7291 381.949 29.775 380.972 29.4915C380.229 29.2755 378.499 28.468 375.627 24.0644C373.461 20.7419 369.85 15.3422 364.866 12.4337C362.117 10.8297 358.673 9.80411 354.783 10.4553C350.988 11.0907 347.644 13.1777 344.719 16.1028C342.025 18.7967 342.026 23.1642 344.72 25.8577C347.414 28.5508 351.781 28.5507 354.474 25.8571C356.059 24.2724 356.494 23.7336 357.555 23.7336C358.616 23.7336 360.095 26.1984 360.743 26.9695C361.873 28.3145 362.963 29.8985 364.071 31.5987C367.722 37.1982 371.784 41.1886 377.124 42.7396C377.641 42.8898 378.157 43.0116 378.669 43.1094C377.088 52.6302 380.75 60.9718 382.906 65.4642C384.485 68.7543 385.346 72.5881 385.789 75.7919C386.004 77.3556 386.109 78.6857 386.16 79.6081C386.185 80.0673 386.196 80.4206 386.201 80.6457C386.204 80.758 386.205 80.8383 386.205 80.8832L386.206 80.9111C386.192 84.7194 389.268 87.8185 393.077 87.8335ZM386.206 80.9176L386.206 80.9134L386.206 80.9236C386.206 80.9236 386.206 80.92 386.206 80.9176Z" fill="#E9DFCD"/>
<path d="M39.8697 20.8404C40.5461 14.6247 46.0832 10.1405 52.2367 10.8247C56.2313 11.2688 64.9744 11.9641 72.7184 14.9722C80.8446 18.1288 90.538 24.9795 91.6922 38.6557C92.3922 46.951 88.6975 55.2667 85.6049 61.3711C83.9114 64.7137 81.9872 68.1337 80.1768 71.3505C78.3209 74.6481 76.5631 77.7702 74.9803 80.855C71.69 87.2674 69.9055 92.1487 69.6448 95.8317C69.4505 98.578 70.02 100.476 72.6691 102.616C73.5719 103.345 74.0882 103.449 75.2338 103.216C77.0066 102.855 79.5767 101.637 83.1924 99.1288C86.9134 96.5472 90.0371 93.8773 94.224 90.6718C97.6657 88.0367 102.587 84.4145 107.836 82.9146C113.469 81.305 119.811 81.002 125.419 84.7411C130.221 87.9428 132.404 93.0019 133.281 94.8867C134.367 97.2224 134.802 98.1178 135.204 98.6802C135.895 97.8842 136.77 96.7733 137.831 95.2546C141.694 89.7274 146.035 81.8842 151.796 71.9903C162.755 53.1668 175.895 35.4 196.869 32.2395C206.944 30.7213 215.561 33.9931 221.38 41.1888C223.621 43.9602 225.272 47.0997 226.488 50.3623C228.15 49.9822 229.591 49.6652 230.705 49.3903C236.718 47.9055 242.785 51.6259 244.256 57.7002C245.727 63.7746 242.045 69.9029 236.032 71.3878C234.197 71.841 232.488 72.2186 230.799 72.6035L231.244 75.4663C231.25 75.5051 231.256 75.5441 231.262 75.583C232.474 83.9573 235.303 90.48 238.472 94.1836C239.661 95.5733 240.775 96.4748 241.873 96.9974C242.577 94.1881 243.541 90.4068 244.809 86.689C248.286 76.4977 255.414 62.4248 272.238 57.079L272.92 56.8751C276.391 55.899 280.682 55.6583 284.899 57.7636C289.244 59.9329 291.503 63.6064 292.674 66.2661C293.84 68.9125 294.436 71.697 294.81 73.85C295.189 76.0316 295.478 78.458 295.721 80.3103C296.067 82.9431 296.381 84.7302 296.676 85.9352C298.815 85.0992 300.721 82.8162 304.933 76.524C309.355 69.9165 316.633 58.6128 331.876 56.1889C340.542 54.811 347.706 58.0717 352.772 63.5459C357.299 68.4386 360.018 74.8909 361.845 80.6421C363.733 86.5847 365.053 93.0709 366.125 98.9029C367.255 105.052 368.06 110.135 369.033 114.545C369.199 115.294 369.983 117.533 371.055 118.063C372.128 118.593 373.621 118.507 377.635 114.187C381.871 109.627 388.965 109.401 393.479 113.681C397.993 117.96 398.218 125.126 393.983 129.685C386.968 137.236 377.363 142.371 367.242 140.698C356.35 138.897 349.494 130.076 347.153 119.47C346.066 114.546 345.069 108.395 344.084 103.034C343.04 97.3551 341.928 92.054 340.5 87.5579C339.822 85.4254 339.028 83.4698 338.504 82.3728C337.979 81.2759 336.802 80.1184 334.422 79.5601C332.042 79.0019 330.69 80.1319 329.632 81.2195C328.574 82.3072 327.213 83.6706 323.505 89.2101C319.512 95.1762 312.469 107.067 297.654 108.818C293.584 109.3 289.38 108.792 285.524 106.701C281.708 104.632 279.235 101.556 277.651 98.6513C275.521 94.7443 274.529 90.1789 273.958 86.5582C273.711 84.9881 273.513 83.4103 273.309 81.8339C270.039 84.6578 267.789 88.8402 266.004 94.0708C264.644 98.0591 263.9 101.546 262.895 105.363C262.467 106.99 261.864 109.166 261.004 111.097C260.566 112.08 259.842 113.513 258.683 114.916C257.508 116.339 255.396 118.312 252.141 119.183C240.436 122.319 230.378 118.141 223.246 110.878C222.4 112.348 221.465 113.803 220.43 115.238C213.302 125.123 204.872 131.547 195.837 133.97C186.661 136.431 177.618 134.492 170.85 129.034C165.532 124.745 163.964 118.529 163.835 113.565C163.705 108.539 164.936 103.308 166.831 98.4189C170.651 88.5625 178.036 77.8573 188.269 68.8833C194.057 63.8085 199.76 60.1778 205.169 57.5063C204.785 56.631 204.392 55.9739 204.019 55.5133C203.586 54.9767 203.269 54.805 203.016 54.7112C202.727 54.6046 201.901 54.3785 200.179 54.638C190.681 56.0695 182.249 64.3603 171.121 83.4734C165.837 92.5479 160.719 101.772 156.146 108.316C153.852 111.599 151.192 114.964 148.151 117.501C145.191 119.971 140.258 122.973 133.985 122.054C127.332 121.08 122.33 118.161 118.709 114.054C115.835 110.795 114.112 106.972 113.225 105.021C111.271 106.013 109.503 107.392 107.768 108.72C104.735 111.042 100.117 114.861 95.8869 117.796C91.5511 120.804 85.9588 124.133 79.6717 125.414C72.7573 126.823 65.3143 125.667 58.6717 120.302C49.7631 113.107 46.6102 103.726 47.2835 94.2123C47.8906 85.6361 51.5642 77.2775 55.0765 70.4321C56.895 66.8881 58.8745 63.3759 60.6865 60.1563C62.544 56.8558 64.218 53.8742 65.6478 51.0519C68.8018 44.8265 69.454 41.757 69.3544 40.5757C69.229 39.0896 68.712 37.6773 64.675 36.1091C60.256 34.3926 54.8831 33.9011 49.7871 33.3345C43.6337 32.6502 39.1934 27.0562 39.8697 20.8404ZM208.022 82.0056C206.362 83.1686 204.675 84.4857 202.967 85.9842C195.189 92.804 190.076 100.563 187.706 106.679C186.77 109.095 186.389 110.923 186.28 112.118C187.227 112.429 188.472 112.514 190.082 112.083C192.843 111.342 197.307 108.838 202.309 101.902C206.242 96.4475 207.849 90.2287 208.022 82.0056Z" fill="url(#paint0_linear_182_6820)"/>
<path d="M42.6805 13.8284C43.4067 7.71786 48.9495 3.35284 55.0602 4.07892C59.027 4.55026 67.7117 5.30948 75.3831 8.33603C83.4332 11.512 93.009 18.3364 94.0377 31.804C94.6615 39.9728 90.9168 48.1238 87.7898 54.1041C86.0775 57.3787 84.1352 60.7276 82.3077 63.8774C80.4343 67.1064 78.6599 70.1635 77.0599 73.1854C73.7338 79.4671 71.9176 84.255 71.6265 87.877C71.4095 90.5777 71.9592 92.4504 74.5738 94.5787C75.4649 95.304 75.9772 95.4111 77.1179 95.1912C78.8832 94.8508 81.4485 93.6751 85.0643 91.2377C88.7853 88.7293 91.9134 86.1289 96.103 83.0105C99.547 80.4471 104.47 76.9251 109.7 75.4943C115.314 73.9587 121.62 73.715 127.162 77.4425C131.907 80.6343 134.034 85.6313 134.889 87.4935C135.786 89.4462 138.112 89.6938 139.369 87.9507C139.382 87.9321 139.396 87.9134 139.409 87.8946C143.296 82.4888 147.68 74.8083 153.491 65.122C164.549 46.6935 177.763 29.3234 198.639 26.3935C208.668 24.9861 217.204 28.2796 222.926 35.4103C224.708 37.6309 226.104 40.085 227.197 42.6458C227.641 43.6863 228.747 44.3033 229.853 44.065C230.708 43.8807 231.472 43.7141 232.123 43.5608C238.113 42.1514 244.112 45.8644 245.521 51.8543C246.931 57.8442 243.218 63.8429 237.228 65.2525C236.144 65.5075 235.105 65.7368 234.088 65.9571C232.922 66.2095 232.151 67.3209 232.326 68.5008L232.433 69.2247C232.439 69.263 232.444 69.3013 232.45 69.3397C233.582 77.5905 236.337 84.0333 239.455 87.7049C240.932 89.4439 243.339 88.4498 243.965 86.2559C244.497 84.3903 245.113 82.3777 245.82 80.3845C249.364 70.386 256.571 56.5992 273.341 51.4833L274.021 51.2885C277.479 50.3578 281.747 50.1578 285.92 52.2657C290.22 54.4376 292.433 58.0718 293.575 60.6991C294.711 63.3132 295.279 66.0583 295.632 68.1801C295.99 70.3301 296.256 72.7202 296.482 74.545C296.847 77.5031 299.724 78.7943 301.601 76.4795C302.702 75.1222 304.008 73.312 305.671 70.8983C310.124 64.4344 317.456 53.3738 332.629 51.1195C341.254 49.8381 348.348 53.1082 353.335 58.5384C357.793 63.3918 360.44 69.7643 362.206 75.4393C364.031 81.3031 365.286 87.6971 366.302 93.445C367.372 99.506 368.128 104.514 369.057 108.862C369.215 109.6 369.975 111.811 371.036 112.341C372.098 112.872 373.583 112.8 377.61 108.583C381.86 104.133 388.914 103.971 393.364 108.222C397.814 112.472 397.975 119.524 393.725 123.974C386.687 131.344 377.096 136.315 367.05 134.582C356.239 132.716 349.5 123.977 347.265 113.52C346.227 108.666 345.29 102.604 344.357 97.3207C343.368 91.7237 342.31 86.4978 340.929 82.0613C340.274 79.9571 339.501 78.0258 338.99 76.9419C338.478 75.858 337.317 74.7089 334.956 74.1391C332.596 73.5694 331.242 74.6697 330.181 75.7309C329.12 76.7921 327.755 78.122 324.022 83.5411C320 89.3776 312.897 101.018 298.155 102.614C294.106 103.053 289.931 102.517 286.117 100.427C282.341 98.3578 279.91 95.31 278.361 92.4377C276.277 88.5748 275.331 84.0739 274.795 80.5061C274.495 78.5093 272.209 77.6658 271.034 79.3082C269.347 81.6673 267.992 84.5354 266.824 87.8303C265.437 91.7432 264.667 95.1685 263.635 98.9156C263.195 100.513 262.577 102.649 261.705 104.542C261.262 105.505 260.53 106.909 259.365 108.28C258.185 109.67 256.068 111.593 252.825 112.423C241.735 115.261 232.182 111.603 225.229 105.038C224.687 104.527 223.802 104.632 223.403 105.261C222.762 106.273 222.076 107.276 221.339 108.268C214.168 117.933 205.733 124.183 196.731 126.489C187.588 128.832 178.617 126.847 171.937 121.418C166.688 117.152 165.183 111.021 165.098 106.135C165.012 101.189 166.281 96.052 168.207 91.2574C172.09 81.5913 179.523 71.1206 189.773 62.3779C194.875 58.0263 199.903 54.7751 204.717 52.2975C205.8 51.7402 206.347 50.3953 205.603 49.4311C205.584 49.4058 205.564 49.381 205.545 49.3568C205.118 48.825 204.806 48.6534 204.554 48.5588C204.269 48.4515 203.449 48.2219 201.736 48.4625C192.282 49.7896 183.828 57.8755 172.601 76.5876C167.27 85.4716 162.103 94.5045 157.501 100.904C155.192 104.115 152.518 107.404 149.474 109.874C146.51 112.279 141.58 115.191 135.353 114.233C128.749 113.217 123.802 110.302 120.239 106.23C118.891 104.69 117.804 103.026 116.942 101.498C115.682 99.2646 112.971 98.277 110.897 99.7854C110.396 100.15 109.901 100.52 109.409 100.887C106.374 103.146 101.751 106.864 97.5207 109.716C93.1848 112.639 87.5972 115.866 81.3367 117.073C74.4515 118.4 67.0632 117.198 60.507 111.862C51.7142 104.705 48.6615 95.4468 49.4134 86.0914C50.0912 77.6575 53.8153 69.464 57.366 62.7582C59.2043 59.2864 61.2023 55.8474 63.0314 52.6947C64.9064 49.4629 66.5962 46.5433 68.042 43.7784C71.231 37.6796 71.9059 34.6648 71.8172 33.5015C71.7055 32.0381 71.2038 30.6439 67.2046 29.0661C62.827 27.3391 57.4905 26.8093 52.43 26.208C46.3194 25.4817 41.9544 19.939 42.6805 13.8284ZM209.188 77.6793C209.249 76.7561 208.226 76.1963 207.482 76.7467C206.41 77.5404 205.327 78.3997 204.234 79.3317C196.444 85.9757 191.294 93.5672 188.885 99.5643C188.485 100.561 188.183 101.457 187.959 102.247C187.526 103.775 188.53 105.318 190.105 105.115C190.449 105.071 190.814 105.001 191.2 104.902C193.951 104.197 198.41 101.771 203.442 94.9891C207.029 90.1548 208.722 84.6858 209.188 77.6793Z" fill="url(#paint1_linear_182_6820)"/>
<defs>
<linearGradient id="paint0_linear_182_6820" x1="40.2837" y1="77.3759" x2="396.602" y2="74.2663" gradientUnits="userSpaceOnUse">
<stop stop-color="#00D6B2"/>
<stop offset="0.33" stop-color="#F1CE00"/>
<stop offset="0.66" stop-color="#FF6207"/>
<stop offset="1" stop-color="#FF74AB"/>
</linearGradient>
<linearGradient id="paint1_linear_182_6820" x1="42.6016" y1="69.464" x2="396.81" y2="69.464" gradientUnits="userSpaceOnUse">
<stop stop-color="#F9F6F1"/>
<stop offset="1" stop-color="#E9DFCD"/>
</linearGradient>
</defs>
</svg>
