<svg width="166" height="60" viewBox="0 0 166 60" fill="none" xmlns="http://www.w3.org/2000/svg">
<path d="M7.30172 15.2985C8.98839 13.8932 11.133 14.0256 12.9588 14.5642C14.4556 15.0058 15.3111 16.5772 14.8696 18.074C14.428 19.5709 12.8562 20.4265 11.3593 19.9849C11.188 19.9344 11.0183 20.0581 11.011 20.2365C10.9721 21.1937 11.113 22.1668 11.2312 23.1103C11.3734 24.2461 11.5796 25.6666 11.6214 26.864C11.7383 30.2198 11.0844 32.9299 9.54969 35.0621C9.38925 35.285 9.22201 35.4975 9.0488 35.7002C8.75331 36.0461 8.78897 36.5758 9.1369 36.8688C9.8444 37.4647 10.4837 38.1187 10.9859 38.7996C11.4488 39.4273 11.9715 40.3138 12.1129 41.3549C12.5239 44.3798 13.1849 46.3885 13.9599 47.8114C14.7139 49.1959 15.6429 50.1497 16.8004 50.9774C18.0699 51.8852 18.3628 53.6503 17.455 54.9198C16.5472 56.1892 14.7825 56.4824 13.513 55.5748C11.7705 54.3287 10.2188 52.7589 8.99658 50.5149C7.92256 48.5429 7.16099 46.1559 6.67484 43.1931C6.57902 42.6091 6.3949 42.0285 5.97074 41.6159C5.81705 41.4664 5.65517 41.3258 5.49592 41.1917C4.59524 40.4332 3.33206 39.6741 1.92696 39.2024C0.800679 38.8243 0.0308039 37.7824 0.000901289 36.5947C-0.0289978 35.407 0.687395 34.3274 1.79323 33.8932C3.38338 33.2688 4.35354 32.607 4.96269 31.7608C5.55274 30.9411 6.06098 29.5864 5.97294 27.0608C5.94272 26.1945 5.79144 25.1535 5.62353 23.8126C5.47045 22.5901 5.30342 21.1082 5.37759 19.7593C5.44553 18.524 5.74668 16.5941 7.30172 15.2985Z" fill="#F9F4EC"/>
<path d="M161.041 35.8811C162.602 35.8871 163.872 34.6269 163.878 33.0663L161.052 33.0552C163.774 33.0658 163.874 33.0659 163.878 33.0654L163.878 33.0639C163.878 33.0639 163.878 33.0622 163.878 33.0612C163.878 33.0592 163.878 33.0567 163.878 33.0542C163.878 33.0492 163.878 33.0432 163.878 33.0363C163.878 33.0222 163.878 33.0042 163.878 32.9823C163.878 32.9385 163.877 32.8792 163.875 32.8056C163.872 32.6586 163.865 32.454 163.851 32.2015C163.823 31.6978 163.767 30.9956 163.654 30.175C163.432 28.5648 162.969 26.3548 161.97 24.2719C160.802 21.8388 159.767 18.902 161.765 15.9416C162.426 14.9612 162.407 13.6723 161.717 12.7117C161.027 11.7512 159.811 11.3223 158.671 11.6369C157.078 12.0764 156.482 12.0952 156.082 11.979C155.778 11.8905 155.069 11.5597 153.893 9.75561C153.005 8.39439 151.526 6.18219 149.484 4.99062C148.358 4.33346 146.947 3.9133 145.353 4.18006C143.798 4.44041 142.428 5.29542 141.23 6.49381C140.126 7.59745 140.127 9.38679 141.23 10.4903C142.334 11.5936 144.123 11.5936 145.226 10.49C145.875 9.84079 146.054 9.62006 146.488 9.62006C146.923 9.62006 147.529 10.6299 147.795 10.9458C148.258 11.4968 148.704 12.1458 149.158 12.8423C150.654 15.1364 152.318 16.7712 154.506 17.4066C154.718 17.4682 154.929 17.5181 155.139 17.5581C154.491 21.4587 155.991 24.8762 156.875 26.7167C157.521 28.0646 157.874 29.6353 158.056 30.9478C158.144 31.5884 158.187 32.1334 158.207 32.5113C158.218 32.6994 158.222 32.8441 158.225 32.9364C158.226 32.9824 158.226 33.0153 158.226 33.0337L158.226 33.0451C158.221 34.6053 159.481 35.875 161.041 35.8811ZM158.227 33.0478L158.226 33.046L158.226 33.0502C158.226 33.0502 158.227 33.0487 158.227 33.0478Z" fill="#E9DFCD"/>
<path d="M16.3339 8.43475C16.611 5.88824 18.8794 4.0511 21.4004 4.3314C23.037 4.51336 26.6189 4.7982 29.7916 6.03059C33.1208 7.32381 37.092 10.1305 37.5649 15.7335C37.8516 19.132 36.338 22.5388 35.071 25.0397C34.3772 26.4092 33.5889 27.8103 32.8472 29.1282C32.0868 30.4792 31.3667 31.7583 30.7182 33.0221C29.3702 35.6492 28.6391 37.649 28.5323 39.1579C28.4527 40.283 28.6861 41.0607 29.7713 41.9373C30.1412 42.2361 30.3527 42.2788 30.8221 42.1831C31.5484 42.0351 32.6013 41.5364 34.0826 40.5087C35.607 39.451 36.8868 38.3572 38.6021 37.0439C40.0121 35.9644 42.0282 34.4804 44.1786 33.8659C46.4866 33.2064 49.0846 33.0823 51.3821 34.6142C53.3494 35.9259 54.2438 37.9986 54.603 38.7708C55.0482 39.7277 55.2264 40.0945 55.391 40.3249C55.6744 39.9988 56.0327 39.5437 56.4675 38.9215C58.0499 36.657 59.8284 33.4438 62.1884 29.3903C66.6785 21.6785 72.0614 14.3997 80.6543 13.1048C84.7822 12.4829 88.3124 13.8232 90.6963 16.7713C91.6145 17.9067 92.2909 19.1929 92.7887 20.5295C93.47 20.3738 94.0602 20.244 94.5164 20.1313C96.9799 19.523 99.4656 21.0472 100.068 23.5358C100.671 26.0245 99.1625 28.5351 96.699 29.1435C95.9472 29.3291 95.2469 29.4839 94.5549 29.6416L94.7373 30.8144C94.7398 30.8303 94.7422 30.8463 94.7446 30.8622C95.2412 34.2931 96.4002 36.9653 97.6984 38.4827C98.1855 39.052 98.642 39.4214 99.0919 39.6355C99.3803 38.4845 99.7753 36.9354 100.295 35.4122C101.719 31.237 104.64 25.4714 111.532 23.2813L111.812 23.1978C113.234 22.7979 114.992 22.6993 116.719 23.5618C118.499 24.4505 119.425 25.9555 119.905 27.0452C120.382 28.1294 120.626 29.2702 120.78 30.1522C120.935 31.046 121.053 32.0401 121.153 32.799C121.294 33.8776 121.423 34.6097 121.544 35.1034C122.42 34.7609 123.201 33.8256 124.927 31.2477C126.739 28.5407 129.72 23.9097 135.965 22.9167C139.515 22.3521 142.451 23.688 144.526 25.9307C146.38 27.9352 147.494 30.5787 148.243 32.9349C149.016 35.3695 149.557 38.0268 149.996 40.4161C150.459 42.9355 150.789 45.0178 151.188 46.8245C151.256 47.1313 151.577 48.0487 152.016 48.2658C152.455 48.4829 153.067 48.4475 154.712 46.6777C156.447 44.8098 159.353 44.7171 161.203 46.4704C163.052 48.2238 163.145 51.1593 161.409 53.0272C158.535 56.1206 154.601 58.2247 150.454 57.5392C145.992 56.8013 143.183 53.1876 142.224 48.8421C141.778 46.8251 141.37 44.3048 140.966 42.1086C140.539 39.782 140.083 37.6102 139.498 35.7682C139.221 34.8946 138.895 34.0933 138.68 33.6439C138.465 33.1945 137.983 32.7203 137.008 32.4916C136.033 32.2629 135.479 32.7259 135.046 33.1715C134.612 33.617 134.054 34.1756 132.535 36.4451C130.899 38.8893 128.014 43.7609 121.945 44.4784C120.277 44.6756 118.555 44.4674 116.975 43.611C115.412 42.7634 114.399 41.5033 113.75 40.3131C112.877 38.7124 112.471 36.842 112.237 35.3586C112.136 34.7154 112.054 34.069 111.971 33.4232C110.631 34.5801 109.709 36.2936 108.978 38.4365C108.421 40.0704 108.116 41.4992 107.704 43.0629C107.529 43.7293 107.282 44.6209 106.93 45.412C106.75 45.8147 106.454 46.4017 105.979 46.9765C105.497 47.5595 104.632 48.3677 103.299 48.7249C98.5034 50.0094 94.3825 48.2976 91.4606 45.3222C91.1141 45.9243 90.7312 46.5205 90.3072 47.1086C87.3869 51.1581 83.9332 53.7901 80.2317 54.7828C76.4722 55.7909 72.7676 54.9968 69.9947 52.7606C67.8161 51.0035 67.1736 48.4567 67.1209 46.423C67.0674 44.364 67.5718 42.2208 68.3481 40.2179C69.9131 36.1798 72.9387 31.794 77.1313 28.1174C79.5022 26.0383 81.8388 24.5509 84.0548 23.4564C83.8975 23.0978 83.7364 22.8286 83.5839 22.6399C83.4061 22.42 83.2766 22.3497 83.1727 22.3112C83.0546 22.2676 82.7161 22.175 82.0106 22.2813C78.1192 22.8677 74.6647 26.2644 70.1056 34.0948C67.9411 37.8125 65.8443 41.5916 63.9709 44.2725C63.0309 45.6176 61.941 46.9963 60.6952 48.0357C59.4825 49.0475 57.4615 50.2775 54.8915 49.9011C52.166 49.5018 50.1167 48.3061 48.6334 46.6236C47.456 45.2881 46.7501 43.7219 46.3864 42.9227C45.586 43.3291 44.8615 43.894 44.1509 44.4381C42.9082 45.3895 41.0165 46.9541 39.2834 48.1566C37.5071 49.389 35.216 50.7524 32.6402 51.2774C29.8075 51.8548 26.7582 51.3811 24.0368 49.1832C20.3871 46.2353 19.0953 42.3919 19.3712 38.4945C19.6199 34.9809 21.125 31.5564 22.5639 28.752C23.3089 27.3 24.1199 25.8611 24.8622 24.542C25.6232 23.1899 26.309 21.9683 26.8948 20.8121C28.187 18.2616 28.4542 17.0041 28.4134 16.5201C28.362 15.9113 28.1502 15.3326 26.4963 14.6902C24.6859 13.9869 22.4846 13.7856 20.3969 13.5535C17.8759 13.2731 16.0568 10.9813 16.3339 8.43475ZM85.2235 33.4935C84.5438 33.97 83.8526 34.5096 83.1525 35.1235C79.9663 37.9175 77.8714 41.0964 76.9004 43.6018C76.5168 44.5916 76.361 45.3408 76.3163 45.8301C76.7042 45.9576 77.2145 45.9925 77.8739 45.8157C79.005 45.5123 80.8338 44.4864 82.8831 41.6447C84.4944 39.4102 85.1529 36.8624 85.2235 33.4935Z" fill="url(#paint0_linear_362_489)"/>
<g filter="url(#filter0_d_362_489)">
<path d="M17.4855 5.562C17.783 3.05857 20.0538 1.27026 22.5573 1.56773C24.1824 1.76084 27.7404 2.07188 30.8833 3.31183C34.1813 4.61297 38.1044 7.40889 38.5258 12.9264C38.7814 16.2731 37.2472 19.6125 35.9661 22.0625C35.2646 23.4041 34.4689 24.7761 33.7202 26.0665C32.9527 27.3894 32.2258 28.6419 31.5702 29.8799C30.2076 32.4535 29.4635 34.415 29.3443 35.8989C29.2554 37.0054 29.4806 37.7726 30.5517 38.6446C30.9168 38.9417 31.1267 38.9856 31.594 38.8955C32.3172 38.7561 33.3682 38.2744 34.8495 37.2758C36.374 36.2481 37.6555 35.1828 39.372 33.9052C40.7829 32.855 42.7998 31.412 44.9426 30.8259C47.2424 30.1967 49.8259 30.0969 52.0964 31.624C54.0405 32.9317 54.9116 34.9789 55.262 35.7418C55.6293 36.5418 56.5826 36.6433 57.0973 35.9291C57.1028 35.9215 57.1084 35.9138 57.1139 35.9062C58.7065 33.6915 60.5022 30.5448 62.8832 26.5764C67.4132 19.0265 72.8271 11.9101 81.3796 10.7098C85.4881 10.1332 88.9855 11.4825 91.3296 14.4039C92.0704 15.3272 92.6486 16.349 93.0992 17.4151C93.2683 17.8151 93.6931 18.0517 94.1176 17.9603C94.4881 17.8806 94.8181 17.8088 95.0976 17.743C97.5516 17.1656 100.009 18.6868 100.587 21.1408C101.164 23.5948 99.643 26.0524 97.189 26.6299C96.726 26.7389 96.2827 26.8363 95.8488 26.9302C95.4013 27.0269 95.1055 27.4536 95.1726 27.9066L95.2245 28.2573C95.2268 28.273 95.2292 28.2887 95.2313 28.3044C95.6952 31.6847 96.8241 34.3242 98.1013 35.8285C98.7063 36.5409 99.6927 36.1336 99.949 35.2348C100.167 34.4705 100.42 33.6459 100.709 32.8294C102.161 28.7331 105.114 23.0847 111.984 20.9888L112.263 20.909C113.679 20.5277 115.428 20.4458 117.137 21.3094C118.899 22.1992 119.806 23.6881 120.274 24.7644C120.739 25.8354 120.972 26.96 121.116 27.8293C121.263 28.7101 121.372 29.6893 121.464 30.437C121.614 31.6489 122.793 32.1779 123.562 31.2295C124.013 30.6734 124.548 29.9318 125.229 28.9429C127.054 26.2947 130.057 21.7633 136.274 20.8398C139.807 20.3148 142.713 21.6545 144.757 23.8792C146.583 25.8676 147.667 28.4783 148.391 30.8034C149.139 33.2057 149.653 35.8252 150.069 38.1801C150.507 40.6632 150.817 42.7151 151.198 44.4963C151.262 44.7987 151.574 45.7043 152.008 45.9217C152.443 46.139 153.052 46.1095 154.702 44.3821C156.443 42.5589 159.333 42.4927 161.156 44.2339C162.979 45.9751 163.045 48.8645 161.304 50.6876C158.42 53.707 154.491 55.7436 150.375 55.0334C145.946 54.2691 143.185 50.6889 142.27 46.4047C141.845 44.4161 141.461 41.9326 141.078 39.7679C140.673 37.4749 140.239 35.3339 139.674 33.5163C139.406 32.6542 139.089 31.863 138.879 31.419C138.67 30.9749 138.194 30.5041 137.227 30.2707C136.26 30.0373 135.705 30.4881 135.271 30.9228C134.836 31.3576 134.277 31.9024 132.747 34.1226C131.1 36.5137 128.19 41.2826 122.15 41.9366C120.491 42.1162 118.781 41.8966 117.218 41.0404C115.671 40.1928 114.675 38.9442 114.041 37.7674C113.187 36.1848 112.799 34.3409 112.58 32.8792C112.457 32.0611 111.52 31.7155 111.039 32.3884C110.348 33.3549 109.793 34.5299 109.314 35.8798C108.746 37.4829 108.43 38.8862 108.008 40.4213C107.827 41.0756 107.574 41.9509 107.217 42.7263C107.035 43.1211 106.735 43.6961 106.258 44.2577C105.775 44.8272 104.908 45.615 103.579 45.9551C99.0207 47.1218 95.0961 45.6096 92.2453 42.9035C92.0379 42.7066 91.6983 42.747 91.5456 42.9889C91.2772 43.4141 90.9892 43.8358 90.6796 44.253C87.7417 48.2128 84.2859 50.7731 80.598 51.718C76.8523 52.6778 73.1768 51.8645 70.44 49.6402C68.2896 47.8925 67.6731 45.3809 67.6383 43.3793C67.603 41.3528 68.123 39.2481 68.912 37.2838C70.5027 33.3238 73.5481 29.034 77.7475 25.4522C79.8554 23.6543 81.9324 22.3148 83.9197 21.2966C84.3358 21.0834 84.5428 20.5704 84.2667 20.1931C84.2473 20.1667 84.228 20.1415 84.2089 20.1176C84.0341 19.8997 83.906 19.8294 83.803 19.7907C83.686 19.7467 83.3503 19.6527 82.6482 19.7512C78.775 20.2949 75.3118 23.6076 70.7121 31.2738C68.5283 34.9135 66.4113 38.6142 64.5259 41.2361C63.5799 42.5516 62.4845 43.899 61.2372 44.9111C60.023 45.8963 58.0034 47.0893 55.4522 46.6968C52.7464 46.2805 50.7198 45.0863 49.26 43.4179C48.6766 42.7512 48.2126 42.0281 47.8503 41.3735C47.3737 40.5124 46.3297 40.1313 45.5311 40.7066C45.2923 40.8787 45.057 41.0549 44.8233 41.2289C43.5799 42.1544 41.686 43.6777 39.9528 44.8461C38.1764 46.0436 35.8872 47.3656 33.3224 47.8601C30.5016 48.4038 27.4747 47.9116 24.7887 45.7254C21.1865 42.7933 19.9358 39.0002 20.2438 35.1674C20.5215 31.7121 22.0472 28.3553 23.5019 25.608C24.255 24.1857 25.0736 22.7767 25.823 21.4851C26.5911 20.1611 27.2834 18.965 27.8757 17.8322C29.1822 15.3336 29.4587 14.0985 29.4224 13.6218C29.3766 13.0223 29.1711 12.4511 27.5327 11.8047C25.7392 11.0972 23.5529 10.8801 21.4797 10.6338C18.9763 10.3362 17.188 8.06545 17.4855 5.562ZM85.7049 31.6641C85.7276 31.3097 85.3347 31.0943 85.0487 31.3049C84.5944 31.6395 84.1352 32.0028 83.6718 32.398C80.4805 35.12 78.3706 38.2302 77.3837 40.6871C77.2081 41.1242 77.0789 41.5137 76.9854 41.8537C76.8239 42.4414 77.2076 43.034 77.8136 42.9694C77.975 42.9522 78.1477 42.9213 78.3321 42.874C79.4591 42.5852 81.2858 41.5914 83.3475 38.8127C84.8266 36.819 85.5194 34.5619 85.7049 31.6641Z" fill="url(#paint1_linear_362_489)"/>
</g>
<defs>
<filter id="filter0_d_362_489" x="14.3823" y="-7.51019e-06" width="151.255" height="59.7814" filterUnits="userSpaceOnUse" color-interpolation-filters="sRGB">
<feFlood flood-opacity="0" result="BackgroundImageFix"/>
<feColorMatrix in="SourceAlpha" type="matrix" values="0 0 0 0 0 0 0 0 0 0 0 0 0 0 0 0 0 0 127 0" result="hardAlpha"/>
<feOffset dy="1.53541"/>
<feGaussianBlur stdDeviation="1.53541"/>
<feComposite in2="hardAlpha" operator="out"/>
<feColorMatrix type="matrix" values="0 0 0 0 0.129412 0 0 0 0 0.172549 0 0 0 0 0.313726 0 0 0 0.5 0"/>
<feBlend mode="normal" in2="BackgroundImageFix" result="effect1_dropShadow_362_489"/>
<feBlend mode="normal" in="SourceGraphic" in2="effect1_dropShadow_362_489" result="shape"/>
</filter>
<linearGradient id="paint0_linear_362_489" x1="16.5035" y1="31.5968" x2="162.482" y2="30.3228" gradientUnits="userSpaceOnUse">
<stop stop-color="#00D6B2"/>
<stop offset="0.33" stop-color="#F1CE00"/>
<stop offset="0.66" stop-color="#FF6207"/>
<stop offset="1" stop-color="#FF74AB"/>
</linearGradient>
<linearGradient id="paint1_linear_362_489" x1="17.4531" y1="28.3553" x2="162.568" y2="28.3553" gradientUnits="userSpaceOnUse">
<stop stop-color="#F9F6F1"/>
<stop offset="1" stop-color="#E9DFCD"/>
</linearGradient>
</defs>
</svg>
